<?xml version="1.0" encoding="utf-8"?>
<!-- Generator: Adobe Illustrator 24.2.0, SVG Export Plug-In . SVG Version: 6.00 Build 0)  -->
<svg version="1.0" id="katman_1" xmlns="http://www.w3.org/2000/svg" xmlns:xlink="http://www.w3.org/1999/xlink" x="0px" y="0px"
	 viewBox="0 0 1000 1000" style="enable-background:new 0 0 1000 1000;" xml:space="preserve">
<style type="text/css">
	.st0{fill-rule:evenodd;clip-rule:evenodd;fill:#BBBBBB;}
</style>
<g>
	<path class="st0" d="M385.5,441v89.2h22h22v-34c0-22.5,0.1-34.9,0.3-36.5c0.5-3.5,1.7-6.9,3.4-9.4c3-4.5,7.4-6.6,13.3-6.2
		c7.7,0.4,12.2,5,13.5,13.6c0.2,1.3,0.3,14.8,0.3,37.3l0,35.2h22h22v-41.1c0-34.7-0.1-41.8-0.5-45.2c-1.4-12.3-5.6-21.9-12.7-29
		c-6.1-6.1-13.7-9.7-23-11c-3.6-0.5-12.8-0.2-16,0.5c-7.9,1.7-14.2,5.1-19.8,10.7l-3.1,3.1V385v-33.2h-21.8h-21.8V441z M852.2,353.1
		c-1.2,2.7-45.8,110.6-45.8,110.8c0,0.1,11.7,0.1,26,0.1l26-0.1l23.1-55.8c12.7-30.7,23.1-55.9,23.2-56.1c0-0.1-11.7-0.2-25.9-0.2
		h-25.9L852.2,353.1z M289.2,403.8c-9.7,1.4-17,4.1-24.4,9c-14.8,9.8-24.9,26.3-27.7,45.3c-1.3,8.8-0.7,19.9,1.4,28.4
		c5.4,21.4,19.8,37.7,38.7,44c6.9,2.3,9.4,2.7,17.8,2.7c6.1,0,8-0.1,10.2-0.6c8.9-1.9,15.4-5.3,20.8-10.7l2.8-2.8v5.6v5.5H350h21.2
		v-61.9v-61.9H350h-21.2v5.7v5.7l-2-2.1c-5.1-5.3-12-9.1-20.6-11.1c-2.9-0.7-4.2-0.8-9.7-0.9C293.1,403.7,289.8,403.7,289.2,403.8z
		 M569.5,404.2c-12,1.6-24.1,6.8-33.1,14.1c-17.5,14.2-26,37.1-22.6,60.5c3.8,25.9,22.1,46.1,47.7,52.7c5.7,1.5,10.9,2.1,17.8,2.1
		c12,0,21.1-2.1,31.1-7c18.9-9.4,31.4-26.9,34.5-48.2c0.7-5.2,0.7-14.3,0-19.4c-1.6-10.6-5.5-20.4-11.5-28.8
		c-2.4-3.4-8.5-9.7-11.7-12.2c-9.6-7.4-20.7-12.1-32.9-13.6C583.9,403.5,574.3,403.5,569.5,404.2z M709.2,404.2
		c-11.8,1.6-23.1,6.3-32.5,13.6c-3.3,2.6-9.3,8.9-11.7,12.2c-6,8.4-9.9,18.2-11.5,28.8c-0.8,5.1-0.8,14.2,0,19.4
		c4,27.5,23.9,48.5,51.1,53.9c5.2,1,8.3,1.3,14.5,1.3c11.9,0,22.1-2.3,31.8-7.3c25.7-13.2,38.9-41.7,33-71.2
		c-5.4-27.2-27.1-47-55.6-50.7C723.6,403.5,713.9,403.5,709.2,404.2z M95.4,406.7c0,0.1,11.8,28.1,26.3,62.3
		c14.5,34.1,26.3,62.2,26.3,62.4c0,0.2-4.3,10.3-9.4,22.6c-5.2,12.2-9.4,22.3-9.4,22.4c0,0.1,10.5,0.1,23.3,0l23.3-0.1l35.1-84.5
		c19.3-46.5,35.1-84.6,35.1-84.9c0-0.3-4.7-0.4-23.1-0.3l-23.1,0.1l-14.2,36c-7.8,19.8-14.3,35.9-14.4,35.8
		c-0.1-0.1-6.5-16.3-14.2-36l-14-35.8l-23.8-0.1C106,406.5,95.4,406.6,95.4,406.7z M310.7,444.1c8.8,2,15.8,8.9,18.2,17.9
		c0.9,3.6,0.9,9.5,0,13c-2.4,9-9.1,15.7-18,18c-3.6,0.9-9.5,0.9-13,0c-7.7-2-14.3-7.7-17.1-14.7c-3.1-7.8-2.1-17.5,2.4-24
		C289.3,445.4,299.7,441.5,310.7,444.1z M584,444.2c9.6,1.7,16.9,8.8,19.3,18.5c0.8,3.2,0.7,9.1-0.2,12.4
		c-2.3,8.6-8.7,15.2-17.2,17.5c-2.9,0.8-10.2,0.8-13,0c-7-1.9-12.6-6.6-15.6-13.1c-1.8-3.9-2.3-6.3-2.3-11c0-4.2,0.4-6.3,1.8-9.9
		c1.7-4.3,5-8.3,8.9-10.9C570.7,444.4,577.7,443,584,444.2z M723.7,444.2c8.2,1.5,14.9,6.9,18,14.5c1.4,3.6,1.8,5.7,1.8,9.9
		c0,4.6-0.5,7.1-2.3,11c-3,6.5-8.6,11.2-15.6,13.1c-2.9,0.8-10.1,0.8-13,0c-8.5-2.3-14.9-8.9-17.2-17.5c-0.9-3.6-0.9-9.5,0-13
		c2.9-11,12.2-18.2,23.6-18.3C720.2,443.7,722.3,443.9,723.7,444.2z M816.7,474.8c-12.7,1.6-22.8,10.7-25.5,23.1
		c-0.8,3.5-0.7,9.5,0.2,13c2.7,10.8,11,18.8,21.8,21c1.4,0.3,4,0.5,6,0.5c8.3,0,14.9-2.7,20.7-8.6c5.9-5.9,8.6-12.4,8.6-20.8
		c0-10.4-4.7-19-13.4-24.3C829.9,475.6,822.6,474,816.7,474.8z M455.1,542c-8.8,2.9-12.7,12.9-8.1,20.8c1.2,2.1,4.1,4.6,6.5,5.7
		c2,1,2.3,1,6,1c3.6,0,3.9,0,6-1c2.8-1.3,5.8-4.3,7-6.9c3.4-7.1,0.3-15.4-7-18.8c-2.2-1-2.8-1.2-5.5-1.3
		C457.6,541.4,456.5,541.5,455.1,542z M418.4,542.6c-11.8,2.4-19.5,9.8-22.4,21.7c-0.4,1.8-0.7,4.2-0.8,7.2l-0.2,4.5h-4.7h-4.7
		l0.1,10.4l0.1,10.4l4.7,0.1l4.7,0.1v24.6v24.6h12.7h12.7v-24.6v-24.6l8.7-0.1l8.7-0.1l0.1-10.4l0.1-10.4h-8.8h-8.8l0.2-2.3
		c0.5-5.1,2.5-8,6.6-9.2c2.7-0.8,6.6-0.7,9.6,0.3c1,0.4,1.9,0.7,2,0.7c0.1,0,0.1-4.8,0.1-10.6v-10.6l-1.8-0.7
		c-3.1-1.2-6.2-1.6-11.2-1.6C422.8,542.1,420.3,542.3,418.4,542.6z M522.6,574.6c-5.4,1.1-9.7,3.8-12.6,7.5l-1.4,1.9v-4v-4h-12.9
		h-12.9v35.2v35.2h12.9h12.9l0-19.2c0-11,0.1-20,0.3-21.1c0.4-2.5,2-5.6,3.4-6.7c3.7-2.8,9.6-2.2,12,1.4c1.9,2.8,1.9,2.4,2,24.9
		l0.1,20.6h12.9h12.9v-23.1c0-24.5-0.1-27.3-1.5-31.9c-1.3-4.4-3-7.4-6.2-10.6c-3-3-5.6-4.6-9.6-5.7
		C531.9,574.2,525.6,574,522.6,574.6z M587.7,574.4c-4.2,0.6-10.4,3-13.6,5.4c-7.5,5.4-12.6,13.9-14.4,23.8
		c-0.7,3.9-0.7,11.8,0,15.5c1.2,6.4,3.7,12,7.2,16.7c4.7,6.1,11.3,10.4,18.7,11.9c4,0.8,10.8,0.7,14.2-0.3c3.9-1.2,7.2-3,10-5.6
		l2.6-2.4v3.5v3.5H625h12.7v-35.2v-35.2H625h-12.7v3.6v3.6l-1.7-1.8c-3.3-3.5-8.1-6-13.5-6.9C594.6,574.2,589.9,574.1,587.7,574.4z
		 M687.5,574.7c-4.5,0.9-9.7,4.2-12.4,7.7l-1.1,1.4v-3.9V576l-13,0.1l-13,0.1l-0.1,35.1l-0.1,35.1h13h13l0-20
		c0-21.1,0-21.5,1.5-24.4c1.4-2.7,4.1-4.3,7.2-4.3c2.8,0,4.3,0.6,5.9,2.2c2.8,2.8,2.7,1.7,2.8,25.5l0.1,20.9h12.9h12.9l-0.1-25.5
		c-0.1-25.2-0.1-25.6-0.8-28.2c-0.4-1.5-1.4-4.2-2.3-6c-1.3-2.7-2-3.7-4.1-5.7c-2.7-2.7-4.9-4.2-7.9-5.2
		C697.7,574.1,692,573.7,687.5,574.7z M755.5,574.6c-11.4,1.8-20.6,7.9-26.2,17.2c-1.7,2.8-3,6-4,9.9c-0.8,3.1-0.9,3.9-0.9,9.3
		c0,6.4,0.3,8.5,1.8,13.1c3.9,12,13.7,20.5,26.7,23.4c2.1,0.5,4,0.6,8.7,0.6c6.7,0,9.4-0.5,14.3-2.5l2.5-1l0.1-11.8l0.1-11.8
		l-2.2,1.3c-3.1,1.8-5.7,2.6-9.6,2.8c-4,0.2-6.2-0.2-9.2-1.7c-2.7-1.4-4.8-3.6-6.2-6.4c-0.9-2-1-2.4-1-5.5c0-2.7,0.1-3.7,0.7-5.2
		c2.1-5.3,7.1-8.4,13.7-8.7c4.7-0.2,6.7,0.3,13.4,3.7c0.1,0.1,0.2-5.2,0.2-11.6v-11.8l-2-0.8C770.5,574.4,762.3,573.5,755.5,574.6z
		 M814,574.6c-19.6,3.5-32.5,20.6-30.6,40.8c0.7,7.1,2.5,12.7,6,17.9c4.9,7.4,12.2,12.1,22.1,14.3c4.2,0.9,15.2,0.8,19.7-0.2
		c7.1-1.5,13.4-4.8,17.9-9.4c2.1-2.1,5.6-6.7,5.3-7c-0.1-0.1-5-2-10.9-4.3l-10.8-4.2l-1.6,1.6c-2,2-3.6,3-6,3.6
		c-7.6,2-15.1-2-16.4-8.6l-0.3-1.4l24.2-0.1l24.2-0.1l0-5.9c0-4.4-0.2-6.6-0.6-8.6c-1.7-7.9-4.8-14-9.9-19
		c-4.8-4.8-10.2-7.6-17.5-9.2C825.6,574.2,817.4,574,814,574.6z M446.6,611.2v35.2h12.9h12.9v-35.2v-35.2h-12.9h-12.9V611.2z
		 M824.3,594.3c1.8,0.5,2.9,1.1,4.5,2.6c1.6,1.4,2.5,3,2.9,5l0.3,1.3h-11.7c-13.2,0-12.2,0.3-11.1-2.7
		C811.2,595.2,817.7,592.6,824.3,594.3z M602.6,597.7c3.5,0.9,7.3,4,8.9,7.3c3.6,7.7,0,16.5-8,19.4c-2.4,0.9-6.8,1-9.3,0.2
		c-4.3-1.3-7.9-5-9.2-9.2c-0.5-1.8-0.6-2.8-0.5-5c0.1-2.4,0.3-3.1,1.3-5.2C588.8,599,595.6,596,602.6,597.7z"/>
</g>
</svg>
