<?xml version="1.0" encoding="iso-8859-1"?>
<!-- Generator: Adobe Illustrator 27.0.0, SVG Export Plug-In . SVG Version: 6.00 Build 0)  -->
<svg version="1.1" id="Layer_1" xmlns="http://www.w3.org/2000/svg" xmlns:xlink="http://www.w3.org/1999/xlink" x="0px" y="0px"
	 viewBox="0 0 500 500" style="enable-background:new 0 0 500 500;" xml:space="preserve">
<g>
	<path style="fill:#999999;" d="M196.5,245.575l-0.747-0.014l-0.014-2.236c0.481-0.081,0.885,0.038,1.204,0.363
		C197.385,244.25,197.22,245.292,196.5,245.575 M198.226,243.162c-1.325-0.562-3.065-0.419-4.501-0.441
		c0,0.164-0.037,0.321,0.044,0.441c0.161,0,0.486,0.103,0.486,0.103v2.296c-0.12,0-0.407,0.014-0.486,0.053
		c0,0.162-0.044,0.322,0.038,0.441c1.407-0.078,2.772,0.403,4.1-0.038c0.559-0.36,0.923-0.964,0.923-1.647
		C198.791,243.927,198.671,243.402,198.226,243.162z"/>
	<path style="fill:#999999;" d="M200.681,225.07l0.442,0.161c0,0-0.176,0.343-0.073,0.52c0.123,0.218,0.337,0.444,0.554,0.324
		c0.322-0.174,0.524-0.56,0.404-0.844h0.319l0.046,0.29c-0.044,0.521-0.202,0.897-0.908,0.858
		C200.819,226.341,200.585,225.657,200.681,225.07 M202.082,227.014c-0.006-0.011,0.551,0.174,0.551,0.174l0.173,0.227l0.267-3.079
		l-0.267-0.215c0,0-0.404,0.567-1.31,0.567c-0.495,0-1.026-0.105-1.46-0.123c0.158,0.522-0.07,1.137,0.255,1.743
		C200.64,226.957,201.361,227.055,202.082,227.014z"/>
	<path style="fill:#999999;" d="M205.622,225.044h0.319c-0.12,0.284,0.082,0.67,0.398,0.848c0.222,0.117,0.433-0.109,0.56-0.327
		c0.103-0.177-0.076-0.52-0.076-0.52l0.446-0.157c0.093,0.584-0.141,1.268-0.788,1.305c-0.703,0.039-0.861-0.336-0.903-0.858
		L205.622,225.044 M206.738,226.633c1.02-0.148,1.09-1.545,1.052-2.511c-0.642,0.32-0.926,0.446-1.565,0.47
		c-0.648,0.025-1.181-0.59-1.181-0.59l-0.229,0.12l0.604,3.173C205.42,227.295,205.762,226.771,206.738,226.633z"/>
	<path style="fill:#999999;" d="M240.007,248.425c-0.041-0.599-0.24-1.163-0.841-1.446c-0.325-0.12-0.809-0.201-1.087,0.043
		c-0.521,0.281-0.483,0.842-0.401,1.283c0.12,0.203,0.282,0.443,0.562,0.364c0.522-0.32-0.404-0.923,0.36-1.125
		c0.361-0.041,0.566,0.402,0.686,0.643c0.037,0.602-0.205,1.125-0.727,1.407c-0.56,0.078-1.122,0.2-1.606-0.12
		c-0.521-0.402-0.923-0.965-0.964-1.647c-0.079-0.925,0.525-1.81,1.365-2.212c1.849-0.883,3.176,0.766,4.498,1.929
		C241.173,247.625,240.449,247.783,240.007,248.425 M232.573,243.606c-0.361-0.564-0.2-1.364,0.044-1.887
		c0.358-0.607,0.961-1.167,1.647-1.288c0.961-0.201,1.805,0.202,2.532,0.763c1.04,1.048,1.685,2.494,2.569,3.696
		c-1.008-0.36-2.45-0.2-3.296,0.684c-0.278,0.48-0.56,0.925-0.642,1.486C234.665,245.897,233.619,244.731,232.573,243.606z
		 M223.698,247.303c-2.412-0.242-4.659,0.12-6.752,0.844c0.202-1.368,0.243-2.892,0.164-4.26c1.163-1.486,3.173-1.323,4.978-1.443
		c3.214-0.123,5.901,0.542,9.039,1.163c0.645,1.849,2.731,3.094,3.454,4.901C230.888,248.827,227.434,247.502,223.698,247.303z
		 M222.654,249.392c-1.77,0.12-3.657,0.039-5.224-0.483c1.403-0.804,3.214-0.882,4.899-0.925l0.402,0.043
		C222.614,248.468,222.731,248.948,222.654,249.392z M210.359,249.392l-13.699-2.452c-1.887-0.36-4.099-0.201-5.904,0.038
		c0.319-1.202,0.44-2.568,0.319-3.816c0.202-0.681,1.005-0.641,1.527-0.963c2.247-0.562,4.617,0,6.83,0.243
		c5.585,1.043,11.049,2.288,16.872,2.649c0.202,1.288-0.12,2.653-0.082,3.897c0.404,0.643,1.125,0.604,1.729,0.763
		C215.423,249.913,212.809,249.713,210.359,249.392z M196.139,248.87c-1.767-0.043-3.698-0.123-5.304-0.684l-0.199-0.241
		c1.527-0.766,3.815-0.643,5.541-0.283L196.139,248.87z M173.038,248.909c1.728-0.684,3.537-1.125,5.181-2.05
		c-1.723-0.883-3.572-1.524-5.181-2.692c5.544,0.443,11.492,0.765,17.314,0.483c0.041,1.285-0.48,2.491-0.358,3.654
		c0.642,0.804,1.603,0.724,2.447,0.967C186.054,249.793,179.268,249.593,173.038,248.909z M184.89,239.589
		c1.849,0,3.375-0.685,5.06-1.044c1.609-0.243,3.214,0.078,4.662-0.441c0.079,0.801,0.521,1.566,0.199,2.41l-2.209,0.241
		c-0.923,0.281-2.01,0.722-2.412,1.607c-0.197-0.281,0.161-0.965-0.44-0.965c-0.162,0-0.361,0.08-0.442,0.281
		c0.038,0.162,0.158,0.363,0.082,0.523c-0.483,0.161-0.685,0.602-0.401,1.005c-0.082,0.08-0.241,0.039-0.322,0.039
		c-0.402-0.28-0.243-0.844-0.683-1.084c-0.161-0.32,0.281-0.522,0-0.764c-0.202-0.16-0.562-0.16-0.724,0
		c-0.24,0.443,0.12,1.085-0.604,1.205l0.162,0.725c-0.521,0.24-0.563-0.403-0.724-0.644c-0.079-0.402-0.562-0.641-0.199-1.044
		c0.12-0.2-0.161-0.362-0.322-0.362c-0.243-0.04-0.401,0.12-0.483,0.281c0.284,0.483-0.282,0.685-0.601,0.804l0.079,0.965
		c-0.401,0-0.521-0.441-0.642-0.725c0.079-0.401-0.442-0.32-0.483-0.683C183.724,241.035,183.806,239.829,184.89,239.589z
		 M192.843,229.868c0.404-2.731,3.214-4.099,4.861-5.986c0.041,1.163-0.882,1.968-1.647,2.731L192.843,229.868z M196.5,222.195
		c-0.041,1.604-1.767,2.448-2.892,3.333C194.088,224.163,195.134,222.795,196.5,222.195z M197.341,220.827
		c1.245-0.159,2.415,0.201,3.3,1.047c0.094-0.157,0.319-0.243,0.398-0.406c0-0.039,0-0.12-0.038-0.158
		c0.768-0.237,1.594-0.463,2.444-0.52c1.011-0.072,2.054,0.063,3.059,0.237c0.041,0.162,0.199,0.402,0.401,0.402
		c0.522-0.281,0.8-0.882,1.369-1.126c0.481-0.158,1.122-0.278,1.606-0.239c-0.164,0.722-0.202,1.484-0.844,2.05
		c-0.243,0.32-0.762,0.119-0.844,0.522c0.923,1.283,0.803,3.293,0.481,4.821c-0.202,0.361-0.361,0.637-0.967,0.843
		c-0.217,0.076-0.589,0.082-0.589,0.082l-0.05,0.241l0.809,0.512l-0.073,0.465l-0.771-0.362l-0.111,0.407l0.791,0.513l-0.083,0.39
		l-0.805-0.321l-0.158,0.483l0.812,0.49l-0.162,0.719l-2.456-0.951c0,0,0-1.089-0.003-1.1c0.401-0.202,0.803-0.565,0.923-1.005
		c0.041-0.24,0.12-0.643-0.12-0.844c-0.498,0.33-0.879,0.484-1.497,0.536c-0.765,0.071-1.228-0.161-1.515-0.335
		c-0.24,0.403-0.108,0.792,0.158,1.164c0.232,0.322,0.871,0.516,0.871,0.516v1.162l-2.315,1.095l-0.211-0.633l0.742-0.462
		l-0.164-0.558l-0.768,0.447l-0.158-0.375l0.836-0.534l-0.188-0.511l-0.853,0.458l-0.097-0.295l0.835-0.627
		c0,0-0.047-0.3-0.053-0.324c-0.686-0.082-1.527-0.24-1.767-1.044c-0.401-1.245-0.445-2.773-0.363-4.099
		c0.038-0.201,0.521-0.321,0.199-0.522c-1.164,0.043-1.647-1.285-2.01-2.087V220.827z M199.031,217.695
		c-0.36-0.129-0.392-0.478-0.392-0.478c0.481-0.441,1.236-0.807,1.837-1.088c0.041,0.009-0.041,0.807,0.003,0.81
		c-0.067,0.183-0.226,0.054-0.483,0.384c-0.217,0.276,0.053,0.825,0.401,0.802c0.308-0.022,0.431-0.037,0.44-0.028
		c0.164,0.484-0.191,0.704-0.56,0.882c-0.525,0.255-0.762-0.441-0.762-0.441l0.402-0.201l-0.522-1.002
		C199.395,217.334,199.219,217.764,199.031,217.695z M207.268,219.542c-0.044,0.12-0.162,0.202-0.241,0.283
		c-2.25-0.441-4.782-0.243-6.871,0.398c-0.12-0.078-0.24-0.12-0.322-0.24C201.885,219.101,204.898,218.978,207.268,219.542z
		 M205.779,215.726c-0.012-0.006-0.431,0.727-0.442,0.763c-0.243,0.041-0.644-0.091-0.682,0.311
		c-0.202,0.563,0.202,0.975,0.645,0.815c0,0.239-0.176,0.576-0.484,0.682c-0.357,0.123-0.771-0.063-0.894-0.386l0.009-0.255
		l0.41,0.014l-0.008-1.254l-0.44-0.006l0.039-0.483c0,0-0.413-0.11-0.633-0.086c-0.223,0.025-0.521,0.091-0.521,0.091v0.556
		l-0.369,0.002l-0.012,1.215l0.492-0.009c0,0,0.017,0.627-0.36,0.722c-0.621,0.157-0.815,0.07-0.935-0.329l-0.032-0.272
		c0,0,0.571,0.014,0.557-0.46c-0.009-0.293-0.038-0.621-0.381-0.659c-0.234-0.028-0.281,0.104-0.527,0.104
		c-0.032-0.035-0.24-0.833-0.249-0.873C202.445,215.444,204.212,215.204,205.779,215.726z M206.143,217.655
		c0.401,0.24,0.814-0.072,0.843-0.444c0.024-0.341-0.384-0.547-0.665-0.585l-0.059-0.781l1.726,0.761l-0.12,0.526l-0.524-0.243
		l-0.317,0.963l0.361,0.162c0,0-0.197,0.662-1.005,0.483C206.049,218.423,206.023,217.976,206.143,217.655z M215.022,227.898
		c-1.691-1.686-4.823-2.33-5.022-5.022C211.485,224.844,214.456,225.247,215.022,227.898z M214.377,224.404
		c-1.166-0.804-3.332-1.284-3.417-3.175C212.569,221.592,213.536,223.077,214.377,224.404z M211.927,237.18
		c-1.005-0.283-2.408-0.283-3.097-1.45c-0.519-0.839-0.8-2.085-0.317-3.09C208.551,234.647,210.641,235.892,211.927,237.18z
		 M213.375,237.056c-1.448-2.166-4.741-3.574-4.34-6.627C209.759,232.961,213.852,234.006,213.375,237.056z M210.16,225.568
		c1.523,1.968,4.741,3.012,4.58,5.866C213.375,229.384,210.16,228.34,210.16,225.568z M214.215,234.326
		c-1.406-2.25-5.022-3.333-4.418-6.347C210.84,230.309,214.297,231.434,214.215,234.326z M202.887,235.169l0.484-0.038
		c-0.484,0.441-0.724,1.042-0.806,1.727l-1.005,0.039C201.841,236.334,202.082,235.409,202.887,235.169z M205.539,236.576
		l-1.691,0.158c0.044-0.599,0.205-1.325,0.727-1.686C205.258,235.251,205.42,235.973,205.539,236.576z M207.948,236.496l-1.164-0.12
		c-0.161-0.484-0.401-0.967-0.843-1.369C206.905,234.848,207.509,235.812,207.948,236.496z M206.301,233.843l-3.616,0.201
		c-0.278-0.078-0.401-0.441-0.199-0.679c0.6-0.484,1.245-1.007,2.01-1.045c0.803,0.158,1.603,0.36,2.127,0.962
		C206.702,233.564,206.544,233.804,206.301,233.843z M198.109,239.549l-0.041,1.285l-0.727-0.08
		C197.385,240.313,197.704,239.872,198.109,239.549z M197.422,238.665c0.484-1.768,3.218-3.051,2.974-5.344
		c0.483,0.685,0.563,1.687,0.319,2.451C200.236,237.218,198.466,237.702,197.422,238.665z M196.5,240.671l-0.762-0.077
		c0.079-0.163,0.237-0.324,0.401-0.484C196.38,240.15,196.38,240.474,196.5,240.671z M196.057,238.103
		c-0.68-2.168,1.729-3.577,2.652-5.344c0.404-0.603,0.603-1.245,0.805-1.929C200.476,233.885,197.182,235.652,196.057,238.103z
		 M193.807,233.038c-0.44-2.932,2.816-4.578,4.017-6.666C197.704,229.104,194.894,230.753,193.807,233.038z M198.428,228.781
		c0.806,3.095-3.094,4.66-3.578,7.432C194.328,233.081,197.341,231.314,198.428,228.781z M216.747,234.809
		c0.319-0.443,0-1.006-0.079-1.489l-0.604-2.007c4.096,0.762,7.712,3.092,11.972,3.693c0.197,0.685,0.921,1.128,1.486,1.369
		l1.445,0.12c0.082,1.326,0.565,2.452,1.365,3.453c-0.604,0.645-1.005,1.447-1.365,2.091c-3.496-0.522-7.03-1.369-10.807-0.966
		c0.645-0.964,0.281-2.17,0-3.214c-0.601-0.441-0.806-1.446-1.688-1.526c-0.601,0.684,0.645,1.205,0.645,1.968
		c0.319,1.047,0.12,2.212-0.525,3.016c-0.882,0.441-2.447,0.925-2.408,2.289c-1.969,0-3.736-0.362-5.586-0.603
		c-0.841-0.723-1.406-1.929-2.651-1.728c-0.243-0.12-0.522-0.201-0.8-0.081c0.158,0.723-1.087,0.525-0.566,1.286
		c-0.682,0.283-0.439-0.843-0.923-1.085c0.082-0.361,0.522-0.922-0.082-1.083c-0.278-0.043-0.483,0.239-0.521,0.441
		c0.401,0.765-1.002,0.642-0.44,1.406c-0.24,0.12-0.563-0.2-0.603-0.441c0.079-0.443-0.604-0.684-0.24-1.167
		c0.158-0.078,0.158-0.359,0-0.479c-0.12-0.283-0.446-0.081-0.604,0c-0.322,0.359,0.281,1.245-0.604,1.163l-0.038,0.523
		c-0.805,0.201-0.401-0.844-1.005-1.044c0.038-0.401,0.683-0.885,0.079-1.165c-0.24,0-0.525,0.16-0.601,0.442
		c0,0.36-0.164,0.762-0.604,0.762l-0.038,0.642c-0.806,0.122-0.363-0.922-0.964-1.165c0.076-0.842,0.522-1.686,1.245-2.05
		c3.291,0.322,6.786-1.524,9.719,0.484c1.324-0.723,3.455,0.844,4.137-1.126l0.284-1.205c0.437,0.324,0.841,0.804,1.283,1.044
		c0.36-0.322,0-0.681-0.038-1.002c-0.363-0.967-0.645-1.93-0.765-3.012C215.866,233.645,216.146,234.446,216.747,234.809z
		 M229.283,232.598c0.559-0.722,1.283-1.002,2.089-1.045c0.762,0.043,1.441,0.28,1.928,0.965c1.163,1.649-0.645,4.48,1.726,6.631
		c-0.562-0.162-1.002,0.158-1.527,0.12c-1.447-1.288-1.286-3.376-1.084-5.182c-0.12-0.363-0.281-0.804-0.724-1.005
		c-0.521-0.12-1.126,0-1.403,0.522c-0.041,0.32,0.038,0.844,0.436,0.924c0.164,0,0.284-0.161,0.363-0.281
		c-0.079-0.159-0.158-0.28-0.12-0.483c0.12-0.159,0.404-0.159,0.604-0.078c0.322,0.281,0.202,0.641,0.082,1.005
		c-0.401,0.441-0.967,0.561-1.526,0.441c-0.364-0.201-0.844-0.523-0.964-0.925C228.957,233.685,229.042,233.038,229.283,232.598z
		 M229.402,227.737c-3.132,0.401-7.595,3.376-9.965-0.322c-0.642-1.203-0.521-2.932,0.363-3.975
		c2.854-3.016,6.628,0.321,9.922-0.604c0.483-0.401,1.002-0.884,0.964-1.565l-0.038-0.804c0.401,0.561,0.439,1.528,0.12,2.17
		c-0.164,0.521-0.724,0.963-1.245,1.163c-2.854,0.446-5.465-1.726-8.237-0.441c-0.762,0.561-1.125,1.365-1.163,2.251
		c0,0.643,0.161,1.204,0.601,1.645c2.37,2.011,5.142-0.24,7.633-0.481c1.366-0.2,2.772,0.16,3.537,1.206
		c-0.12,0.199-0.361,0.4-0.522,0.561C230.768,228.139,230.164,227.698,229.402,227.737z M227.07,226.534
		c-1.565,0.24-3.051,1.165-4.659,0.681c-0.443-0.201-0.402-0.762-0.241-1.126c0.443-0.599,1.205-0.24,1.849-0.278L227.07,226.534z
		 M230.847,224.805c-0.721,0.603-1.726,0.643-2.652,0.523c-2.371,0.039-4.741-1.97-6.909-0.322l-0.241,0.361
		c-0.12-0.361,0.083-1.122,0.68-1.328c3.138-1.486,8.759,3.496,9.726-2.087C231.811,222.918,231.691,224.122,230.847,224.805z
		 M234.489,227.101c0.401-0.241,1.005-0.321,1.444-0.12c0.566,0.283,1.126,0.763,1.164,1.446c-0.038,2.452-1.081,4.27-0.923,7.031
		c0.102,1.716,0.282,2.973,0.765,4.338c-2.289-1.641-2.426-3.356-2.371-6.388c0.017-0.957-0.774-1.677-1.588-2.208
		c-0.63-0.412-1.266-0.243-1.867-0.283C232.356,229.754,233.525,228.426,234.489,227.101z M237.663,222.297
		c0.278,1.158,1.617,1.798,2.663,1.918c-0.923,0.844-1.205,2.413-2.614,2.653c-0.923,0.081-1.726-0.603-2.007-1.407
		C235.222,223.773,236.942,223.542,237.663,222.297z M237.293,235.025c0-2.711,0.689-5.437,2.039-7.699
		c0.648-1.088,1.392-1.83,1.392-1.83l-0.012-1.936c-0.762-0.043-1.529-0.342-2.072-0.963c-0.522-0.603-0.701-1.02-0.701-1.924
		c0-0.94,0.674-1.923,1.673-2.226c0.952-0.288,1.966-0.094,2.593,0.602c0.507,0.568,0.604,1.069,0.604,1.741
		c0,0.834-0.557,1.482-1.231,1.482c-0.419,0-0.902-0.094-1.181-0.604c-0.205-0.378-0.22-1.083,0.208-1.083
		c0.58,0,0.071,0.412,0.419,0.573c0.191,0.091,0.454,0.063,0.554-0.137c0.117-0.232,0.07-0.534-0.129-0.756
		c-0.284-0.324-0.671-0.378-1.081-0.24c-0.595,0.194-0.826,0.879-0.668,1.483c0.234,0.882,0.75,1.131,1.439,1.242l2.435,0.006
		l1.368-0.925l1.693-0.834c0,0-0.161-0.826-0.442-1.065l-2.087,1.112c-0.07-1.137-0.56-2.46-1.45-3.192
		c-0.891-0.726-2.417-1.083-3.789-0.495c-1.6,0.69-2.341,2.272-2.236,3.871c-1.084,1.369-3.334,2.533-2.371,4.582
		c-0.964,0.039-1.447,1.164-2.089,1.687l-1.286-1.044l1.043-0.724c0.923-1.086,1.406-2.652,0.846-4.056
		c-0.445-1.449-1.728-2.933-3.299-3.135c-0.718-0.158-1.404,0-1.925,0.441c-0.363,0.363-0.445,0.924-0.401,1.368
		c0.161,0.481,0.56,0.882,1.081,0.844c0.647-0.2-0.238-0.523,0-0.924c0.082-0.321,0.483-0.363,0.809-0.321
		c0.48,0.2,0.762,0.722,0.641,1.203c-0.161,0.401-0.603,0.684-1.005,0.765c-2.854-0.12-5.904-2.168-8.556-0.281
		c-1.486,0.723-2.251,2.25-2.412,3.777c-0.041,1.606,0.525,2.972,1.688,3.976c2.772,2.289,6.628,0.522,9.559-0.28
		c0.521-0.123,1.207-0.123,1.45,0.4c-1.245,1.167-2.611,2.412-2.695,4.098c-4.094-0.843-7.551-2.772-11.647-3.654
		c-0.484,0.04-0.603-0.564-0.727-0.844l1.529,0.523l0.079-0.123c-0.642-1.204-1.163-2.49-1.685-3.693
		c0.521,0.039,0.923,0.522,1.445,0.441v-0.243c-1.846-2.007-2.57-5.423-5.626-5.944c-0.076-0.604,0.284-1.126,0.243-1.687h-0.364
		l-2.971,0.842l-0.12-0.12c0.199-0.845,0.765-1.527,1.205-2.251c-0.243-0.362,0.364-0.564,0.162-1.005
		c-0.12-0.522-0.765-0.482-1.123-0.401c0.079-1.366-1.328,0.12-1.53-1.002c-0.281-0.201-0.682-0.081-0.923,0.12l-0.36-0.484
		c-0.325-0.081-0.724,0-0.923,0.12c-0.123-0.724-1.005-1.165-0.686-1.969c0.322-0.038,0.562,0.043,0.885,0.082
		c0.041-0.321,0.041-0.887,0-1.245l-1.043,0.039v-1.123c-0.446-0.041-0.809,0.117-1.286,0.079c0,0.362,0.2,0.805,0.2,1.206h-1.084
		c-0.041,0.402,0.079,0.801,0.12,1.206c0.36,0.04,0.683-0.324,1.046-0.081c0.24,0.844-0.401,1.326-0.521,2.007l-0.082-0.12
		c-0.322-0.038-0.604-0.12-0.847,0.12c-0.076,1.087-0.882-0.321-1.283,0.484c0.082,1.083-0.964-0.163-1.246,0.642
		c0.202,0.964-0.761,0.24-1.043,0.804c-0.36,0.441,0.319,0.843,0.12,1.245c0.721,0.522,1.286,1.365,1.527,2.17
		c-1.084-0.243-2.408-0.12-3.414-0.484c0.041,0.642,0.521,1.163,0.481,1.767c-1.89,0.483-3.092,2.371-3.534,4.137
		c-0.281,0.967-1.166,1.729-1.125,2.774c0.398,0.041,0.724-0.523,1.084-0.364c-0.322,1.449-1.207,2.652-1.327,4.18
		c0.402,0.281,0.926-0.604,1.448-0.604c-0.202,1.569,0,3.094-0.481,4.54c0.36,0.684,0.882-0.561,1.365-0.481
		c-0.041,0.519,0.158,1.165,0,1.647c-3.414,0.16-6.47,1.284-9.761,1.765c-1.248,0.483-1.289,1.971-1.728,3.015
		c-0.243,0.925,1.125,0.843,0.882,1.725c-5.341,0.043-10.446-0.722-15.545-1.203c2.289,1.767,4.741,3.215,7.232,4.54v0.12
		c-2.693,1.206-5.547,1.887-8.401,2.652c7.112,1.002,14.381,1.686,21.938,1.443c2.772-0.12,5.582-0.198,8.193-0.802
		c0.604-0.401,0.164-1.244,0.442-1.727c8.398,1.086,16.752,4.096,25.671,2.25c1.204,0,0.521-1.408,0.803-1.929
		c4.096,0.08,7.876,1.81,12.051,1.044c0.683,0.965,1.688,1.446,2.813,1.206c1.929-0.283,2.971-3.175,5.263-2.088
		c1.717,1.155,4.908,2.518,7.838,2.64l-1.163-1.23C241.674,248.68,237.293,241.632,237.293,235.025z"/>
	<path style="fill:#999999;" d="M212.654,246.013l-0.003-0.439l-2.192-0.362v0.521l0.211,0.034l0.012,1.936
		c-0.161,0.324-0.542,0.324-0.923,0.324c-0.826,0-0.524-2.974-0.524-2.974l-1.966-0.281l-0.003,0.475c0,0,0.246,0.071,0.363,0.129
		c0.077,1.005-0.24,2.169,0.683,2.811c0.641,0.401,1.629,0.608,2.464,0.192c0.035,0,0.272,0.287,0.272,0.287l1.521,0.205
		l0.012-0.492l-0.29-0.074l0.015-2.328L212.654,246.013"/>
	<path style="fill:#999999;" d="M205.589,247.003c-0.352,0.101-1.178-0.018-1.178-0.018l0.003-1.009c0,0,0.358,0.055,0.472,0.183
		c0.176,0.199,0.311,0.46,0.653,0.34c-0.05,0,0.015-1.131-0.014-1.15c-0.12-0.078-0.431-0.057-0.469,0.145
		c-0.199,0.119-0.68,0-0.68,0v-0.873c0,0,1.169-0.025,1.53,0.484c0.161,0.225,0.243,0.661,0.243,0.661l0.557,0.036l-0.161-1.233
		l-4.046-0.75v0.452l0.43,0.138l-0.015,2.332l-0.451-0.07v0.486l3.92,0.744l0.44-1.202l-0.522-0.201
		C206.125,246.767,205.874,246.922,205.589,247.003"/>
	<path style="fill:#999999;" d="M225.464,243.265l-0.014,1.391l0.26-0.02c0,0,0.241-0.408,0.486-0.538c0.15-0.078,0.68,0,0.68,0
		v2.365l-0.486-0.006v0.401l2.288,0.403l0.009-0.318l-0.41-0.243l-0.009-2.371c0,0,0.439,0.066,0.559,0.215
		c0.194,0.246,0.484,0.767,0.484,0.767l0.381,0.006l-0.009-1.357L225.464,243.265"/>
	<path style="fill:#999999;" d="M223.976,245.856c-0.542,0.327-1.322,0.041-1.322,0.041l0.015-0.79c0,0,0.73-0.137,0.73,0.211
		l0.34,0.017l0.009-1.03l-0.355-0.002c0,0-0.17,0.457-0.794,0.354v-0.939c0.36-0.163,0.75-0.206,1.139,0.009
		c0.311,0.173,0.566,0.72,0.566,0.72l0.395,0.003l-0.24-1.245l-3.897-0.009v0.531l0.445,0.08v2.248l-0.404,0.162l0.015,0.375
		l3.883,0.028l0.319-1.006l-0.527-0.073C224.292,245.541,224.128,245.767,223.976,245.856"/>
	<path style="fill:#999999;" d="M199.368,243.646l0.466,0.241l-0.014,2.297c-0.12,0.082-0.469-0.032-0.469-0.032l-0.053,0.417
		c0,0,2.438,0.485,2.438,0.453v-0.453l-0.375-0.111v-2.392l0.442-0.019v-0.359l-2.435-0.46V243.646"/>
	<path style="fill:#999999;" d="M230.929,239.068l-0.281-0.565l-6.028-1.084l0.243,0.361
		C226.83,238.301,228.881,238.827,230.929,239.068"/>
	<path style="fill:#999999;" d="M231.008,240.313l0.363-0.484c-2.734-0.441-5.465-0.925-8.117-1.528l0.243,0.322
		C225.945,239.349,228.436,239.991,231.008,240.313"/>
	<path style="fill:#999999;" d="M230.484,237.779c-0.038-0.197,0.044-0.522-0.196-0.599c-1.489-0.205-3.097-0.363-4.463-0.564
		l0.202,0.242C227.472,237.258,229.001,237.621,230.484,237.779"/>
	<path style="fill:#999999;" d="M257.23,221.394c-2.874,0.764-6.581,0.785-9.435,0.02l0.006-0.857
		c2.614-1.09,6.787-1.066,9.429-0.139V221.394 M246.936,219.654l-0.261,0.091c0.724,0.642,0,1.685,0.844,2.25
		c2.974,0.923,6.789,0.762,9.763-0.042c1.084-0.441,0.048-1.75,0.853-2.392C254.634,218.285,250.35,218.327,246.936,219.654z"/>
	<path style="fill:#999999;" d="M248.677,213.788c-0.534,0.303-0.504,0.534-0.534,0.744c-0.041,0.274,0.348,0.741,0.348,0.741
		s-0.557-0.143-0.732,0.012c-0.407,0.358-0.276,0.652-0.241,1.084c0.017,0.249,0.199,0.362,0.364,0.522
		c0.236-0.229,0.351-0.298,0.887-0.321c0.159,0.525-0.067,1.164-0.721,1.369c-0.741,0.233-1.04-0.139-1.292-0.646
		c0.199-0.158,0.272-0.189,0.712-0.258l-0.674-1.427l-0.762,0.639l-0.255-0.417l-0.094-0.462
		C246.447,214.802,247.793,214.028,248.677,213.788 M256.187,213.788c-0.881,0.025-0.975,0.696-0.834,1.254
		c-0.2-0.123-0.628-0.416-0.962-0.158c-0.457,0.347-0.334,1.014-0.176,1.455c0.255-0.255,0.63-0.238,0.952-0.114
		c-0.07,0.532-0.299,1.065-1.158,1.09c-0.995,0.027-0.99-0.867-0.951-1.068c0.239-0.039,0.392,0.023,0.697,0.117
		c-0.164-0.534-0.141-1.207,0.023-1.717h-0.697l0.187-0.902h-1.854l0.162,0.926c-0.293,0.007-0.499-0.009-0.722,0
		c0.283,0.555,0.404,1.234,0.162,1.66c0.281-0.037,0.488,0.009,0.697-0.084c0.083,0.321-0.09,1.088-0.832,1.161
		c-0.697,0.063-1.093-0.327-1.155-0.997c0.297-0.141,0.457-0.141,0.755-0.023c0.085-0.072,0.271-0.295,0.235-0.51
		c-0.064-0.409-0.047-0.807-0.466-0.956c-0.322-0.113-0.739,0.165-0.739,0.165s0.062-0.567-0.049-0.813
		c-0.106-0.237-0.417-0.462-0.742-0.486C250.854,213.071,253.94,212.861,256.187,213.788z M258.929,215.204l-0.236,0.811
		c-0.299-0.232-0.407-0.327-0.611-0.528l-0.723,1.364c0.22,0.042,0.548,0.057,0.706,0.3c-0.322,0.555-0.835,0.879-1.389,0.648
		c-0.694-0.287-0.604-0.812-0.49-1.392c0.417,0,0.583,0.094,0.722,0.303c0.211-0.21,0.671-0.627,0.462-1.183
		c-0.108-0.287-0.664-0.36-0.905-0.278c0.305-0.486,0.372-1.065-0.204-1.414C257.142,214.118,258.127,214.64,258.929,215.204z
		 M244.388,215.551l-0.164,0.174c1.087,0.964,1.69,2.17,2.212,3.376c3.616-1.326,8.477-1.446,12.011-0.08
		c0.322-0.724,0.521-1.447,1.004-2.088c0.278-0.483,1.084-1.326,1.084-1.326l-0.218-0.171c0,0,0.315-0.274,0.34-0.515
		c0.048-0.485,0.161-0.962-0.163-1.245c-0.4-0.239-0.921-0.201-1.286-0.08c0-0.321-0.078-0.642-0.319-0.882
		c-0.404-0.441-1.046-0.081-1.409,0.04c0-0.361-0.159-0.604-0.44-0.844c-0.402-0.201-0.923-0.038-1.245,0.24
		c-0.159-0.24-0.241-0.561-0.522-0.761c-0.402-0.321-1.005-0.043-1.284,0.161l-0.251-0.782l-0.448-1.056l-0.162-1.044l1.421,0.348
		v-1.966l-1.421,0.366l0.278-2.013l-2.156-0.002l0.278,2.016l-1.53-0.366v1.966l1.53-0.348l-0.173,1.159l-0.378,1.008l-0.202,0.795
		c-0.281-0.202-0.565-0.36-0.967-0.321c-0.481,0-0.642,0.522-0.803,0.842c-0.281-0.24-0.642-0.401-1.046-0.32
		c-0.481,0.123-0.642,0.644-0.8,1.005l-0.281-0.201c-0.442-0.082-1.005-0.082-1.204,0.401c-0.243,0.162,0.158,0.885-0.325,0.684
		c-0.439-0.243-1.005-0.043-1.245,0.36C243.719,214.592,243.995,215.318,244.388,215.551z"/>
	<path style="fill:#999999;" d="M249.046,221.429l1.325,0.196l0.243-0.157c1.286-0.158,2.555-0.189,3.882-0.029l0.161,0.21
		l1.207-0.234C253.855,220.773,251.086,220.767,249.046,221.429"/>
	<path style="fill:#999999;" d="M212.085,241.917c1.41,0.123,2.937-0.198,4.381-0.279c1.046-0.483,1.002-2.01,0.762-2.973
		c-0.117,0-0.237,0.081-0.319,0.119c-0.24,0.765,0.12,1.849-0.686,2.29l-4.055,0.483L212.085,241.917"/>
	<path style="fill:#999999;" d="M230.484,241.476c0.164-0.158,0.12-0.402,0.202-0.561c-2.529-0.402-5.061-0.765-7.472-1.406
		c0,0.12,0.082,0.243,0.202,0.32C225.667,240.594,228.075,241.074,230.484,241.476"/>
	<path style="fill:#999999;" d="M283.944,246.183c0,0,0.963,0.031,1.216,0v-0.381h-0.313v-1.599l2.041,2.254l0.566,0.006v-2.955
		h0.279v-0.454l-1.112-0.032v0.418h0.308l0.004,0.902l-1.452-1.377l-1.966-0.042l0.048,0.448h0.696l0.02,2.364l-0.299,0.034
		L283.944,246.183"/>
	<path style="fill:#999999;" d="M281.386,246.097c-0.469,0.087-0.746-0.398-0.814-1.165c-0.073-0.809-0.432-1.622,0.45-1.688
		c0.66-0.048,0.646,0.705,0.734,1.307C281.858,245.281,281.895,245.999,281.386,246.097 M281.266,242.884
		c-0.644,0.08-1.288,0.157-1.728,0.681c-0.442,0.401-0.603,1.005-0.442,1.607c0.12,0.523,0.52,0.882,0.964,1.165
		c0.723,0.243,1.646,0.2,2.288-0.12c0.884-0.441,1.126-1.486,0.805-2.331C282.752,243.162,282.028,242.841,281.266,242.884z"/>
	<path style="fill:#999999;" d="M291.147,240.997c-0.199,0-0.401,0-0.442,0.197c0.157,0.645-0.159,1.647,0.442,2.131
		c1.647,0.281,3.255,0.684,4.699,1.485c0.12,0.08,0.526,0.204,0.485-0.12c-1.286-1.002-2.855-1.567-4.46-1.85
		C291.027,242.6,291.669,241.476,291.147,240.997"/>
	<path style="fill:#999999;" d="M320.592,248.425c0.605-0.2,1.608-0.32,2.131-1.002c-0.037-1.206-0.483-2.371-0.441-3.616
		c3.374-0.08,6.75-0.401,10.081-0.683c-1.646,1.206-3.615,1.891-5.462,2.732c1.487,0.965,3.496,1.406,5.263,2.089
		C328.428,248.387,324.489,248.708,320.592,248.425 M316.656,248.146c-0.04-0.483-0.401-1.167-0.079-1.446
		c1.768-0.163,3.696-0.201,5.26,0.36c-0.12,0.522-0.803,0.362-1.163,0.602C319.388,247.864,318.023,248.066,316.656,248.146z
		 M304.766,248.507c0-1.328,1.847-0.681,2.251-1.887c0.157-0.644,0.075-1.407-0.322-1.929c-1.207-1.285-2.975-0.16-4.419-0.12
		l-0.725-0.484c6.186-0.723,11.689-3.372,18.279-2.892c0.604,0.161,1.284,0.324,1.647,0.965c0.12,1.326,0.041,2.772,0.401,4.057
		C315.814,245.092,310.348,247.382,304.766,248.507z M304.003,244.851c0.359-0.201,0.843-0.041,1.165,0.163
		c0.564,0.481,0.844,1.845-0.041,2.208C305.126,247.222,304.045,244.863,304.003,244.851z M301.833,242.641h0.241v0.042h-0.241
		V242.641z M302.918,249.349c-1.044,0.564-2.17-0.038-3.254-0.078c-1.447-0.201-3.015-0.444-4.338,0.201
		c-1.043-0.402-2.048-0.965-3.013-1.647c0.481-0.925,1.644-0.967,2.65-1.048c1.41,0.444,2.572,1.609,4.338,1.167
		c0.402,0.038,0.803-0.082,0.964-0.483c-0.479-0.762-1.444-0.723-2.17-0.962c-2.769-0.603-5.02-2.413-8.074-2.29
		c-0.925-1.047-0.24-2.652-0.359-3.979c0.199-0.281,0.842-0.602,0.52-1.005c-0.12-0.24-0.446-0.157-0.603-0.078l-1.324,0.844
		c0.041,0.402,0.12,0.843,0.079,1.203c-0.886-0.159-1.928-0.481-2.975-0.481c-0.278-0.842,0.927-0.162,0.848-0.924l0.24-3.055
		c-0.041-0.599-1.006-0.441-0.52-1.121c0.281,0.038,0.678,0.278,0.921,0l1.726-2.816c0.082-0.321-0.157-0.602-0.36-0.723
		l0.401-0.441c0.441,0.762,1.286,0.038,1.93,0.038c0.642-0.441,2.21,0.083,2.047-1.202v-0.162l0.726-0.12
		c-0.041,0.565-0.085,1.364-0.524,1.687c-1.042,0.375-2.655,0.09-3.641,0.581l-0.857,1.51c2.208-0.564,4.778-0.525,6.95-1.245
		c2.244,0.882,4.577,1.605,6.708,2.893c-0.804,1.083-0.362,2.409-0.201,3.692c-0.082,1.448-0.887,2.611-1.93,3.616
		c-0.923-0.882,0.643-1.526,0.723-2.409c0.202-0.522,0.402-1.407-0.12-1.848c-0.802,0.039-0.203,1.044-0.566,1.445
		c-0.277,0.685-0.8,1.207-0.96,1.889c-0.481-0.12-0.965-0.644-1.245-1.044c-0.24-0.523,0.683-1.125-0.041-1.486
		c-0.766,0.604-1.446,1.486-2.367,1.807c-0.121,0.12-0.202,0.281-0.121,0.401c0.56,0.643,1.246-0.281,1.805,0.442
		c2.089,1.608,4.056,3.537,6.389,4.581C304.042,247.582,303.281,248.548,302.918,249.349z M289.823,245.897
		c0-0.402,0.442-0.484,0.723-0.562c1.326-0.204,2.249,0.521,3.333,0.882c-0.804,0.163-1.566,0.483-2.249,1.045
		C290.907,247.102,290.222,246.581,289.823,245.897z M288.776,249.392c0.281-0.201,0.765-0.364,0.927-0.764l-0.041-0.965
		c0.401,0.364,0.842,0.641,1.444,0.641c0,0.443,0.524,0.804,0.807,0.967L288.776,249.392z M283.878,249.028l-0.161-1.283
		c1.764-0.12,3.533,0.08,5.059,0.762l-0.041,0.161C287.25,249.151,285.524,249.151,283.878,249.028z M271.142,247.945
		c0.481-1.005,1.408-2.01,2.249-2.931c0.102,0.071,0.327,0.335,0.327,0.335v1.567l-0.302,0.036l-0.025,0.39l1.198-0.009l0.006-0.355
		l-0.317-0.062l-0.004-0.94l1.206,1.286l1.163-1.738l0.172,1.113c0,0-0.211,0.078-0.372,0.101c-0.038,0.201,0.023,0.457,0.023,0.457
		l2.194-0.384l-0.072-0.592c0,0-0.286,0.078-0.377,0.078l-0.317-2.13l0.385-0.101l-0.068-0.58l-1.405,0.241l-0.883,1.806
		l-1.471-1.573l-0.379,0.006l0.243-0.604c4.377-0.478,8.998-2.008,13.535-0.722c0.388,0.167,0.621,0.413,0.753,0.707
		c0.439,0.991-0.229,2.551,0.172,3.63c0.041,0.201,0.12,0.364,0.078,0.604C282.873,245.455,277.205,248.989,271.142,247.945z
		 M270.217,246.859c-0.199-0.681-0.844-1.686-1.689-2.088c-0.76-0.36-1.807-0.24-2.487,0.08c1.322-1.848,2.329-5.383,5.421-4.538
		c0.725,0.239,1.365,1.005,1.447,1.727C273.35,244.209,270.659,245.092,270.217,246.859z M269.05,248.87
		c-0.442,0.522-1.084,0.723-1.768,0.602c-0.52-0.161-0.805-0.602-1.002-1.048c-0.083-0.398,0.039-0.8,0.403-0.963
		c0.239-0.039,0.52,0.04,0.562,0.283c0.078,0.281-0.404,0.602,0.037,0.762c0.283,0.041,0.526-0.283,0.564-0.523
		c0.083-0.522-0.2-1.005-0.683-1.206c-0.401-0.12-0.882-0.039-1.207,0.283c-0.397,0.282-0.36,0.765-0.397,1.164
		c-0.605-0.522-1.328-0.762-2.049-0.762c1.324-1.165,2.652-2.571,4.539-2.127c0.642,0.279,1.365,0.962,1.402,1.686
		C269.496,247.703,269.413,248.348,269.05,248.87z M267.986,228.929c-0.037-0.604,0.138-1.359,0.743-1.834
		c0.533-0.415,1.088-0.641,1.691-0.36l3.935,4.057c-1.166-0.281-2.289,0.078-3.091,1.084c-1.41,1.77,0.281,4.62-1.245,6.387
		l-1.41,1.365C269.695,236.173,269.332,231.989,267.986,228.929z M267.484,226.573c-1.163-0.403-1.535-1.309-2.462-2.468
		c0.923-0.123,1.86-0.788,2.261-1.712c0-0.16,0.124-0.241,0.124-0.399c1.043,1.044,3.209,2.328,1.805,4.014
		C268.729,226.411,268.168,226.813,267.484,226.573z M284.196,226.813c0.766-0.643,1.208-1.485,1.006-2.451
		c0.082-0.802-0.804-1.324-1.245-1.765c-2.813-1.129-5.466,1.002-8.357,0.523c-0.601-0.283-1.084-0.925-1.084-1.609v-0.12
		c0.364,0.603,0.965,1.044,1.687,1.044c3.132-0.201,7.553-2.773,9.843,0.642c0.438,0.762,0.52,1.887,0.24,2.772
		c-0.202,0.844-0.965,1.608-1.687,2.049c-3.775,1.849-7.394-2.531-10.928,0.241l-0.483-0.401
		C276.323,224.322,280.502,228.661,284.196,226.813z M283.756,225.85c0.039,0.363-0.404,0.724-0.723,0.763
		c-1.728,0.242-3.376-0.28-5.022-0.644c1.724-0.36,3.451-1.082,5.262-0.722C283.554,225.328,283.676,225.61,283.756,225.85z
		 M272.707,223.84v-0.12c3.297,2.533,6.909-0.401,10.446-0.078c0.804,0.241,1.485,1.045,1.203,1.968
		c-0.122-0.483-0.639-0.966-1.161-1.086C279.658,224.083,275.28,227.656,272.707,223.84z M275.237,231.755
		c0.404,0.32,0.767,0.804,0.925,1.326c0.079,0.642-0.157,1.165-0.601,1.566c-0.324,0.401-0.883,0.441-1.406,0.321
		c-0.322-0.078-0.603-0.483-0.723-0.804c-0.041-0.321,0.12-0.641,0.401-0.723c0.762-0.2,0.12,1.206,0.923,0.645
		c0.161-0.283,0.079-0.722-0.12-1.005c-0.281-0.283-0.803-0.441-1.204-0.24c-1.286,0.882-0.122,2.448-0.403,3.775
		c-0.082,0.966-0.52,1.767-1.288,2.452c-0.437-0.164-1.043-0.164-1.483,0c1.323-1.447,1.204-3.659,1.125-5.586
		c0.079-0.684,0.52-1.286,1.043-1.727C273.31,231.314,274.355,231.314,275.237,231.755z M284.599,237.137l0.805,0.043l-0.165,2.045
		l-0.8-0.078L284.599,237.137z M285.722,233.966c0.402-0.483,0.564-1.086,0.965-1.569l0.646,0.401
		c-0.283,0.643-0.606,1.207-1.006,1.768C286.125,234.406,285.441,234.326,285.722,233.966z M291.267,229.666
		c0.243,0.082,0.161,0.481,0.243,0.724c-0.603,0.32-1.288,0.363-1.968,0.522c-0.122-0.241-0.161-0.562-0.122-0.805L291.267,229.666z
		 M297.254,230.912c0.322,0.162,0.681,0.081,0.764-0.282c-0.164-1.207,0.923-2.17,1.163-3.335c0.886,0,1.686-0.602,2.09-1.403
		c0.161-0.525,0.322-1.249,0.041-1.77c-0.12-0.12-0.326-0.323-0.446-0.083c-0.118,0.684-0.399,1.57-1.202,1.771
		c-1.245,0.441-2.651,0-3.896-0.201c-1.167,0.283-2.45,0.24-3.295,1.245c-0.32,0.283-0.886,0.159-1.206-0.081
		c-0.199-0.161-0.442-0.483-0.12-0.641c0.402-0.283,1.125,0.038,1.445-0.483c0.083-0.441-0.241-0.804-0.642-0.963
		c-0.803-0.484-2.008,1.364-1.97-0.324l0.161-1.122c0.363,0.239,0.927,0.401,1.326,0.239c0.243-0.08,0.483-0.359,0.363-0.602
		c-0.363-0.681-0.844,0.041-1.326,0c0.08-0.523,0.762-0.561,1.165-0.762c1.564-0.241,3.052-0.766,4.177-2.05
		c1.046-0.321,2.249,0.521,3.215-0.201c0.362-0.843,1.043-1.648,1.925-2.089c0.123,1.005,0.606,2.29-0.238,3.132
		c0.118,0.241,0.443,0.283,0.721,0.162c0.284-0.162,0.284-0.483,0.404-0.766c2.814,1.691,3.816,4.784,3.293,7.955
		c-0.401,1.489-0.805,2.973-1.605,4.301c-0.041,0-0.281-0.441-0.564-0.403c0.118-0.281,0.161-0.843-0.161-1.083
		c-0.606,0-0.802,0.881-1.489,0.599c-0.199,0.203-0.318,0.403-0.318,0.646c0.12,0.158,0.318,0.078,0.439,0.278
		c0.041,0.363-0.278,0.564-0.558,0.644c-0.444,0.041-0.886-0.203-1.006-0.644c-0.045-0.201-0.12-0.561,0.041-0.681
		c0.277,0.082,0.762,0.644,0.843,0c0-0.402,0.762-0.842,0.122-1.125l-0.485-0.12c0.082-0.242,0.402-0.362,0.363-0.683
		c-0.446-0.241-0.843-0.484-1.367-0.523c-0.201,0.162-0.122,0.403-0.122,0.641c-0.281,0.12-0.401-0.32-0.685-0.239
		c-0.197,0.402-0.358,0.885-0.478,1.326l0.721,0.24c-0.281,0.401-0.764,0.684-1.204,0.564c-0.24-0.163-0.602-0.283-0.683-0.604
		C296.893,231.194,297.054,230.951,297.254,230.912z M299.181,216.166c0.605-0.761,1.487-1.403,2.289-1.724
		c0,1.484-1.204,2.568-2.371,3.333C298.702,217.334,299.02,216.65,299.181,216.166z M304.845,215.244
		c0,1.527-1.646,2.371-2.09,3.735c-0.318-0.078-0.36-0.479-0.479-0.722C302.074,216.65,303.72,215.888,304.845,215.244z
		 M307.659,217.172c-0.324,1.806-2.41,1.93-3.297,3.295c-0.359,0-0.32-0.401-0.44-0.603
		C304.242,218.058,306.293,217.775,307.659,217.172z M310.228,220.223c-1.282,1.168-3.174,1.326-4.778,1.689
		c-0.241-0.12-0.122-0.483-0.083-0.684C306.575,220.026,308.502,220.346,310.228,220.223z M311.23,223.318
		c-1.246,0.884-3.253,0.684-4.818,0.522c-0.322-0.12-0.24-0.481,0-0.682C307.899,222.195,309.706,223.077,311.23,223.318z
		 M311.436,226.252c-1.489,0.401-3.698,0.602-4.783-0.604c-0.041-0.281,0.243-0.402,0.439-0.522
		C308.663,225.208,310.071,225.649,311.436,226.252z M310.79,229.025c-1.567,0.441-3.252,0.039-4.214-1.246
		c-0.041-0.243,0.157-0.401,0.359-0.444C308.423,227.497,309.508,228.54,310.79,229.025z M306.21,230.227
		c-0.078-0.12,0-0.321-0.038-0.479c0.197-0.202,0.602-0.162,0.845-0.042l2.569,1.929
		C308.221,231.755,307.092,231.232,306.21,230.227z M305.45,232.397c-0.083-0.278-0.241-0.641-0.041-0.963
		c0.199-0.04,0.322-0.04,0.525,0l1.966,2.532C306.935,233.843,306.053,233.201,305.45,232.397z M304.362,234.406
		c-0.12-0.281-0.038-0.683,0.243-0.722c0.923,0.281,1.245,1.447,2.008,2.008C305.731,235.772,304.766,235.211,304.362,234.406z
		 M302.755,234.043c-0.161-0.078-0.36-0.078-0.479-0.281c-0.045-0.24,0.079-0.481,0.281-0.562c0.198-0.039,0.441,0,0.441,0.241
		C303.079,233.685,302.879,233.885,302.755,234.043z M308.097,240.351c0.642,0,1.29,0,1.73,0.444
		c-2.45,0.723-4.982,1.324-7.596,1.726C304.163,242.079,306.09,240.997,308.097,240.351z M330.396,245.815
		c2.492-1.365,4.982-2.893,7.233-4.741c-5.024,0.723-9.885,1.246-15.187,1.206c-0.403-0.12-0.082-0.762-0.324-1.044
		c-1.402-2.048-4.576-1.446-6.909-1.364c-1.609-0.163-3.534,1.685-4.659-0.283c-0.723-0.641-1.766-0.521-2.73-0.604
		c-1.73,0.403-3.294,1.446-5.024,1.728c0.523-1.165,0.083-2.533,0-3.777c0.041-0.28,0.083-0.604,0.363-0.724
		c0.643,1.165,1.847,1.767,3.051,1.689c0.041-0.443-0.641-0.765-0.723-1.206c1.088,0.483,2.573,0.038,3.616,0.602
		c-0.038-0.885-1.205-1.647-1.686-2.25c0.965,0,1.768,0.04,2.567,0.162c-0.278-1.004-1.08-2.01-1.763-2.651l1.849,0.038
		c0.562-0.08,1.245,0,1.766-0.08c-0.364-0.965-1.369-1.807-2.251-2.208l1.768-0.24c0.524-0.24,1.328,0.038,1.807-0.24
		c-0.76-1.086-1.93-1.69-3.011-2.254l2.651-0.72c0.359,0,0.886,0.079,1.084-0.081c-0.764-1.044-1.928-1.526-3.015-1.929v-0.081
		c0.603-0.12,1.045-0.641,1.571-0.964c0.36-0.239,0.92-0.2,1.159-0.559c-0.96-0.886-2.285-1.045-3.53-1.366v-0.122
		c0.8-0.481,1.444-1.246,2.247-1.726v-0.162c-1.245-0.804-2.931-0.804-4.46-0.763c0.404-0.482,0.643-1.005,0.762-1.569
		c0.204-0.522,0.644-0.963,0.846-1.404c-1.328-0.24-2.652,0.12-3.818,0.602l0.683-2.733l-0.122-0.079
		c-1.323,0.039-2.569,0.72-3.653,1.444c-0.083-0.921,0.28-1.688,0.441-2.41c-1.084,0.08-2.012,0.483-2.932,0.966
		c-1.207,0.643-2.49,1.725-2.333,3.214c-0.078,0.078-0.318,0.038-0.277,0.241c0.439,0.321,0.562,0.923,0.681,1.365
		c-0.363-0.241-0.647-0.643-0.723-1.045c-0.283-0.483-0.844-0.924-1.449-0.643c0.241,0.283,0.563,0.802,0.563,1.245
		c-0.721-0.362-0.683-1.163-1.245-1.646c-0.281-0.162-0.721-0.282-1.002-0.081l0.52,0.885l-0.083,0.12
		c-0.764-0.363-0.64-1.206-1.323-1.608c-0.24-0.201-0.805-0.201-1.005,0c0.2,0.363,0.604,0.723,0.563,1.125
		c-0.923-0.361-1.204-2.328-2.49-1.647c0.281,0.281,0.641,0.564,0.641,0.924c-0.804-0.202-0.841-1.084-1.444-1.485
		c-0.322-0.12-0.725-0.283-0.968-0.082c0.243,0.24,0.446,0.523,0.402,0.805c-0.56-0.082-0.522-0.686-0.962-0.967
		c-0.24-0.399-0.723-0.601-1.204-0.441c0.12,0.243,0.403,0.521,0.362,0.762c-0.523-0.24-0.481-1.041-1.167-1.165
		c-0.239,0.042-0.481,0.283-0.402,0.604c0.163,0.283,0.402,0.521,0.683,0.642c1.204-0.198,1.769,1.168,3.014,0.885
		c0.523,0.562,1.165,0.844,1.966,0.804c0.526,0.441,1.126,0.763,1.891,0.681c0.562,0.967,1.848,0.082,2.408,1.125
		c0.444,0.403,1.447-0.081,1.569,0.603h-0.122c-1.485-0.762-2.569,0.484-3.694,1.163c-1.369,0.604-3.137,0.523-4.179,1.728
		c-0.202,1.246-0.805,2.731-0.08,3.937c0.161,0.12,0.525,0.163,0.363,0.484l1.365,1.486c0.44,0.362,1.125,0.24,1.685,0.2
		c1.408-1.044,3.456-1.605,5.141-0.723c-0.12,0.564-0.277,1.245-0.96,1.447c-0.243,0.162-0.124,0.723-0.605,0.521
		c-0.444,0-0.602,0.484-0.602,0.843l0.441,0.163c0.161,0.2,0.161,0.402,0,0.561c-0.239,0.281-0.644,0.281-0.963,0.201
		c-0.361-0.159-0.687-0.562-0.522-1.005c0.198-0.04,0.32,0.283,0.522,0.162c-0.041-0.48,0.24-0.804,0.24-1.205l-0.564-0.08
		c0-0.282,0.364-0.522,0.283-0.804c-0.403-0.161-0.965-0.12-1.408-0.041l-0.157,0.925l-1.125,0.12
		c-0.206-0.161-0.12-0.521-0.442-0.602l-2.692,0.561c-0.485,0.041-1.123,0.402-0.803,1.005c-0.525,0.441-1.125,1.93-1.97,1.006
		c-0.683,0.761-1.167,1.806-1.807,2.648c-0.32,0.364-0.122,0.967,0.322,1.087c0,0.441-0.202,0.842-0.402,1.206
		c-0.322-0.042-0.641,0-0.802,0.278l-0.243,3.337c0.12,0.359,0.525,0.279,0.76,0.441c-0.038,0.158,0.083,0.401-0.075,0.521
		c-3.496-0.08-6.551,1.005-9.885,1.083c-0.284-0.762-0.603-1.604-1.327-2.168c0.967-0.924,1.249-2.169,1.449-3.415
		c1.123,0.08,2.047-0.278,2.771-1.206c2.288,0.081,4.818,0.324,7.066-0.198l-0.12-0.12c-0.397-0.364,0.082-0.684,0.12-1.005
		c-2.206,0.201-4.535,0.201-6.748,0c0.285-2.089-1.766-3.214-2.929-4.58c0.24-0.241,0.521-0.401,0.8-0.564
		c2.854-0.24,5.187,1.408,8.117,1.045c1.728-0.241,3.698-1.407,4.136-3.253c0.362-1.489,0.322-3.295-0.721-4.459
		c-1.885-2.17-5.183-1.972-7.711-1.327c-1.207,0.16-2.975,1.084-3.898-0.243c-0.401-0.559-0.202-1.446-0.043-2.007
		c-0.56-0.08-0.882,0.443-1.246,0.724c-0.882,1.165-0.641,2.892-0.195,4.099c-0.886-0.283-1.369-1.207-1.649-1.972h-0.08
		c-0.483,0.884-0.202,2.092,0.122,2.974c0.441,1.005,1.608,1.647,2.408,1.967c-0.721,0.163-1.324,0.684-1.887,1.005
		c-0.318-0.201-0.52-0.684-0.844-1.005c-0.281-0.441-1.247-0.278-1.004-0.842c0.603-1.849-1.165-2.932-2.331-4.057
		c-0.213-1.56-1.15-3.592-3.09-4.099c-1.522-0.396-2.911-0.216-3.898,1.005c-0.657,0.81-0.845,1.609-0.723,2.571
		c-0.803-0.281-1.527-0.885-2.371-0.963c-0.161,0.321-0.176,0.73-0.053,1.131c1.227,0.417,2.338,1.114,3.244,1.761h2.134
		c0.451-0.064,0.828-0.178,1.145-0.565c0.367-0.455,0.49-0.953,0.239-1.485c-0.231-0.491-0.46-0.765-1.168-0.765
		c-0.61,0-0.72,0.45-0.72,0.885c0,0.378,0.184,0.441,0.404,0.402c0.22-0.042,0.1-0.346,0.239-0.523
		c0.092-0.116,0.188-0.267,0.32-0.201c0.24,0.12,0.34,0.301,0.404,0.561c0.111,0.487-0.234,0.867-0.685,1.087
		c-0.537,0.258-1.052,0.047-1.487-0.363c-0.542-0.51-0.504-1.177-0.281-1.887c0.216-0.687,0.585-1.078,1.245-1.366
		c0.887-0.389,1.667-0.171,2.452,0.401c1.081,0.793,1.507,2.143,0.882,3.335c-0.483,0.92-1.324,1.446-2.292,1.364v1.806
		c2.892,3.458,3.633,6.749,3.633,9.717c0,6.859-4.521,13.958-13.192,15.346l-1.114,1.206c3.098-0.12,5.89-1.251,8.384-2.846
		c2.651-1.045,3.616,2.855,6.267,2.088c0.762-0.159,1.447-0.883,1.929-1.567c1.485,0.243,3.091,0.403,4.7,0.243
		c2.769-0.123,5.304-1.086,7.993-1.005c0.039,0.56-0.082,1.245,0.322,1.646c3.294,0.802,7.192,0.883,10.688,0.481
		c0.842,0.243,1.886,0.526,2.692-0.04c1.842-0.321,3.533,0.322,5.342,0.36c0.883,0.206,1.485-0.278,1.926-0.802
		c3.816-0.963,7.593-2.048,11.531-2.612c0.523,0.041,0.2,0.885,0.361,1.286c0.441,0.723,1.365,0.642,2.09,0.844
		c7.029,0.642,14.338-0.039,21.091-1.125C336.182,247.663,333.169,246.979,330.396,245.815z"/>
	<path style="fill:#999999;" d="M274.316,238.985l5.061-1.044c0.442-0.24,1.245-0.082,1.407-0.643
		c-2.008,0.36-3.977,0.804-6.028,1.002C274.396,238.343,274.475,238.746,274.316,238.985"/>
	<path style="fill:#999999;" d="M274.316,240.231c2.329-0.441,4.62-0.842,6.829-1.484c0.281-0.123,0.719-0.123,0.682-0.565
		c-2.528,0.804-5.344,0.967-7.911,1.57L274.316,240.231"/>
	<path style="fill:#999999;" d="M281.788,239.79l0.161-0.281c-2.371,0.522-4.943,0.884-7.355,1.326l0.202,0.483
		C277.167,240.873,279.538,240.513,281.788,239.79"/>
	<path style="fill:#999999;" d="M274.835,237.18l-0.038,0.479c1.489-0.2,2.93-0.522,4.34-0.925l0.161-0.278L274.835,237.18"/>
	<path style="fill:#999999;" d="M318.583,242.22l0.517,0.072v2.434l-0.356,0.045l0.015,0.335l2.077,0.229l0.006-0.366l-0.451-0.141
		l-0.069-2.434c0,0,0.271,0.099,0.415,0.209c0.164,0.127,0.127,0.406,0.127,0.406l0.327,0.117c0,0,0.004-0.823,0-0.835
		c-0.883-0.363-2.016-0.527-3.059-0.49l-0.029,1.162l0.308-0.048L318.583,242.22"/>
	<polyline style="fill:#999999;" points="318.025,244.622 317.701,244.611 317.434,242.292 317.862,242.242 317.739,241.797 
		315.572,242.04 315.611,242.443 315.933,242.4 316.256,244.771 315.933,244.891 315.974,245.292 318.06,245.038 318.025,244.622 	
		"/>
	<path style="fill:#999999;" d="M308.947,244.932c0.039,0.048-0.268-1.046-0.268-1.046s0.634-0.36,0.887,0.318
		C309.75,244.691,309.232,244.882,308.947,244.932 M310.721,243.787c-0.14-0.682-1.061-0.672-1.949-0.496
		c0.038,0.009-1.717,0.516-1.717,0.516l0.086,0.329l0.243-0.069l0.594,2.314l-0.206,0.293l0.127,0.306l1.687-0.398l-0.187-0.464
		l-0.138,0.035l-0.176-0.834c0,0,0.463-0.039,0.596,0.101c0.267,0.285,0.588,1.039,0.588,1.039l1.286-0.375l-1.037-1.186
		C310.518,244.897,310.937,244.842,310.721,243.787z"/>
	<path style="fill:#999999;" d="M313.806,245.412c-0.515,0.162-0.647-0.269-0.89-1.071c-0.225-0.735-0.516-1.463,0.068-1.635
		c0.603-0.174,0.855,0.655,1.021,1.26C314.234,244.794,314.34,245.246,313.806,245.412 M314.327,242.4
		c-0.727-0.201-1.568-0.12-2.168,0.281c-0.723,0.36-0.805,1.125-0.723,1.889c0.078,0.482,0.52,0.925,0.964,1.163
		c0.641,0.243,1.485,0.122,2.086-0.159c0.566-0.32,0.846-0.924,0.846-1.608C315.291,243.325,314.969,242.682,314.327,242.4z"/>
	<path style="fill:#999999;" d="M260.134,244.369l-0.322-0.082c0.157-0.201,0.603-0.241,0.483-0.599
		c-0.764-0.646-1.728-0.363-2.692-0.444l-0.161-0.12c0.402-0.442,1.125-0.201,1.647-0.201c0.241,0.042,0.522-0.201,0.363-0.441
		c-0.683,0.16-1.608,0.082-2.288,0.441c-0.161,0.162-0.083,0.363,0.038,0.523c0.844,0.12,2.007-0.283,2.649,0.362l-0.197,0.08
		c-1.048-0.441-2.249,0.281-3.255-0.241l0.161-0.32c-0.401-0.322-1.004-0.403-1.526-0.361c-0.202,0.241,0.158,0.601-0.081,0.882
		c-0.484,0-0.241-0.483-0.364-0.723l-0.56-0.039c-0.322,0.159-0.038,0.441-0.12,0.642c0.483,0.2,0.68,0.762,1.044,1.084
		c-0.159,0.204-0.484,0.602-0.683,0.204c-0.241,0.078-0.562,0.158-0.642,0.398c0.48,0.967,1.365,0.043,1.966-0.078l0.165,0.078
		c0.359-0.522,1.002-0.522,1.444-0.641c0.322,0.401-0.364,0.36-0.52,0.604c-0.203,0.2-0.523-0.202-0.643,0.158
		c0,0.162-0.161,0.283,0,0.443c0.643,0.241,1.126-0.481,1.805-0.443c0.483-0.038,0-0.481,0.36-0.681
		c0.281-0.241,0.685-0.402,0.926,0l-0.281,0.28c-0.199-0.039-0.243-0.36-0.481-0.241c-0.12,0.081-0.12,0.201-0.12,0.282
		c-0.044,0.441,0.439,0.36,0.641,0.483C259.372,245.292,259.85,244.891,260.134,244.369"/>
	<path style="fill:#999999;" d="M254.148,225.649h7.231v8.034h-7.231V225.649z M253.544,234.326h8.601v-9.319h-8.601V234.326z"/>
	<path style="fill:#999999;" d="M255.109,242.4c0.325-0.04,0.648-0.401,0.887-0.281c0.161,0.041,0.12-0.159,0.238-0.202
		c0.768-0.159,1.45-0.681,2.332-0.479c-0.038,0.08,0,0.281-0.158,0.281c-0.363,0.36-1.245,0-1.286,0.681
		c0.161,0.043,0.282,0.281,0.522,0.2c0.319-0.401,0.841-0.28,1.324-0.32c0.844,0.241,0.162-0.684,0.844-0.762
		c0.442,0.078,1.086-0.201,1.406,0.24c0,0.12-0.038,0.201-0.123,0.241c-0.12,0.12-0.278,0.041-0.359-0.082
		c-0.161-0.12-0.362-0.038-0.403,0.123c0.041,0.481,0.485,0.403,0.762,0.56c0.483-0.28,0.725-0.842,0.848-1.365
		c-0.324-0.08-0.642,0-0.886-0.239c0.243,0,0.603-0.202,0.52-0.523c-0.802-0.925-2.329-0.281-3.495-0.402l-0.157-0.123
		c0.522-0.523,1.647,0.042,1.925-0.681c-0.038-0.12-0.197-0.12-0.278-0.12c-0.604,0.481-1.688,0.04-2.049,0.802
		c0.844,0.965,2.169-0.039,3.294,0.281c0.157-0.038,0.442,0.201,0.322,0.321c-1.365-0.12-3.013,0.283-4.422-0.12
		c0.082-0.161,0.164-0.239,0.202-0.401c-0.483-0.361-1.207-0.322-1.729-0.402c0,0.363,0.121,0.642-0.081,0.923
		c-0.118,0.162-0.279-0.038-0.358-0.12c-0.164-0.201,0-0.321,0.041-0.482c-0.082-0.4-0.446-0.078-0.686-0.241
		c-0.239,0.081-0.117,0.401-0.239,0.604c0.682,0.118,0.562,1.042,1.165,1.205c-0.161,0.159-0.281,0.321-0.483,0.399
		c-0.158-0.078-0.12-0.279-0.28-0.24c-0.241,0.162-0.683,0.12-0.642,0.523C253.945,243.085,254.511,242.2,255.109,242.4"/>
	<path style="fill:#999999;" d="M253.908,239.306c0.199,0.12,0.402-0.038,0.603-0.08c0.56,0.08,1.003-0.56,1.486-0.398
		c0.841-0.526,1.808-0.804,2.852-0.724l-0.199,0.399c-0.446,0.162-1.207-0.078-1.366,0.401c0,0.402,0.44,0.243,0.68,0.364
		c0.446-0.522,1.286,0,1.73-0.441c-0.364-0.364,0.277-0.444,0.401-0.685c0.481,0.282,1.245-0.363,1.484,0.36
		c-0.199,0.445-0.52-0.322-0.802,0.081c-0.08,0.484,0.404,0.522,0.723,0.684c0.522-0.243,0.803-0.804,0.803-1.408
		c-0.281-0.08-0.601,0-0.803-0.239c0.161-0.243,0.646-0.12,0.563-0.523c-1.005-1.005-2.611-0.08-3.898-0.482
		c0-0.082,0-0.12,0.038-0.16c0.565-0.444,1.647,0.361,1.852-0.521c-0.086-0.163-0.243-0.082-0.363-0.082
		c-0.523,0.523-1.73-0.123-1.929,0.804c0.079,0.24,0.363,0.28,0.562,0.318c1.084,0.081,2.41-0.519,3.293,0.162
		c-1.605,0.12-3.416,0.322-4.981-0.081l0.079-0.322c-0.439-0.358-1.043-0.521-1.608-0.358c-0.038,0.2,0.122,0.358,0.081,0.561
		c-0.081,0.119-0.038,0.401-0.319,0.362c-0.361-0.119-0.199-0.441-0.161-0.723c-0.079-0.283-0.401-0.08-0.563-0.2
		c-0.36,0.038-0.24,0.441-0.36,0.68c0.481,0.283,0.723,0.846,1.164,1.245c-0.441,0.646-0.962-0.278-1.325,0.483
		C253.544,239.025,253.867,239.106,253.908,239.306"/>
	<path style="fill:#999999;" d="M252.944,249.67v-13.978h9.962c0.192,4.607,0.041,8.558-4.017,10.404
		C256.882,247.102,254.511,247.864,252.944,249.67 M252.944,224.443h9.801v10.487h-9.801
		C252.944,231.434,252.944,224.443,252.944,224.443z M252.181,234.93h-9.725v-10.487h9.725
		C252.181,224.443,252.216,231.473,252.181,234.93z M252.181,249.632c-2.25-2.452-5.077-2.487-7.753-4.861
		c-2.271-2.007-1.972-6.127-1.972-9.079h9.725V249.632z M241.211,241.396c-2.207-3.493-2.168-8.999,0-12.533V241.396z
		 M264.153,228.781c1.091,1.846,1.631,4.099,1.626,6.361c-0.007,2.238-0.55,4.484-1.626,6.353V228.781z M260.477,246.688
		c1.623-1.021,4.054-3.511,5.195-6.538c1.269-3.385,1.151-6.11,0.231-9.412c-0.56-1.996-1.873-3.664-1.873-3.664v-3.997h-4.451
		l-1.514-0.825l-0.882,0.276l0.976,0.549h-11l1.084-0.48l-0.978-0.276c0,0-1.134,0.602-1.676,0.755h-4.498v4.218
		c-2.087,3.175-3.1,8.078-1.711,11.973c1.416,3.963,2.907,5.289,5.518,7.42c2.892,1.323,5.743,2.487,7.792,5.379
		C254.127,249.284,257.046,248.264,260.477,246.688z"/>
	<path style="fill:#999999;" d="M243.382,228.22c0.601-0.12,1.325-0.161,1.808-0.684c0.158,0.362,0.278-0.039,0.483-0.078
		c0.841-0.123,1.565-0.764,2.45-0.444l-0.044,0.041c-0.12,0.562-0.961,0.442-1.445,0.52c-0.161,0.484,0.243,0.604,0.604,0.604
		c0.522-0.4,1.406-0.04,1.846-0.481c-0.36-0.321,0.243-0.321,0.325-0.643c0.481,0.279,1.246-0.362,1.486,0.36l-0.12,0.082
		c-0.161,0-0.326-0.082-0.484-0.163c-0.081,0.043-0.161,0.123-0.12,0.241c-0.161,0.484,0.402,0.525,0.68,0.604
		c0.604-0.24,0.685-0.883,0.767-1.444c-0.284-0.161-0.565,0.079-0.767-0.201c0.202-0.08,0.645-0.201,0.483-0.564
		c-0.72-0.761-2.131-0.401-3.092-0.36c-0.201,0.039-0.483,0.039-0.483-0.242c0.161-0.241,0.525-0.083,0.806-0.12
		c0.398,0.038,0.923-0.039,0.761-0.484l-0.243-0.077c-0.44,0.478-1.201,0.119-1.685,0.478c-0.044,0.203-0.082,0.484,0.12,0.604
		c1.046,0.24,2.289-0.361,3.376,0.123c0.076,0.077,0.038,0.197-0.044,0.24c-1.524-0.123-3.332,0.321-4.817-0.163l0.12-0.32
		c-0.481-0.241-1.087-0.684-1.726-0.364c-0.041,0.283,0.319,0.765-0.161,0.928c-0.604-0.204,0-0.564-0.284-0.884
		c-0.162,0.039-0.522-0.081-0.721,0.08c-0.443,0.844,0.721,1.126,1.005,1.767l-0.12,0.12c-0.164,0.12-0.404,0.241-0.446-0.041
		c-0.319-0.117-0.439,0.243-0.68,0.282C242.779,227.859,243.262,228.1,243.382,228.22"/>
	<path style="fill:#999999;" d="M246.834,240.714l3.056,1.927l-0.12,0.765l-3.616-2.25l-0.281-0.561
		C246.073,240.193,246.556,240.513,246.834,240.714 M247.039,239.268c1.003,0.642,2.046,1.206,2.972,1.926l-0.079,0.684
		c-1.126-0.523-2.213-1.245-3.174-2.007L247.039,239.268z M247.801,238.263l2.329,1.365l-0.078,0.685
		c-0.886-0.364-1.809-1.045-2.652-1.567L247.801,238.263z M250.251,237.822l-0.079,1.044c-0.641-0.201-1.207-0.685-1.691-1.044
		H250.251z M249.65,245.014c-1.126-0.604-2.693-1.408-3.056-2.815c1.087,0.602,2.13,1.286,3.132,1.968
		C249.606,244.411,249.726,244.771,249.65,245.014z M248.844,245.776c0.807,0.441,1.407,1.284,2.292,1.486
		c0.441-3.335,0.319-10.766,0.319-10.766h-4.697c-1.046,0.08-0.404,1.446-1.125,1.929c-0.164,0.12-0.566,0.241-0.686-0.081
		c-0.038-0.363,0.202-0.602,0.446-0.804c0.12-0.32,0.281-0.804,0-1.083c-0.325-0.283-0.806-0.32-1.207-0.243
		c-0.282,0.163-0.484,0.444-0.563,0.724c-0.162,0.481,0,1.043,0.401,1.326c0,0.36-0.281,0.641-0.521,0.885
		c-0.199,0.278-0.041,0.681,0.199,0.883C244.147,242.6,246.313,245.212,248.844,245.776z"/>
	<path style="fill:#999999;" d="M260.735,226.734c-0.079-0.324-0.403-0.401-0.68-0.362c-0.765,0.683-0.848,1.928-0.483,2.853
		c0,0.604,1.447,1.205,0.562,1.606c-0.524-0.36-1.166-0.684-1.529-1.245c-0.238-0.604,0-1.285,0.243-1.807
		c0.202-0.483-0.08-0.924,0.281-1.326c-0.241-0.081-0.361-0.283-0.563-0.403c-0.521-0.041-1.207,0-1.526,0.442
		c-0.082,0.402,0.32,0.321,0.562,0.362c0.041,0.32-0.562,0.039-0.439,0.441l0.439,0.202c-0.243,0.24-0.562,0.482-0.922,0.521
		c-0.484-0.2-1.006-0.444-1.167-1.005l0.243-0.201c0.038-0.481-0.525-0.321-0.765-0.481c-0.041,0.28-0.481,0.32-0.443,0.681
		c0.604,0.522,1.005,1.407,1.685,1.849c-0.118,0.118-0.238,0.162-0.402,0.282c-0.197,0.12-0.601,0.12-0.601-0.243
		c-0.521-0.198-0.281,0.443-0.683,0.483c0.124,0.322-0.082,0.445,0.039,0.762l0.364,0.042c0.562-0.603,1.283-0.36,1.968-0.766
		l0.44,0.766l-0.601,0.162c-0.481,0.36,0.442,0.681,0,1.044c-0.281,0.278-0.602-0.08-0.683-0.32
		c-0.484-0.162-0.243,0.478-0.642,0.478c-0.281,0.364,0.323,0.323,0.158,0.724c0.12,0.12,0.203,0.163,0.364,0.201
		c0.278-0.561,0.964-0.402,1.448-0.642c0.281-0.039,0.679-0.483,0.36-0.722c0.24,0.038,0.439-0.162,0.603,0.038
		c-0.24,0.885,1.005,0.644,0.962,1.326c-0.121-0.038-0.159-0.239-0.361-0.158c-0.281,0.36-0.363,0.719,0,1.045
		c0.442-0.203,1.046-0.604,1.166-1.126c0.041-0.483-0.404-0.565-0.683-0.804c0-0.202,0.08-0.403,0.121-0.604
		c0.24,0.162,0.442,0.401,0.76,0.364c0.403-0.043,0.523-0.484,0.403-0.804c-0.841-0.804-1.326-1.887-0.961-3.095
		c0.076-0.201,0.161-0.642,0.52-0.522c0.441,0.441-0.239,0.802-0.201,1.245c0,0.321,0.322,0.441,0.524,0.642
		c0.159,0.043,0.478,0.163,0.523-0.12C260.575,228.139,260.656,227.377,260.735,226.734"/>
	<path style="fill:#999999;" d="M250.291,230.548c-0.161,0-0.12,0.205-0.12,0.322c0.079,0.362,0.484,0.325,0.724,0.444
		c0.56-0.321,0.682-0.885,0.8-1.408c-0.241-0.12-0.642,0.083-0.8-0.2c0.199-0.04,0.48-0.241,0.48-0.481
		c-0.802-1.125-2.37-0.243-3.574-0.564c0.322-0.602,1.284-0.038,1.729-0.482c0.12-0.12,0-0.32-0.12-0.36
		c-0.604,0.32-1.368,0.2-1.931,0.482c-0.199,0.24-0.123,0.601,0.162,0.681c1.125,0.243,2.45-0.478,3.331,0.243l-0.12,0.159
		c-1.524-0.403-3.133,0.243-4.577-0.119c-0.442-0.081,0.079-0.284,0-0.523h-0.24c-0.361-0.483-1.046-0.24-1.448-0.363
		c-0.319,0.281,0.24,0.444,0,0.765c-0.038,0.2-0.281,0.32-0.44,0.12c-0.281-0.201,0.038-0.402,0-0.642
		c-0.164-0.322-0.404,0.038-0.645-0.163c-0.199,0.08-0.24,0.321-0.284,0.483c-0.038,0.241,0.243,0.322,0.404,0.401
		c0.12,0.441,0.721,0.681,0.601,1.084c-0.12,0.081-0.402,0.362-0.522,0c-0.319-0.12-0.439,0.281-0.68,0.362
		c-0.044,0.322,0.158,0.403,0.361,0.603c0.642-0.2,1.365-0.162,1.928-0.564c0.202,0.162,0.202-0.12,0.363-0.201
		c0.841-0.16,1.606-0.641,2.529-0.523c-0.123,0.082,0.041,0.364-0.199,0.364c-0.363,0.04-0.647,0.399-1.005,0.201
		c-0.24-0.041-0.364,0.199-0.322,0.403c-0.041,0.36,0.363,0.197,0.563,0.278c0.443-0.441,1.328-0.321,1.928-0.278
		c-0.442,0.441-1.245,0.078-1.767,0.478c-0.082,0.203-0.044,0.446,0.158,0.566c1.087,0.278,2.292-0.322,3.376,0.158
		c0.083,0.043,0.038,0.201-0.038,0.241c-1.647-0.36-3.256,0.281-4.861-0.198c0.079-0.081,0.199-0.243,0.079-0.403h-0.199
		c-0.325-0.522-1.005-0.201-1.45-0.281c-0.076,0.363,0.243,0.684-0.076,0.925c-0.521-0.083-0.241-0.523-0.404-0.804
		c-0.2,0.041-0.44-0.16-0.68,0.041c-0.041,0.202-0.041,0.523,0,0.681c0.48,0.163,0.6,0.764,1.084,1.005l-0.202,0.241
		c-0.162,0.2-0.443,0.039-0.563-0.12c-0.241,0.159-0.721,0.24-0.563,0.643c0.202,0.444,0.641,0.201,0.964,0.201
		c0.563,0.038,0.964-0.523,1.407-0.36c0.803-0.522,1.728-0.722,2.649-0.845c0.326,0,0.044,0.281,0.044,0.443
		c-0.483,0.078-0.926,0.158-1.365,0.158c0,0.163-0.243,0.364,0,0.483c0.56,0.282,1.245-0.201,1.925-0.043
		c0.885,0.083,0.041-0.719,0.847-0.919c0.481,0.158,1.002-0.123,1.403,0.239c0,0.561-0.401,0-0.642,0.12
		c-0.12,0.039-0.081,0.162-0.081,0.283c-0.08,0.441,0.446,0.32,0.686,0.479c0.521-0.321,0.641-0.921,0.762-1.447
		c-0.282,0.043-0.563,0.083-0.762-0.158c0.199-0.082,0.641-0.24,0.48-0.604c-0.881-0.804-2.291-0.278-3.372-0.36l-0.202-0.161
		l0.158-0.12c0.446-0.283,1.368,0.2,1.53-0.483c0-0.24-0.322-0.12-0.404-0.12c0-0.162,0.044-0.321-0.038-0.401
		c0.322-0.801,1.205-0.28,1.805-0.28c0.082,0.12,0.202,0.24,0.044,0.36C250.614,230.831,250.532,230.51,250.291,230.548"/>
	<path style="fill:#999999;" d="M303.16,230.227c0,0.163,0.201,0.202,0.317,0.243c0.968-1.246,1.129-2.895,1.17-4.578
		c-0.164-1.206-0.363-2.534-1.365-3.255c-0.164,0-0.243,0.158-0.243,0.32C304.526,225.044,303.961,228.059,303.16,230.227"/>
	<path style="fill:#999999;" d="M297.457,221.31l0.562,0.402c-0.164,0.241-0.483,0.241-0.764,0.283
		C297.254,221.832,297.457,221.592,297.457,221.31 M296.088,221.712c0.08-0.201,0.12-0.441,0.364-0.564l0.078,0.644L296.088,221.712
		z M296.451,220.506c-0.683,0-0.804,0.723-1.205,1.044c0.199,0.445,0.72,0.646,1.205,0.723c0.882,0.243,1.887,0.081,2.449-0.561
		C298.095,221.31,297.491,220.346,296.451,220.506z"/>
	<path style="fill:#999999;" d="M49.565,293.71v-1.395c-3.327,0-5.404-0.77-5.404-4.272v-23.62c6.574,0,8.134,1.181,8.746,6.364
		h1.546v-9.438H25v9.438h1.541c0.612-5.183,2.173-6.364,8.746-6.364v23.62c0,3.502-2.076,4.272-5.403,4.272v1.395H49.565"/>
	<path style="fill:#999999;" d="M78.064,278.181v9.857c0,3.137-1.695,4.184-4.423,4.273v1.4h17.262v-1.4
		c-3.135,0-4.363-0.771-4.363-4.273V267.02c0-3.502,1.228-4.273,4.363-4.273v-1.398H73.641v1.398
		c2.728,0.091,4.423,1.133,4.423,4.273v8.553H66.947v-8.553c0-3.139,1.695-4.182,4.423-4.273v-1.398H55.446v1.398
		c2.145,0.448,3.024,0.771,3.024,4.273v21.017c0,3.502-1.227,4.273-4.363,4.273v1.4H71.37v-1.4
		c-2.728-0.088-4.423-1.136-4.423-4.273v-9.857H78.064"/>
	<path style="fill:#999999;" d="M119.627,293.71v-9.606h-1.134c-1.82,6.91-4,7.329-7.001,7.329h-3.999
		c-1.91,0-2.276-0.639-2.276-2.364v-10.939c4.837,0.08,8.206-0.536,8.514,4.064h1.222v-10.317h-1.222
		c-0.305,4.034-3.874,3.642-8.514,3.642v-11.896h5.092c5.183,0,7.41,2.001,7.911,6.91h0.999v-9.183H92.496v1.398
		c3.138,0,4.365,0.771,4.365,4.273v21.017c0,3.502-1.226,4.273-4.365,4.273v1.4H119.627"/>
	<path style="fill:#999999;" d="M136.478,293.889l0.917,0.02c0.27-0.815,0.809-1.565,1.788-1.565c1.813,0,3.346,2.178,10.314,2.178
		c4.521,0,10.185-3.361,10.185-10.951c0-11.105-17.768-9.191-17.768-16.68c0-2.77,2.558-4.091,5.409-4.091
		c4.24,0,7.228,3.232,8.547,7.366h0.982v-8.817h-1.383c-0.226,0.697-0.381,1.16-1.07,1.16c-1.609,0-2.909-1.992-7.568-1.992
		c-5.682,0-11.58,2.45-11.58,9.576c0,11.905,18,10.262,18,17.718c0,2.423-2.789,4.442-6.127,4.442c-4.489,0-8.963-3.627-9.728-8.225
		h-1.283L136.478,293.889"/>
	<path style="fill:#999999;" d="M373.814,293.71v-1.309c-2.685,0-3.748-1.691-3.748-5.189v-19.55c0-3.498,0.748-4.885,3.276-4.885
		v-1.427h-15.118v1.427c2.564,0,3.317,1.386,3.317,4.885v19.55c0,3.498-1.066,5.189-3.787,5.189v1.309H373.814"/>
	<path style="fill:#999999;" d="M395.73,293.71l10.037-25.996v19.498c0,3.868-0.692,4.782-4.367,5.189v1.309h17.031v-1.309
		c-4.088-0.407-4.367-1.691-4.367-5.189v-19.245c0-4.34,0.739-4.568,4.367-5.19v-1.427h-13.278l-7.967,21.07l-7.829-21.07H376.12
		v1.427c3.091,0,4.318,1.69,4.318,5.19v19.743c0,3.498-0.634,4.131-4.318,4.691v1.309h11.571v-1.309
		c-4.215-0.637-4.369-1.193-4.369-4.691v-18.613l9.883,24.613H395.73"/>
	<path style="fill:#999999;" d="M447.81,293.71v-9.606h-1.132c-1.821,6.91-4,7.329-7,7.329h-4c-1.91,0-2.274-0.639-2.274-2.364
		v-10.939c4.836,0.08,8.201-0.536,8.512,4.064h1.222v-10.317h-1.222c-0.304,4.034-3.877,3.642-8.512,3.642v-11.896h5.09
		c5.183,0,7.41,2.001,7.909,6.91h1.002v-9.183H420.68v1.398c3.136,0,4.367,0.771,4.367,4.273v21.14c0,3.499-1.231,4.273-4.367,4.273
		v1.277H447.81"/>
	<path style="fill:#999999;" d="M451.797,293.889h0.918c0.267-0.818,0.809-1.544,1.783-1.544c0.941,0,5.204,2.178,10.318,2.178
		c4.519,0,10.185-3.361,10.185-10.951c0-11.105-17.769-9.191-17.769-16.68c0-2.77,2.559-4.091,5.406-4.091
		c4.244,0,7.231,3.232,8.548,7.366h0.984v-8.817h-1.379c-0.232,0.697-0.385,1.16-1.073,1.16c-1.609,0-2.913-1.992-7.569-1.992
		c-5.681,0-11.577,2.45-11.577,9.576c0,11.905,17.998,10.262,17.998,17.718c0,2.423-2.788,4.442-6.13,4.442
		c-4.49,0-8.961-3.627-9.724-8.225h-1.286L451.797,293.889"/>
	<path style="fill:#999999;" d="M351.862,293.71v-1.395c-3.326,0-5.405-0.77-5.405-4.272v-23.62c6.578,0,8.137,1.181,8.747,6.364
		h1.544v-9.438h-29.451v9.438h1.54c0.612-5.183,2.173-6.364,8.747-6.364v23.62c0,3.502-2.072,4.272-5.403,4.272v1.395H351.862"/>
	<path style="fill:#999999;" d="M194.454,262.777c1.819,0,2.432,0.454,4.02,2.361v22.87c0,3.498-1.606,4.272-4.937,4.272v1.43
		h13.054v-1.43c-3.595,0-5.18-0.774-5.18-4.272v-18.068h0.091l18.305,23.769h3.83v-25.946c0-3.502,1.149-4.75,4.363-4.987v-1.427
		h-11.182v1.427c3.217,0.621,3.906,1.486,3.906,4.987v13.586h-0.088l-14.923-20.001h-23.339v1.427
		c2.91,0.091,4.304,1.456,4.304,4.272v15.835c0,5.998-1.952,8.27-6.851,8.27c-3.091,0-6.816-1.451-6.816-6.272v-17.832
		c0-3.501,1.228-4.272,4.363-4.272v-1.427h-17.033v1.427c3.138,0,4.363,0.771,4.363,4.272v17.227
		c0,7.727,5.362,10.326,12.726,10.326c8.064,0,12.33-2.827,12.33-10.42v-17.133C189.76,263.548,191.24,262.777,194.454,262.777"/>
	<path style="fill:#999999;" d="M242.398,263.658c8.503-0.995,11.946,5.691,11.946,13.051c0,10.689-2.827,14.522-8.96,14.522
		c-2.01,0-2.986-0.723-2.986-3.358V263.658 M233.974,288.009c0,3.498-1.225,4.272-4.36,4.272v1.43h16.146
		c10.179,0,17.089-4.242,17.089-16.139c0-11.996-6.91-16.221-17.089-16.221h-16.146v1.427c3.135,0,4.36,0.771,4.36,4.272V288.009z"
		/>
	<path style="fill:#999999;" d="M278.32,280.93h-7.965l3.982-11.759L278.32,280.93 M294.406,292.31
		c-2.019,0.013-3.393-1.011-4.215-3.009l-10.341-29.015l-5.898,1.533l-9.161,26.173c-1.322,3.411-3.092,4.143-5.85,4.319v1.4h12.869
		v-1.4c-2.773,0-4.603-0.862-4.603-2.045c0-0.864,0.229-1.547,0.592-2.543l1.655-3.996h9.632l2.105,4.723
		c0.229,0.633,0.499,1.454,0.499,2.18c0,1.09-0.816,1.682-1.864,1.682h-2.503v1.4h34.694v-1.43c-3.132,0-4.978-0.774-4.978-4.272
		v-9.57l7.659-12.208c1.914-2.913,3.139-3.216,5.823-3.454v-1.427H308.8v1.427c1.824,0,3.101,0.498,3.101,1.773
		c0,1.043-0.497,1.998-0.956,2.863l-5.206,7.809l-4.594-7.853c-0.593-1.137-1.276-2.364-1.276-3.182s0.726-1.409,2.546-1.409v-1.427
		h-17.201v1.427c1.771,0.319,3.828,0.085,5.357,2.452l8.228,13.209v9.57C298.8,291.507,296.802,292.298,294.406,292.31z"/>
</g>
</svg>
