<?xml version="1.0" encoding="utf-8"?>
<!-- Generator: Adobe Illustrator 24.2.1, SVG Export Plug-In . SVG Version: 6.00 Build 0)  -->
<!DOCTYPE svg PUBLIC "-//W3C//DTD SVG 1.1//EN" "http://www.w3.org/Graphics/SVG/1.1/DTD/svg11.dtd" [
	<!ENTITY ns_extend "http://ns.adobe.com/Extensibility/1.0/">
	<!ENTITY ns_ai "http://ns.adobe.com/AdobeIllustrator/10.0/">
	<!ENTITY ns_graphs "http://ns.adobe.com/Graphs/1.0/">
	<!ENTITY ns_vars "http://ns.adobe.com/Variables/1.0/">
	<!ENTITY ns_imrep "http://ns.adobe.com/ImageReplacement/1.0/">
	<!ENTITY ns_sfw "http://ns.adobe.com/SaveForWeb/1.0/">
	<!ENTITY ns_custom "http://ns.adobe.com/GenericCustomNamespace/1.0/">
	<!ENTITY ns_adobe_xpath "http://ns.adobe.com/XPath/1.0/">
]>
<svg version="1.1" id="Layer_1" xmlns:x="&ns_extend;" xmlns:i="&ns_ai;" xmlns:graph="&ns_graphs;"
	 xmlns="http://www.w3.org/2000/svg" xmlns:xlink="http://www.w3.org/1999/xlink" x="0px" y="0px" viewBox="0 0 600 125"
	 style="enable-background:new 0 0 600 125;" xml:space="preserve">
<style type="text/css">
	.st0{fill:#999999;}
</style>
<metadata>
	<sfw  xmlns="&ns_sfw;">
		<slices></slices>
		<sliceSourceBounds  bottomLeftOrigin="true" height="110" width="553.7" x="23" y="43.1"></sliceSourceBounds>
	</sfw>
</metadata>
<g>
	<path class="st0" d="M234,54.3h-0.9v-2.8c0.6-0.1,1.1,0,1.5,0.4C235.1,52.7,234.9,53.9,234,54.3z M236.2,51.3
		c-1.6-0.7-3.8-0.5-5.5-0.5c0,0.2,0,0.4,0.1,0.5c0.2,0,0.6,0.1,0.6,0.1v2.8c-0.1,0-0.5,0-0.6,0.1c0,0.2-0.1,0.4,0,0.5
		c1.7-0.1,3.4,0.5,5,0c0.7-0.4,1.1-1.2,1.1-2C236.9,52.3,236.7,51.6,236.2,51.3z"/>
	<path class="st0" d="M239.2,29l0.5,0.2c0,0-0.2,0.4-0.1,0.6c0.2,0.3,0.4,0.5,0.7,0.4c0.4-0.2,0.6-0.7,0.5-1h0.4l0.1,0.4
		c-0.1,0.6-0.2,1.1-1.1,1.1C239.4,30.6,239.1,29.8,239.2,29z M240.9,31.4l0.7,0.2l0.2,0.3l0.3-3.8l-0.3-0.3c0,0-0.5,0.7-1.6,0.7
		c-0.6,0-1.3-0.1-1.8-0.2c0.2,0.6-0.1,1.4,0.3,2.1C239.1,31.4,240,31.5,240.9,31.4z"/>
	<path class="st0" d="M245.3,29h0.4c-0.1,0.3,0.1,0.8,0.5,1c0.3,0.1,0.5-0.1,0.7-0.4c0.1-0.2-0.1-0.6-0.1-0.6l0.5-0.2
		c0.1,0.7-0.2,1.6-1,1.6c-0.9,0-1.1-0.4-1.1-1.1L245.3,29z M246.6,31c1.3-0.2,1.3-1.9,1.3-3.1c-0.8,0.4-1.1,0.5-1.9,0.6
		c-0.8,0-1.5-0.7-1.5-0.7l-0.3,0.1l0.7,3.9C245,31.8,245.4,31.1,246.6,31z"/>
	<path class="st0" d="M287.6,57.8c-0.1-0.7-0.3-1.4-1-1.8c-0.4-0.1-1-0.2-1.3,0.1c-0.6,0.3-0.6,1-0.5,1.6c0.1,0.2,0.3,0.5,0.7,0.4
		c0.6-0.4-0.5-1.1,0.4-1.4c0.4-0.1,0.7,0.5,0.8,0.8c0,0.7-0.3,1.4-0.9,1.7c-0.7,0.1-1.4,0.2-2-0.1c-0.6-0.5-1.1-1.2-1.2-2
		c-0.1-1.1,0.6-2.2,1.7-2.7c2.3-1.1,3.9,0.9,5.5,2.4C289,56.8,288.1,57,287.6,57.8z M278.4,51.9c-0.4-0.7-0.2-1.7,0.1-2.3
		c0.4-0.7,1.2-1.4,2-1.6c1.2-0.2,2.2,0.2,3.1,0.9c1.3,1.3,2.1,3.1,3.2,4.5c-1.2-0.4-3-0.2-4.1,0.8c-0.3,0.6-0.7,1.1-0.8,1.8
		C281,54.7,279.7,53.2,278.4,51.9z M267.5,56.4c-3-0.2-5.7,0.1-8.3,1c0.2-1.7,0.3-3.6,0.2-5.2c1.4-1.8,3.9-1.6,6.1-1.8
		c4-0.3,7.3,0.7,11.1,1.4c0.8,2.3,3.4,3.8,4.3,6C276.4,58.3,272.1,56.8,267.5,56.4z M266.2,59c-2.2,0.1-4.5,0-6.4-0.6
		c1.7-1,4-1.1,6-1.1l0.5,0.1C266.2,57.8,266.3,58.4,266.2,59z M251.1,59l-16.9-3c-2.3-0.4-5-0.2-7.3,0c0.4-1.5,0.5-3.2,0.4-4.7
		c0.2-0.8,1.2-0.8,1.9-1.2c2.8-0.7,5.7,0,8.4,0.3c6.9,1.3,13.6,2.8,20.8,3.3c0.2,1.6-0.1,3.3-0.1,4.8c0.5,0.8,1.4,0.7,2.1,0.9
		C257.3,59.6,254.1,59.4,251.1,59z M233.6,58.3c-2.2-0.1-4.6-0.2-6.5-0.8l-0.2-0.3c1.9-0.9,4.7-0.8,6.8-0.3L233.6,58.3z M205.2,58.4
		c2.1-0.8,4.4-1.4,6.4-2.5c-2.1-1.1-4.4-1.9-6.4-3.3c6.8,0.5,14.1,0.9,21.3,0.6c0.1,1.6-0.6,3.1-0.4,4.5c0.8,1,2,0.9,3,1.2
		C221.2,59.5,212.8,59.2,205.2,58.4z M219.8,46.9c2.3,0,4.2-0.8,6.2-1.3c2-0.3,4,0.1,5.7-0.5c0.1,1,0.6,1.9,0.2,3l-2.7,0.3
		c-1.1,0.3-2.5,0.9-3,2c-0.2-0.3,0.2-1.2-0.5-1.2c-0.2,0-0.4,0.1-0.5,0.3c0,0.2,0.2,0.4,0.1,0.6c-0.6,0.2-0.8,0.7-0.5,1.2
		c-0.1,0.1-0.3,0-0.4,0c-0.5-0.3-0.3-1-0.8-1.3c-0.2-0.4,0.3-0.6,0-0.9c-0.2-0.2-0.7-0.2-0.9,0c-0.3,0.5,0.1,1.3-0.7,1.5l0.2,0.9
		c-0.6,0.3-0.7-0.5-0.9-0.8c-0.1-0.5-0.7-0.8-0.2-1.3c0.1-0.2-0.2-0.4-0.4-0.4c-0.3,0-0.5,0.1-0.6,0.3c0.3,0.6-0.3,0.8-0.7,1
		l0.1,1.2c-0.5,0-0.6-0.5-0.8-0.9c0.1-0.5-0.5-0.4-0.6-0.8C218.3,48.7,218.4,47.2,219.8,46.9z M229.5,35c0.5-3.4,4-5,6-7.4
		c0,1.4-1.1,2.4-2,3.4L229.5,35z M234,25.5c-0.1,2-2.2,3-3.6,4.1C231.1,27.9,232.4,26.2,234,25.5z M235.1,23.8
		c1.5-0.2,3,0.2,4.1,1.3c0.1-0.2,0.4-0.3,0.5-0.5c0,0,0-0.1,0-0.2c0.9-0.3,2-0.6,3-0.6c1.2-0.1,2.5,0.1,3.8,0.3
		c0.1,0.2,0.2,0.5,0.5,0.5c0.6-0.3,1-1.1,1.7-1.4c0.6-0.2,1.4-0.3,2-0.3c-0.2,0.9-0.2,1.8-1,2.5c-0.3,0.4-0.9,0.1-1,0.6
		c1.1,1.6,1,4.1,0.6,5.9c-0.2,0.4-0.4,0.8-1.2,1c-0.3,0.1-0.7,0.1-0.7,0.1l-0.1,0.3l1,0.6l-0.1,0.6l-0.9-0.4l-0.1,0.5l1,0.6
		l-0.1,0.5l-1-0.4l-0.2,0.6l1,0.6l-0.2,0.9l-3-1.2c0,0,0-1.3,0-1.4c0.5-0.2,1-0.7,1.1-1.2c0.1-0.3,0.1-0.8-0.1-1
		c-0.6,0.4-1.1,0.6-1.8,0.7c-0.9,0.1-1.5-0.2-1.9-0.4c-0.3,0.5-0.1,1,0.2,1.4s1.1,0.6,1.1,0.6v1.4l-2.8,1.3l-0.3-0.8l0.9-0.6
		l-0.2-0.7l-0.9,0.6l-0.2-0.5l1-0.7l-0.2-0.6l-1,0.6l-0.1-0.4l1-0.8l-0.1-0.4c-0.8-0.1-1.9-0.3-2.2-1.3c-0.5-1.5-0.5-3.4-0.4-5
		c0-0.2,0.6-0.4,0.2-0.6c-1.4,0.1-2-1.6-2.5-2.6H235.1z M237.2,20c-0.4-0.2-0.5-0.6-0.5-0.6c0.6-0.5,1.5-1,2.3-1.3c0.1,0,0,1,0,1
		c-0.1,0.2-0.3,0.1-0.6,0.5c-0.3,0.3,0.1,1,0.5,1s0.5,0,0.5,0c0.2,0.6-0.2,0.9-0.7,1.1c-0.6,0.3-0.9-0.5-0.9-0.5l0.5-0.2l-0.6-1.2
		C237.6,19.5,237.4,20.1,237.2,20z M247.3,22.2c-0.1,0.1-0.2,0.2-0.3,0.3c-2.8-0.5-5.9-0.3-8.5,0.5c-0.1-0.1-0.3-0.1-0.4-0.3
		C240.7,21.7,244.4,21.6,247.3,22.2z M245.5,17.5l-0.5,0.9c-0.3,0.1-0.8-0.1-0.8,0.4c-0.2,0.7,0.2,1.2,0.8,1c0,0.3-0.2,0.7-0.6,0.8
		c-0.4,0.2-0.9-0.1-1.1-0.5v-0.3h0.5v-1.5h-0.5v-0.6c0,0-0.5-0.1-0.8-0.1s-0.6,0.1-0.6,0.1v0.7h-0.5v1.5h0.6c0,0,0,0.8-0.4,0.9
		c-0.8,0.2-1,0.1-1.2-0.4v-0.3c0,0,0.7,0,0.7-0.6c0-0.4,0-0.8-0.5-0.8c-0.3,0-0.3,0.1-0.6,0.1c0,0-0.3-1-0.3-1.1
		C241.4,17.2,243.5,16.9,245.5,17.5z M245.9,19.9c0.5,0.3,1-0.1,1-0.5s-0.5-0.7-0.8-0.7l-0.1-1l2.1,0.9l-0.1,0.6l-0.6-0.3l-0.4,1.2
		l0.4,0.2c0,0-0.2,0.8-1.2,0.6C245.8,20.9,245.8,20.3,245.9,19.9z M256.8,32.5c-2.1-2.1-5.9-2.9-6.2-6.2
		C252.5,28.8,256.1,29.3,256.8,32.5z M256,28.2c-1.4-1-4.1-1.6-4.2-3.9C253.8,24.8,255,26.6,256,28.2z M253,44
		c-1.2-0.3-3-0.3-3.8-1.8c-0.6-1-1-2.6-0.4-3.8C248.9,40.8,251.4,42.4,253,44z M254.8,43.8c-1.8-2.7-5.8-4.4-5.3-8.2
		C250.4,38.8,255.4,40,254.8,43.8z M250.9,29.7c1.9,2.4,5.8,3.7,5.6,7.2C254.8,34.4,250.9,33.1,250.9,29.7z M255.8,40.4
		c-1.7-2.8-6.2-4.1-5.4-7.8C251.7,35.5,255.9,36.9,255.8,40.4z M241.9,41.5h0.6c-0.6,0.5-0.9,1.3-1,2.1h-1.2
		C240.6,42.9,240.9,41.8,241.9,41.5z M245.2,43.2l-2.1,0.2c0.1-0.7,0.3-1.6,0.9-2.1C244.8,41.6,245,42.5,245.2,43.2z M248.1,43.1
		l-1.4-0.1c-0.2-0.6-0.5-1.2-1-1.7C246.8,41.1,247.6,42.3,248.1,43.1z M246.1,39.8l-4.4,0.2c-0.3-0.1-0.5-0.5-0.2-0.8
		c0.7-0.6,1.5-1.2,2.5-1.3c1,0.2,2,0.4,2.6,1.2C246.6,39.5,246.4,39.8,246.1,39.8z M236,46.9l-0.1,1.6l-0.9-0.1
		C235.1,47.8,235.5,47.3,236,46.9z M235.2,45.8c0.6-2.2,4-3.8,3.7-6.6c0.6,0.8,0.7,2.1,0.4,3C238.6,44,236.5,44.6,235.2,45.8z
		 M234,48.2l-0.9-0.1c0.1-0.2,0.3-0.4,0.5-0.6C233.9,47.6,233.9,48,234,48.2z M233.5,45.1c-0.8-2.7,2.1-4.4,3.3-6.6
		c0.5-0.7,0.7-1.5,1-2.4C238.9,39.9,234.9,42.1,233.5,45.1z M230.7,38.9c-0.5-3.6,3.5-5.6,4.9-8.2C235.5,34,232.1,36,230.7,38.9z
		 M236.4,33.6c1,3.8-3.8,5.7-4.4,9.1C231.4,38.9,235.1,36.7,236.4,33.6z M259,41c0.4-0.5,0-1.2-0.1-1.8l-0.7-2.5
		c5,0.9,9.5,3.8,14.7,4.5c0.2,0.8,1.1,1.4,1.8,1.7l1.8,0.1c0.1,1.6,0.7,3,1.7,4.2c-0.7,0.8-1.2,1.8-1.7,2.6
		c-4.3-0.6-8.7-1.7-13.3-1.2c0.8-1.2,0.3-2.7,0-4c-0.7-0.5-1-1.8-2.1-1.9c-0.7,0.8,0.8,1.5,0.8,2.4c0.4,1.3,0.1,2.7-0.6,3.7
		c-1.1,0.5-3,1.1-3,2.8c-2.4,0-4.6-0.4-6.9-0.7c-1-0.9-1.7-2.4-3.3-2.1c-0.3-0.1-0.6-0.2-1-0.1c0.2,0.9-1.3,0.6-0.7,1.6
		c-0.8,0.3-0.5-1-1.1-1.3c0.1-0.4,0.6-1.1-0.1-1.3c-0.3-0.1-0.6,0.3-0.6,0.5c0.5,0.9-1.2,0.8-0.5,1.7c-0.3,0.1-0.7-0.2-0.7-0.5
		c0.1-0.5-0.7-0.8-0.3-1.4c0.2-0.1,0.2-0.4,0-0.6c-0.1-0.3-0.5-0.1-0.7,0c-0.4,0.4,0.3,1.5-0.7,1.4v0.6c-1,0.2-0.5-1-1.2-1.3
		c0-0.5,0.8-1.1,0.1-1.4c-0.3,0-0.6,0.2-0.7,0.5c0,0.4-0.2,0.9-0.7,0.9v0.8c-1,0.2-0.4-1.1-1.2-1.4c0.1-1,0.6-2.1,1.5-2.5
		c4,0.4,8.4-1.9,12,0.6c1.6-0.9,4.3,1,5.1-1.4l0.3-1.5c0.5,0.4,1,1,1.6,1.3c0.4-0.4,0-0.8,0-1.2c-0.4-1.2-0.8-2.4-0.9-3.7
		C257.9,39.6,258.2,40.6,259,41z M274.4,38.3c0.7-0.9,1.6-1.2,2.6-1.3c0.9,0.1,1.8,0.3,2.4,1.2c1.4,2-0.8,5.5,2.1,8.2
		c-0.7-0.2-1.2,0.2-1.9,0.1c-1.8-1.6-1.6-4.2-1.3-6.4c-0.1-0.4-0.3-1-0.9-1.2c-0.6-0.1-1.4,0-1.7,0.6c-0.1,0.4,0,1,0.5,1.1
		c0.2,0,0.3-0.2,0.4-0.3c-0.1-0.2-0.2-0.3-0.1-0.6c0.1-0.2,0.5-0.2,0.7-0.1c0.4,0.3,0.2,0.8,0.1,1.2c-0.5,0.5-1.2,0.7-1.9,0.5
		c-0.4-0.2-1-0.6-1.2-1.1C274,39.7,274.1,38.9,274.4,38.3z M274.5,32.3c-3.9,0.5-9.3,4.2-12.3-0.4c-0.8-1.5-0.6-3.6,0.4-4.9
		c3.5-3.7,8.2,0.4,12.2-0.7c0.6-0.5,1.2-1.1,1.2-1.9v-1c0.5,0.7,0.5,1.9,0.1,2.7c-0.2,0.6-0.9,1.2-1.5,1.4
		c-3.5,0.5-6.7-2.1-10.1-0.5c-0.9,0.7-1.4,1.7-1.4,2.8c0,0.8,0.2,1.5,0.7,2c2.9,2.5,6.3-0.3,9.4-0.6c1.7-0.2,3.4,0.2,4.4,1.5
		c-0.1,0.2-0.4,0.5-0.6,0.7C276.2,32.8,275.5,32.3,274.5,32.3z M271.7,30.9c-1.9,0.3-3.8,1.4-5.7,0.8c-0.5-0.2-0.5-0.9-0.3-1.4
		c0.5-0.7,1.5-0.3,2.3-0.3L271.7,30.9z M276.3,28.7c-0.9,0.7-2.1,0.8-3.3,0.6c-2.9,0-5.8-2.4-8.5-0.4l-0.3,0.4
		c-0.1-0.4,0.1-1.4,0.8-1.6c3.9-1.8,10.8,4.3,12-2.6C277.5,26.4,277.3,27.9,276.3,28.7z M280.8,31.5c0.5-0.3,1.2-0.4,1.8-0.1
		c0.7,0.3,1.4,0.9,1.4,1.8c0,3-1.3,5.3-1.1,8.7c0.1,2.1,0.3,3.7,0.9,5.3c-2.8-2-3-4.1-2.9-7.9c0-1.2-1-2.1-2-2.7
		c-0.8-0.5-1.6-0.3-2.3-0.3C278.2,34.8,279.6,33.2,280.8,31.5z M284.7,25.6c0.3,1.4,2,2.2,3.3,2.4c-1.1,1-1.5,3-3.2,3.3
		c-1.1,0.1-2.1-0.7-2.5-1.7C281.7,27.5,283.8,27.2,284.7,25.6z M284.2,41.3c0-3.3,0.8-6.7,2.5-9.5c0.8-1.3,1.7-2.3,1.7-2.3v-2.4
		c-0.9-0.1-1.9-0.4-2.5-1.2c-0.6-0.7-0.9-1.3-0.9-2.4c0-1.2,0.8-2.4,2.1-2.7c1.2-0.4,2.4-0.1,3.2,0.7c0.6,0.7,0.7,1.3,0.7,2.1
		c0,1-0.7,1.8-1.5,1.8c-0.5,0-1.1-0.1-1.5-0.7c-0.3-0.5-0.3-1.3,0.3-1.3c0.7,0,0.1,0.5,0.5,0.7c0.2,0.1,0.6,0.1,0.7-0.2
		c0.1-0.3,0.1-0.7-0.2-0.9c-0.3-0.4-0.8-0.5-1.3-0.3c-0.7,0.2-1,1.1-0.8,1.8c0.3,1.1,0.9,1.4,1.8,1.5h3l1.7-1.1l2.1-1
		c0,0-0.2-1-0.5-1.3l-2.6,1.4c-0.1-1.4-0.7-3-1.8-3.9c-1.1-0.9-3-1.3-4.7-0.6c-2,0.8-2.9,2.8-2.8,4.8c-1.3,1.7-4.1,3.1-2.9,5.6
		c-1.2,0-1.8,1.4-2.6,2.1l-1.6-1.3l1.3-0.9c1.1-1.3,1.7-3.3,1-5c-0.5-1.8-2.1-3.6-4.1-3.9c-0.9-0.2-1.7,0-2.4,0.5
		c-0.4,0.4-0.5,1.1-0.5,1.7c0.2,0.6,0.7,1.1,1.3,1c0.8-0.2-0.3-0.6,0-1.1c0.1-0.4,0.6-0.4,1-0.4c0.6,0.2,0.9,0.9,0.8,1.5
		c-0.2,0.5-0.7,0.8-1.2,0.9c-3.5-0.1-7.3-2.7-10.5-0.3c-1.8,0.9-2.8,2.8-3,4.6c-0.1,2,0.6,3.7,2.1,4.9c3.4,2.8,8.2,0.6,11.8-0.3
		c0.6-0.2,1.5-0.2,1.8,0.5c-1.5,1.4-3.2,3-3.3,5c-5-1-9.3-3.4-14.3-4.5c-0.6,0-0.7-0.7-0.9-1l1.9,0.6l0.1-0.2
		c-0.8-1.5-1.4-3.1-2.1-4.5c0.6,0,1.1,0.6,1.8,0.5V30c-2.3-2.5-3.2-6.7-6.9-7.3c-0.1-0.7,0.3-1.4,0.3-2.1h-0.4l-3.7,1l-0.1-0.1
		c0.2-1,0.9-1.9,1.5-2.8c-0.3-0.4,0.4-0.7,0.2-1.2c-0.1-0.6-0.9-0.6-1.4-0.5c0.1-1.7-1.6,0.1-1.9-1.2c-0.3-0.2-0.8-0.1-1.1,0.1
		l-0.4-0.6c-0.4-0.1-0.9,0-1.1,0.1c-0.2-0.9-1.2-1.4-0.8-2.4c0.4,0,0.7,0.1,1.1,0.1c0.1-0.4,0.1-1.1,0-1.5h-1.3v-1.4
		c-0.5-0.1-1,0.1-1.6,0.1c0,0.4,0.2,1,0.2,1.5H240c-0.1,0.5,0.1,1,0.1,1.5c0.4,0,0.8-0.4,1.3-0.1c0.3,1-0.5,1.6-0.6,2.5l-0.1-0.1
		c-0.4,0-0.7-0.1-1,0.1c-0.1,1.3-1.1-0.4-1.6,0.6c0.1,1.3-1.2-0.2-1.5,0.8c0.2,1.2-0.9,0.3-1.3,1c-0.4,0.5,0.4,1,0.1,1.5
		c0.9,0.6,1.6,1.7,1.9,2.7c-1.3-0.3-3-0.1-4.2-0.6c0.1,0.8,0.6,1.4,0.6,2.2c-2.3,0.6-3.8,2.9-4.3,5.1c-0.3,1.2-1.4,2.1-1.4,3.4
		c0.5,0,0.9-0.6,1.3-0.4c-0.4,1.8-1.5,3.3-1.6,5.1c0.5,0.3,1.1-0.7,1.8-0.7c-0.2,1.9,0,3.8-0.6,5.6c0.4,0.8,1.1-0.7,1.7-0.6
		c-0.1,0.6,0.2,1.4,0,2c-4.2,0.2-8,1.6-12,2.2c-1.5,0.6-1.6,2.4-2.1,3.7c-0.3,1.1,1.4,1,1.1,2.1c-6.6,0.1-12.9-0.9-19.1-1.5
		c2.8,2.2,5.8,4,8.9,5.6v0.1c-3.3,1.5-6.8,2.3-10.3,3.3c8.8,1.2,17.7,2.1,27,1.8c3.4-0.1,6.9-0.2,10.1-1c0.7-0.5,0.2-1.5,0.5-2.1
		c10.3,1.3,20.6,5,31.6,2.8c1.5,0,0.6-1.7,1-2.4c5,0.1,9.7,2.2,14.8,1.3c0.8,1.2,2.1,1.8,3.5,1.5c2.4-0.3,3.7-3.9,6.5-2.6
		c2.1,1.4,6,3.1,9.6,3.2l-1.4-1.5C289.6,58.1,284.2,49.4,284.2,41.3z"/>
	<path class="st0" d="M253.9,54.8v-0.5l-2.7-0.4v0.6h0.3v2.4c-0.2,0.4-0.7,0.4-1.1,0.4c-1,0-0.6-3.7-0.6-3.7l-2.4-0.3v0.6
		c0,0,0.3,0.1,0.4,0.2c0.1,1.2-0.3,2.7,0.8,3.5c0.8,0.5,2,0.7,3,0.2l0.3,0.4l1.9,0.3v-0.6l-0.4-0.1v-2.9L253.9,54.8z"/>
	<path class="st0" d="M245.2,56c-0.4,0.1-1.5,0-1.5,0v-1.2c0,0,0.4,0.1,0.6,0.2c0.2,0.2,0.4,0.6,0.8,0.4c-0.1,0,0-1.4,0-1.4
		c-0.1-0.1-0.5-0.1-0.6,0.2c-0.2,0.1-0.8,0-0.8,0v-1.1c0,0,1.4,0,1.9,0.6c0.2,0.3,0.3,0.8,0.3,0.8h0.7l-0.2-1.5l-5-0.9v0.6l0.5,0.2
		v2.9l-0.6-0.1v0.6l4.8,0.9l0.5-1.5l-0.6-0.2C245.9,55.7,245.6,55.9,245.2,56z"/>
	<path class="st0" d="M269.7,51.4v1.7h0.3c0,0,0.3-0.5,0.6-0.7c0.2-0.1,0.8,0,0.8,0v2.9h-0.6v0.5l2.8,0.5v-0.4l-0.5-0.3v-2.9
		c0,0,0.5,0.1,0.7,0.3c0.2,0.3,0.6,0.9,0.6,0.9h0.5v-1.7L269.7,51.4z"/>
	<path class="st0" d="M267.9,54.6c-0.7,0.4-1.6,0-1.6,0v-1c0,0,0.9-0.2,0.9,0.3h0.4v-1.3h-0.4c0,0-0.2,0.6-1,0.4v-1
		c0.4-0.2,0.9-0.3,1.4,0c0.4,0.2,0.7,0.9,0.7,0.9h0.5l-0.3-1.5h-4.8V52l0.5,0.1v2.8l-0.5,0.2v0.5h4.8l0.4-1.2l-0.6-0.1
		C268.2,54.2,268,54.5,267.9,54.6z"/>
	<path class="st0" d="M237.6,51.9l0.6,0.3V55c-0.1,0.1-0.6,0-0.6,0l-0.1,0.5l3,0.6v-0.6l-0.5-0.1v-2.9h0.5V52l-3-0.6v0.5H237.6z"/>
	<path class="st0" d="M276.4,46.3l-0.3-0.7l-7.4-1.3l0.3,0.4C271.4,45.3,273.9,46,276.4,46.3z"/>
	<path class="st0" d="M276.5,47.8l0.4-0.6c-3.4-0.5-6.7-1.1-10-1.9l0.3,0.4C270.3,46.6,273.3,47.4,276.5,47.8z"/>
	<path class="st0" d="M275.9,44.7c0-0.2,0.1-0.6-0.2-0.7c-1.8-0.3-3.8-0.4-5.5-0.7l0.2,0.3C272.2,44,274,44.5,275.9,44.7z"/>
	<path class="st0" d="M308.8,24.5c-3.5,0.9-8.1,1-11.6,0v-1.1c3.2-1.3,8.4-1.3,11.6-0.2V24.5z M296.1,22.4l-0.3,0.1
		c0.9,0.8,0,2.1,1,2.8c3.7,1.1,8.4,0.9,12-0.1c1.3-0.5,0.1-2.2,1.1-2.9C305.6,20.7,300.3,20.8,296.1,22.4z"/>
	<path class="st0" d="M298.3,15.2c-0.7,0.4-0.6,0.7-0.7,0.9c0,0.3,0.4,0.9,0.4,0.9s-0.7-0.2-0.9,0c-0.5,0.4-0.3,0.8-0.3,1.3
		c0,0.3,0.2,0.4,0.4,0.6c0.3-0.3,0.4-0.4,1.1-0.4c0.2,0.6-0.1,1.4-0.9,1.7c-0.9,0.3-1.3-0.2-1.6-0.8c0.2-0.2,0.3-0.2,0.9-0.3
		l-0.8-1.8l-0.9,0.8l-0.3-0.5l-0.1-0.6C295.5,16.4,297.2,15.5,298.3,15.2z M307.5,15.2c-1.1,0-1.2,0.9-1,1.5
		c-0.2-0.2-0.8-0.5-1.2-0.2c-0.6,0.4-0.4,1.2-0.2,1.8c0.3-0.3,0.8-0.3,1.2-0.1c-0.1,0.7-0.4,1.3-1.4,1.3c-1.2,0-1.2-1.1-1.2-1.3
		c0.3,0,0.5,0,0.9,0.1c-0.2-0.7-0.2-1.5,0-2.1h-0.9l0.2-1.1h-2.3l0.2,1.1c-0.4,0-0.6,0-0.9,0c0.3,0.7,0.5,1.5,0.2,2
		c0.3,0,0.6,0,0.9-0.1c0.1,0.4-0.1,1.3-1,1.4c-0.9,0.1-1.3-0.4-1.4-1.2c0.4-0.2,0.6-0.2,0.9,0c0.1-0.1,0.3-0.4,0.3-0.6
		c-0.1-0.5-0.1-1-0.6-1.2c-0.4-0.1-0.9,0.2-0.9,0.2s0.1-0.7-0.1-1c-0.1-0.3-0.5-0.6-0.9-0.6C300.9,14.3,304.7,14,307.5,15.2z
		 M310.9,16.9l-0.3,1c-0.4-0.3-0.5-0.4-0.8-0.6l-0.9,1.7c0.3,0.1,0.7,0.1,0.9,0.4c-0.4,0.7-1,1.1-1.7,0.8c-0.9-0.4-0.7-1-0.6-1.7
		c0.5,0,0.7,0.1,0.9,0.4c0.3-0.3,0.8-0.8,0.6-1.5c-0.1-0.4-0.8-0.4-1.1-0.3c0.4-0.6,0.5-1.3-0.3-1.7
		C308.7,15.6,309.9,16.2,310.9,16.9z M293,17.3l-0.2,0.2c1.3,1.2,2.1,2.7,2.7,4.2c4.5-1.6,10.4-1.8,14.8-0.1
		c0.4-0.9,0.6-1.8,1.2-2.6c0.3-0.6,1.3-1.6,1.3-1.6l-0.3-0.2c0,0,0.4-0.3,0.4-0.6c0.1-0.6,0.2-1.2-0.2-1.5c-0.5-0.3-1.1-0.2-1.6-0.1
		c0-0.4-0.1-0.8-0.4-1.1c-0.5-0.5-1.3-0.1-1.7,0c0-0.4-0.2-0.7-0.5-1c-0.5-0.2-1.1,0-1.5,0.3c-0.2-0.3-0.3-0.7-0.6-0.9
		c-0.5-0.4-1.2-0.1-1.6,0.2l-0.3-1l-0.6-1.3l-0.2-1.3l1.7,0.4V6.9l-1.7,0.5l0.3-2.5h-2.7l0.3,2.5l-1.9-0.5v2.4l1.9-0.4l-0.2,1.4
		l-0.5,1.2l-0.2,1c-0.3-0.2-0.7-0.4-1.2-0.4c-0.6,0-0.8,0.6-1,1c-0.3-0.3-0.8-0.5-1.3-0.4c-0.6,0.2-0.8,0.8-1,1.2l-0.3-0.2
		c-0.5-0.1-1.2-0.1-1.5,0.5c-0.3,0.2,0.2,1.1-0.4,0.8c-0.5-0.3-1.2-0.1-1.5,0.4C292.2,16.2,292.5,17,293,17.3z"/>
	<path class="st0" d="M298.7,24.6l1.6,0.2l0.3-0.2c1.6-0.2,3.1-0.2,4.8,0l0.2,0.3l1.5-0.3C304.6,23.8,301.2,23.8,298.7,24.6z"/>
	<path class="st0" d="M253.2,49.8c1.7,0.2,3.6-0.2,5.4-0.3c1.3-0.6,1.2-2.5,0.9-3.7c-0.1,0-0.3,0.1-0.4,0.1
		c-0.3,0.9,0.1,2.3-0.8,2.8l-5,0.6L253.2,49.8z"/>
	<path class="st0" d="M275.9,49.2c0.2-0.2,0.1-0.5,0.2-0.7c-3.1-0.5-6.2-0.9-9.2-1.7c0,0.1,0.1,0.3,0.2,0.4
		C269.9,48.2,272.9,48.7,275.9,49.2z"/>
	<path class="st0" d="M341.7,55c0,0,1.2,0,1.5,0v-0.5h-0.4v-2l2.5,2.8h0.7v-3.6h0.3v-0.6h-1.4v0.5h0.4v1.1l-1.8-1.7l-2.4-0.1
		l0.1,0.6h0.9v2.9h-0.4V55z"/>
	<path class="st0" d="M338.5,54.9c-0.6,0.1-0.9-0.5-1-1.4c-0.1-1-0.5-2,0.6-2.1c0.8-0.1,0.8,0.9,0.9,1.6
		C339.1,53.9,339.1,54.8,338.5,54.9z M338.4,51c-0.8,0.1-1.6,0.2-2.1,0.8c-0.5,0.5-0.7,1.2-0.5,2c0.1,0.6,0.6,1.1,1.2,1.4
		c0.9,0.3,2,0.2,2.8-0.1c1.1-0.5,1.4-1.8,1-2.9C340.2,51.3,339.3,50.9,338.4,51z"/>
	<path class="st0" d="M350.5,48.6c-0.2,0-0.5,0-0.5,0.2c0.2,0.8-0.2,2,0.5,2.6c2,0.3,4,0.8,5.8,1.8c0.1,0.1,0.6,0.3,0.6-0.1
		c-1.6-1.2-3.5-1.9-5.5-2.3C350.4,50.6,351.2,49.2,350.5,48.6z"/>
	<path class="st0" d="M386.8,57.8c0.7-0.2,2-0.4,2.6-1.2c0-1.5-0.6-2.9-0.5-4.5c4.2-0.1,8.3-0.5,12.4-0.8c-2,1.5-4.4,2.3-6.7,3.4
		c1.8,1.2,4.3,1.7,6.5,2.6C396.4,57.7,391.5,58.1,386.8,57.8z M381.9,57.4c0-0.6-0.5-1.4-0.1-1.8c2.2-0.2,4.5-0.2,6.5,0.4
		c-0.1,0.6-1,0.4-1.4,0.7C385.3,57.1,383.6,57.3,381.9,57.4z M367.3,57.9c0-1.6,2.3-0.8,2.8-2.3c0.2-0.8,0.1-1.7-0.4-2.4
		c-1.5-1.6-3.7-0.2-5.4-0.1l-0.9-0.6c7.6-0.9,14.4-4.2,22.5-3.6c0.7,0.2,1.6,0.4,2,1.2c0.1,1.6,0.1,3.4,0.5,5
		C380.9,53.7,374.1,56.5,367.3,57.9z M366.3,53.4c0.4-0.2,1-0.1,1.4,0.2c0.7,0.6,1,2.3-0.1,2.7C367.7,56.3,366.4,53.4,366.3,53.4z
		 M363.7,50.7h0.3v0.1L363.7,50.7z M365,58.9c-1.3,0.7-2.7,0-4-0.1c-1.8-0.2-3.7-0.5-5.3,0.2c-1.3-0.5-2.5-1.2-3.7-2
		c0.6-1.1,2-1.2,3.3-1.3c1.7,0.5,3.2,2,5.3,1.4c0.5,0,1-0.1,1.2-0.6c-0.6-0.9-1.8-0.9-2.7-1.2c-3.4-0.7-6.2-3-9.9-2.8
		c-1.1-1.3-0.3-3.3-0.4-4.9c0.2-0.3,1-0.7,0.6-1.2c-0.1-0.3-0.5-0.2-0.7-0.1l-1.6,1c0.1,0.5,0.1,1,0.1,1.5c-1.1-0.2-2.4-0.6-3.7-0.6
		c-0.3-1,1.1-0.2,1-1.1l0.3-3.8c-0.1-0.7-1.2-0.5-0.6-1.4c0.3,0,0.8,0.3,1.1,0l2.1-3.5c0.1-0.4-0.2-0.7-0.4-0.9l0.5-0.5
		c0.5,0.9,1.6,0,2.4,0c0.8-0.5,2.7,0.1,2.5-1.5v-0.2l0.9-0.1c0,0.7-0.1,1.7-0.6,2.1c-1.3,0.5-3.3,0.1-4.5,0.7l-1.2,2
		c2.7-0.7,5.9-0.6,8.6-1.5c2.8,1.1,5.6,2,8.3,3.6c-1,1.3-0.4,3-0.2,4.5c-0.1,1.8-1.1,3.2-2.4,4.5c-1.1-1.1,0.8-1.9,0.9-3
		c0.2-0.6,0.5-1.7-0.1-2.3c-1,0-0.2,1.3-0.7,1.8c-0.3,0.8-1,1.5-1.2,2.3c-0.6-0.1-1.2-0.8-1.5-1.3c-0.3-0.6,0.8-1.4-0.1-1.8
		c-0.9,0.7-1.8,1.8-2.9,2.2c-0.1,0.1-0.2,0.3-0.1,0.5c0.7,0.8,1.5-0.3,2.2,0.5c2.6,2,5,4.4,7.9,5.6C366.4,56.8,365.4,57.9,365,58.9z
		 M348.9,54.7c0-0.5,0.5-0.6,0.9-0.7c1.6-0.3,2.8,0.6,4.1,1.1c-1,0.2-1.9,0.6-2.8,1.3C350.2,56.2,349.4,55.5,348.9,54.7z M347.6,59
		c0.3-0.2,0.9-0.4,1.1-0.9l-0.1-1.2c0.5,0.4,1,0.8,1.8,0.8c0,0.5,0.6,1,1,1.2L347.6,59z M341.6,58.5l-0.2-1.6
		c2.2-0.1,4.3,0.1,6.2,0.9l-0.1,0.2C345.7,58.7,343.6,58.7,341.6,58.5z M325.9,57.2c0.6-1.2,1.7-2.5,2.8-3.6
		c0.1,0.1,0.4,0.4,0.4,0.4v1.9h-0.4v0.5h1.5V56l-0.4-0.1v-1.2l1.5,1.6l1.4-2.1l0.2,1.4c0,0-0.3,0.1-0.5,0.1c0,0.2,0,0.6,0,0.6
		l2.7-0.5l-0.1-0.7c0,0-0.4,0.1-0.5,0.1l-0.4-2.6l0.5-0.1l-0.1-0.7l-1.7,0.3l-1.1,2.2l-1.8-1.9h-0.5l0.3-0.7
		c5.4-0.6,11.1-2.5,16.7-0.9c0.5,0.2,0.8,0.5,0.9,0.9c0.5,1.2-0.3,3.1,0.2,4.5c0.1,0.2,0.1,0.4,0.1,0.7
		C340.3,54.1,333.4,58.5,325.9,57.2z M324.8,55.9c-0.2-0.8-1-2.1-2.1-2.6c-0.9-0.4-2.2-0.3-3.1,0.1c1.6-2.3,2.9-6.6,6.7-5.6
		c0.9,0.3,1.7,1.2,1.8,2.1C328.6,52.6,325.3,53.7,324.8,55.9z M323.3,58.3c-0.5,0.6-1.3,0.9-2.2,0.7c-0.6-0.2-1-0.7-1.2-1.3
		c-0.1-0.5,0-1,0.5-1.2c0.3,0,0.6,0,0.7,0.3s-0.5,0.7,0,0.9c0.3,0,0.6-0.3,0.7-0.6c0.1-0.6-0.2-1.2-0.8-1.5c-0.5-0.1-1.1,0-1.5,0.3
		c-0.5,0.3-0.4,0.9-0.5,1.4c-0.7-0.6-1.6-0.9-2.5-0.9c1.6-1.4,3.3-3.2,5.6-2.6c0.8,0.3,1.7,1.2,1.7,2.1
		C323.9,56.9,323.8,57.7,323.3,58.3z M322,33.8c0-0.7,0.2-1.7,0.9-2.3c0.7-0.5,1.3-0.8,2.1-0.4l4.8,5c-1.4-0.3-2.8,0.1-3.8,1.3
		c-1.7,2.2,0.3,5.7-1.5,7.9l-1.7,1.7C324.1,42.7,323.7,37.6,322,33.8z M321.4,30.9c-1.4-0.5-1.9-1.6-3-3c1.1-0.2,2.3-1,2.8-2.1
		c0-0.2,0.2-0.3,0.2-0.5c1.3,1.3,3.9,2.9,2.2,4.9C322.9,30.7,322.2,31.2,321.4,30.9z M342,31.2c0.9-0.8,1.5-1.8,1.2-3
		c0.1-1-1-1.6-1.5-2.2c-3.5-1.4-6.7,1.2-10.3,0.6c-0.7-0.3-1.3-1.1-1.3-2v-0.1c0.4,0.7,1.2,1.3,2.1,1.3c3.9-0.1,9.3-3.4,12.1,0.8
		c0.5,0.9,0.6,2.3,0.3,3.4c-0.2,1-1.2,2-2.1,2.5c-4.5,2.4-9.1-3.1-13.4,0.3l-0.6-0.5C332.3,28.1,337.4,33.5,342,31.2z M341.4,30
		c0,0.4-0.5,0.9-0.9,0.9c-2.1,0.3-4.2-0.3-6.2-0.8c2.1-0.4,4.2-1.3,6.5-0.9C341.2,29.4,341.3,29.7,341.4,30z M327.8,27.5
		c4.1,3,8.5-0.6,12.9-0.2c1,0.3,1.8,1.3,1.5,2.4c-0.1-0.6-0.8-1.2-1.4-1.3C336.4,27.7,331,32.2,327.8,27.5z M330.9,37.3
		c0.5,0.4,0.9,1,1.1,1.6c0.1,0.8-0.2,1.4-0.7,1.9c-0.4,0.5-1.1,0.5-1.7,0.4c-0.4-0.1-0.7-0.6-0.9-1c-0.1-0.4,0.1-0.8,0.5-0.9
		c0.9-0.2,0.1,1.5,1.1,0.8c0.2-0.3,0.1-0.9-0.1-1.2c-0.3-0.3-1-0.5-1.5-0.3c-1.6,1.1-0.1,3-0.5,4.6c-0.1,1.2-0.6,2.2-1.6,3
		c-0.5-0.2-1.3-0.2-1.8,0c1.6-1.8,1.5-4.5,1.4-6.9c0.1-0.8,0.6-1.6,1.3-2.1C328.6,36.7,329.9,36.7,330.9,37.3z M342.5,43.9l1,0.1
		l-0.2,2.5l-1-0.1L342.5,43.9z M343.8,40c0.5-0.6,0.7-1.3,1.2-1.9l0.8,0.5c-0.3,0.8-0.7,1.5-1.2,2.2C344.3,40.5,343.5,40.4,343.8,40
		z M350.7,34.7c0.3,0.1,0.2,0.6,0.3,0.9c-0.7,0.4-1.6,0.4-2.4,0.6c-0.1-0.3-0.2-0.7-0.1-1L350.7,34.7z M358,36.2
		c0.4,0.2,0.8,0.1,0.9-0.3c-0.2-1.5,1.1-2.7,1.4-4.1c1.1,0,2.1-0.7,2.6-1.7c0.2-0.6,0.4-1.5,0.1-2.2c-0.1-0.1-0.4-0.4-0.5-0.1
		c-0.1,0.8-0.5,1.9-1.5,2.2c-1.5,0.5-3.3,0-4.8-0.2c-1.4,0.3-3,0.3-4.1,1.5c-0.4,0.3-1.1,0.2-1.5-0.1c-0.2-0.2-0.5-0.6-0.1-0.8
		c0.5-0.3,1.4,0,1.8-0.6c0.1-0.5-0.3-1-0.8-1.2c-1-0.6-2.5,1.7-2.4-0.4l0.2-1.4c0.4,0.3,1.1,0.5,1.6,0.3c0.3-0.1,0.6-0.4,0.4-0.7
		c-0.4-0.8-1,0.1-1.6,0c0.1-0.6,0.9-0.7,1.4-0.9c1.9-0.3,3.8-0.9,5.1-2.5c1.3-0.4,2.8,0.6,4-0.2c0.4-1,1.3-2,2.4-2.6
		c0.2,1.2,0.7,2.8-0.3,3.9c0.1,0.3,0.5,0.3,0.9,0.2c0.3-0.2,0.3-0.6,0.5-0.9c3.5,2.1,4.7,5.9,4.1,9.8c-0.5,1.8-1,3.7-2,5.3
		c-0.1,0-0.3-0.5-0.7-0.5c0.1-0.3,0.2-1-0.2-1.3c-0.7,0-1,1.1-1.8,0.7c-0.2,0.2-0.4,0.5-0.4,0.8c0.1,0.2,0.4,0.1,0.5,0.3
		c0,0.4-0.3,0.7-0.7,0.8c-0.5,0-1.1-0.2-1.2-0.8c-0.1-0.2-0.1-0.7,0.1-0.8c0.3,0.1,0.9,0.8,1,0c0-0.5,0.9-1,0.1-1.4l-0.6-0.1
		c0.1-0.3,0.5-0.4,0.4-0.8c-0.5-0.3-1-0.6-1.7-0.6c-0.2,0.2-0.1,0.5-0.1,0.8c-0.3,0.1-0.5-0.4-0.8-0.3c-0.2,0.5-0.4,1.1-0.6,1.6
		l0.9,0.3c-0.3,0.5-0.9,0.8-1.5,0.7c-0.3-0.2-0.7-0.3-0.8-0.7C357.6,36.6,357.8,36.3,358,36.2z M360.4,18.1c0.7-0.9,1.8-1.7,2.8-2.1
		c0,1.8-1.5,3.2-2.9,4.1C359.8,19.5,360.2,18.7,360.4,18.1z M367.4,17c0,1.9-2,2.9-2.6,4.6c-0.4-0.1-0.4-0.6-0.6-0.9
		C364,18.7,366,17.7,367.4,17z M370.8,19.3c-0.4,2.2-3,2.4-4.1,4.1c-0.4,0-0.4-0.5-0.5-0.7C366.6,20.4,369.2,20.1,370.8,19.3z
		 M374,23.1c-1.6,1.4-3.9,1.6-5.9,2.1c-0.3-0.1-0.1-0.6-0.1-0.8C369.5,22.8,371.9,23.2,374,23.1z M375.2,26.9
		c-1.5,1.1-4,0.8-5.9,0.6c-0.4-0.1-0.3-0.6,0-0.8C371.1,25.5,373.4,26.6,375.2,26.9z M375.5,30.5c-1.8,0.5-4.6,0.7-5.9-0.7
		c0-0.3,0.3-0.5,0.5-0.6C372.1,29.2,373.8,29.8,375.5,30.5z M374.7,33.9c-1.9,0.5-4,0-5.2-1.5c-0.1-0.3,0.2-0.5,0.4-0.5
		C371.8,32,373.1,33.3,374.7,33.9z M369.1,35.4c-0.1-0.1,0-0.4,0-0.6c0.2-0.2,0.7-0.2,1-0.1l3.2,2.4
		C371.5,37.3,370.1,36.6,369.1,35.4z M368.1,38.1c-0.1-0.3-0.3-0.8-0.1-1.2c0.2,0,0.4,0,0.6,0L371,40
		C369.9,39.8,368.9,39.1,368.1,38.1z M366.8,40.5c-0.1-0.3,0-0.8,0.3-0.9c1.1,0.3,1.5,1.8,2.5,2.5C368.5,42.2,367.3,41.5,366.8,40.5
		z M364.8,40.1c-0.2-0.1-0.4-0.1-0.6-0.3c-0.1-0.3,0.1-0.6,0.3-0.7c0.2,0,0.5,0,0.5,0.3C365.2,39.7,365,39.9,364.8,40.1z
		 M371.4,47.9c0.8,0,1.6,0,2.1,0.5c-3,0.9-6.1,1.6-9.3,2.1C366.5,50,368.9,48.6,371.4,47.9z M398.8,54.6c3.1-1.7,6.1-3.6,8.9-5.8
		c-6.2,0.9-12.2,1.5-18.7,1.5c-0.5-0.1-0.1-0.9-0.4-1.3c-1.8-2.5-5.6-1.8-8.5-1.7c-2-0.2-4.3,2.1-5.7-0.3c-0.9-0.8-2.2-0.6-3.4-0.7
		c-2.1,0.5-4.1,1.8-6.2,2.1c0.6-1.4,0.1-3.1,0-4.6c0.1-0.3,0.1-0.7,0.4-0.9c0.8,1.4,2.3,2.2,3.8,2.1c0.1-0.5-0.8-0.9-0.9-1.5
		c1.3,0.6,3.2,0,4.4,0.7c0-1.1-1.5-2-2.1-2.8c1.2,0,2.2,0,3.2,0.2c-0.3-1.2-1.3-2.5-2.2-3.3h2.3c0.7-0.1,1.5,0,2.2-0.1
		c-0.4-1.2-1.7-2.2-2.8-2.7l2.2-0.3c0.6-0.3,1.6,0,2.2-0.3c-0.9-1.3-2.4-2.1-3.7-2.8l3.3-0.9c0.4,0,1.1,0.1,1.3-0.1
		c-0.9-1.3-2.4-1.9-3.7-2.4v-0.1c0.7-0.1,1.3-0.8,1.9-1.2c0.4-0.3,1.1-0.2,1.4-0.7c-1.2-1.1-2.8-1.3-4.3-1.7c1-0.6,1.8-1.5,2.8-2.1
		v-0.2c-1.5-1-3.6-1-5.5-0.9c0.5-0.6,0.8-1.2,0.9-1.9c0.3-0.6,0.8-1.2,1-1.7c-1.6-0.3-3.3,0.1-4.7,0.7l0.8-3.4l-0.1-0.1
		c-1.6,0-3.2,0.9-4.5,1.8c-0.1-1.1,0.3-2.1,0.5-3c-1.3,0.1-2.5,0.6-3.6,1.2c-1.5,0.8-3.1,2.1-2.9,4c-0.1,0.1-0.4,0-0.3,0.3
		c0.5,0.4,0.7,1.1,0.8,1.7c-0.4-0.3-0.8-0.8-0.9-1.3c-0.3-0.6-1-1.1-1.8-0.8c0.3,0.3,0.7,1,0.7,1.5c-0.9-0.4-0.8-1.4-1.5-2
		c-0.3-0.2-0.9-0.3-1.2-0.1l0.6,1.1l-0.1,0.1c-0.9-0.4-0.8-1.5-1.6-2c-0.3-0.2-1-0.2-1.2,0c0.2,0.4,0.7,0.9,0.7,1.4
		c-1.1-0.4-1.5-2.9-3.1-2c0.3,0.3,0.8,0.7,0.8,1.1c-1-0.2-1-1.3-1.8-1.8c-0.4-0.1-0.9-0.3-1.2-0.1c0.3,0.3,0.5,0.6,0.5,1
		c-0.7-0.1-0.6-0.8-1.2-1.2c-0.3-0.5-0.9-0.7-1.5-0.5c0.1,0.3,0.5,0.6,0.4,0.9c-0.6-0.3-0.6-1.3-1.4-1.4c-0.3,0.1-0.6,0.3-0.5,0.7
		c0.2,0.3,0.5,0.6,0.8,0.8c1.5-0.2,2.2,1.4,3.7,1.1c0.6,0.7,1.4,1,2.4,1c0.6,0.5,1.4,0.9,2.3,0.8c0.7,1.2,2.3,0.1,3,1.4
		c0.5,0.5,1.8-0.1,1.9,0.7h-0.1c-1.8-0.9-3.2,0.6-4.5,1.4c-1.7,0.7-3.9,0.6-5.1,2.1c-0.2,1.5-1,3.4-0.1,4.8c0.2,0.1,0.6,0.2,0.4,0.6
		l1.7,1.8c0.5,0.4,1.4,0.3,2.1,0.2c1.7-1.3,4.3-2,6.3-0.9c-0.1,0.7-0.3,1.5-1.2,1.8c-0.3,0.2-0.2,0.9-0.7,0.6c-0.5,0-0.7,0.6-0.7,1
		l0.5,0.2c0.2,0.2,0.2,0.5,0,0.7c-0.3,0.3-0.8,0.3-1.2,0.2c-0.4-0.2-0.8-0.7-0.6-1.2c0.2,0,0.4,0.3,0.6,0.2c0-0.6,0.3-1,0.3-1.5
		l-0.7-0.1c0-0.3,0.4-0.6,0.3-1c-0.5-0.2-1.2-0.1-1.7-0.1l-0.2,1.1l-1.4,0.1c-0.3-0.2-0.1-0.6-0.5-0.7l-3.3,0.7
		c-0.6,0-1.4,0.5-1,1.2c-0.6,0.5-1.4,2.4-2.4,1.2c-0.8,0.9-1.4,2.2-2.2,3.3c-0.4,0.4-0.1,1.2,0.4,1.3c0,0.5-0.2,1-0.5,1.5
		c-0.4-0.1-0.8,0-1,0.3l-0.3,4.1c0.1,0.4,0.6,0.3,0.9,0.5c0,0.2,0.1,0.5-0.1,0.6c-4.3-0.1-8.1,1.2-12.2,1.3c-0.3-0.9-0.7-2-1.6-2.7
		c1.2-1.1,1.5-2.7,1.8-4.2c1.4,0.1,2.5-0.3,3.4-1.5c2.8,0.1,5.9,0.4,8.7-0.2l-0.1-0.1c-0.5-0.4,0.1-0.8,0.1-1.2
		c-2.7,0.2-5.6,0.2-8.3,0c0.4-2.6-2.2-4-3.6-5.6c0.3-0.3,0.6-0.5,1-0.7c3.5-0.3,6.4,1.8,10,1.3c2.1-0.3,4.6-1.7,5.1-4
		c0.4-1.8,0.4-4.1-0.9-5.5c-2.4-2.7-6.4-2.4-9.5-1.6c-1.5,0.2-3.7,1.3-4.8-0.3c-0.5-0.7-0.2-1.8-0.1-2.5c-0.7-0.1-1.1,0.5-1.5,0.9
		c-1.1,1.4-0.8,3.6-0.2,5c-1.1-0.3-1.7-1.5-2-2.4c-0.6,1.1-0.2,2.6,0.1,3.7c0.5,1.2,2,2,3,2.4c-0.9,0.2-1.6,0.8-2.3,1.2
		c-0.4-0.2-0.6-0.8-1-1.2c-0.3-0.5-1.5-0.3-1.2-1c0.7-2.3-1.4-3.6-2.9-5c-0.3-1.9-1.4-4.4-3.8-5c-1.9-0.5-3.6-0.3-4.8,1.2
		c-0.8,1-1,2-0.9,3.2c-1-0.3-1.9-1.1-2.9-1.2c-0.2,0.4-0.2,0.9-0.1,1.4c1.5,0.5,2.9,1.4,4,2.2h2.6c0.6-0.1,1-0.2,1.4-0.7
		c0.5-0.6,0.6-1.2,0.3-1.8c-0.3-0.6-0.6-0.9-1.4-0.9s-0.9,0.6-0.9,1.1s0.2,0.5,0.5,0.5c0.3-0.1,0.1-0.4,0.3-0.6
		c0.1-0.1,0.2-0.3,0.4-0.2c0.3,0.1,0.4,0.4,0.5,0.7c0.1,0.6-0.3,1.1-0.8,1.3c-0.7,0.3-1.3,0.1-1.8-0.4c-0.7-0.6-0.6-1.4-0.3-2.3
		c0.3-0.8,0.7-1.3,1.5-1.7c1.1-0.5,2.1-0.2,3,0.5c1.3,1,1.9,2.6,1.1,4.1c-0.6,1.1-1.6,1.8-2.8,1.7v2.2c3.6,4.3,4.5,8.3,4.5,12
		c0,8.4-5.6,17.2-16.2,18.9l-1.4,1.5c3.8-0.1,7.2-1.5,10.3-3.5c3.3-1.3,4.4,3.4,7.7,2.6c0.9-0.2,1.8-1.1,2.4-1.9
		c1.8,0.3,3.8,0.5,5.8,0.3c3.4-0.3,6.5-1.3,9.8-1.2c0,0.7-0.1,1.5,0.4,2c4.1,1,8.9,1.1,13.2,0.6c1,0.3,2.3,0.6,3.3,0
		c2.3-0.4,4.3,0.4,6.6,0.4c1.1,0.3,1.8-0.3,2.4-1c4.7-1.2,9.3-2.5,14.2-3.2c0.6,0.1,0.2,1.1,0.4,1.6c0.5,0.9,1.7,0.8,2.6,1
		c8.6,0.8,17.6,0,26-1.4C405.9,56.9,402.2,56,398.8,54.6z"/>
	<path class="st0" d="M329.8,46.2l6.2-1.3c0.5-0.3,1.5-0.1,1.7-0.8c-2.5,0.4-4.9,1-7.4,1.2C329.9,45.4,330,45.9,329.8,46.2z"/>
	<path class="st0" d="M329.8,47.7c2.9-0.5,5.7-1,8.4-1.8c0.3-0.2,0.9-0.2,0.8-0.7c-3.1,1-6.6,1.2-9.7,1.9L329.8,47.7z"/>
	<path class="st0" d="M339,47.2l0.2-0.3c-2.9,0.6-6.1,1.1-9.1,1.6l0.2,0.6C333.3,48.5,336.2,48.1,339,47.2z"/>
	<path class="st0" d="M330.4,44v0.6c1.8-0.2,3.6-0.6,5.3-1.1l0.2-0.3L330.4,44z"/>
	<path class="st0" d="M384.3,50.2l0.6,0.1v3l-0.4,0.1v0.4l2.6,0.3v-0.5l-0.6-0.2l-0.1-3c0,0,0.3,0.1,0.5,0.3
		c0.2,0.2,0.2,0.5,0.2,0.5l0.4,0.1v-1c-1.1-0.4-2.5-0.6-3.8-0.6v1.4l0.4-0.1L384.3,50.2z"/>
	<polygon class="st0" points="383.6,53.1 383.2,53.1 382.9,50.2 383.4,50.2 383.2,49.6 380.6,49.9 380.6,50.4 381,50.4 381.4,53.3 
		381,53.4 381.1,53.9 383.6,53.6 	"/>
	<path class="st0" d="M372.4,53.5c0,0.1-0.3-1.3-0.3-1.3s0.8-0.4,1.1,0.4C373.4,53.2,372.8,53.4,372.4,53.5z M374.6,52.1
		c-0.2-0.8-1.3-0.8-2.4-0.6l-2.1,0.6l0.1,0.4l0.3-0.1l0.7,2.8l-0.3,0.4l0.2,0.4l2.1-0.5l-0.2-0.6h-0.2l-0.2-1c0,0,0.6,0,0.7,0.1
		c0.3,0.4,0.7,1.3,0.7,1.3l1.6-0.5l-1.3-1.5C374.4,53.4,374.9,53.4,374.6,52.1z"/>
	<path class="st0" d="M378.4,54.1c-0.6,0.2-0.8-0.3-1.1-1.3c-0.3-0.9-0.6-1.8,0.1-2s1.1,0.8,1.3,1.6
		C378.9,53.3,379.1,53.9,378.4,54.1z M379,50.4c-0.9-0.2-1.9-0.1-2.7,0.3c-0.9,0.4-1,1.4-0.9,2.3c0.1,0.6,0.6,1.1,1.2,1.4
		c0.8,0.3,1.8,0.2,2.6-0.2c0.7-0.4,1-1.1,1-2C380.2,51.5,379.8,50.7,379,50.4z"/>
	<path class="st0" d="M312.4,52.8l-0.4-0.1c0.2-0.2,0.7-0.3,0.6-0.7c-0.9-0.8-2.1-0.4-3.3-0.5l-0.2-0.1c0.5-0.5,1.4-0.2,2-0.2
		c0.3,0.1,0.6-0.2,0.4-0.5c-0.8,0.2-2,0.1-2.8,0.5c-0.2,0.2-0.1,0.4,0,0.6c1,0.1,2.5-0.3,3.3,0.4l-0.2,0.1c-1.3-0.5-2.8,0.3-4-0.3
		l0.2-0.4c-0.5-0.4-1.2-0.5-1.9-0.4c-0.2,0.3,0.2,0.7-0.1,1.1c-0.6,0-0.3-0.6-0.4-0.9h-0.7c-0.4,0.2,0,0.5-0.1,0.8
		c0.6,0.2,0.8,0.9,1.3,1.3c-0.2,0.3-0.6,0.7-0.8,0.3c-0.3,0.1-0.7,0.2-0.8,0.5c0.6,1.2,1.7,0.1,2.4-0.1l0.2,0.1
		c0.4-0.6,1.2-0.6,1.8-0.8c0.4,0.5-0.4,0.4-0.6,0.7c-0.2,0.2-0.6-0.2-0.8,0.2c0,0.2-0.2,0.3,0,0.5c0.8,0.3,1.4-0.6,2.2-0.5
		c0.6,0,0-0.6,0.4-0.8c0.3-0.3,0.8-0.5,1.1,0l-0.3,0.3c-0.2,0-0.3-0.4-0.6-0.3c-0.1,0.1-0.1,0.2-0.1,0.3c-0.1,0.5,0.5,0.4,0.8,0.6
		C311.4,53.9,312,53.4,312.4,52.8z"/>
	<path class="st0" d="M305,29.8h8.9v9.9H305V29.8z M304.2,40.4h10.6V29h-10.6V40.4z"/>
	<path class="st0" d="M306.2,50.4c0.4,0,0.8-0.5,1.1-0.3c0.2,0,0.1-0.2,0.3-0.2c0.9-0.2,1.8-0.8,2.9-0.6c0,0.1,0,0.3-0.2,0.3
		c-0.4,0.4-1.5,0-1.6,0.8c0.2,0.1,0.3,0.3,0.6,0.2c0.4-0.5,1-0.3,1.6-0.4c1,0.3,0.2-0.8,1-0.9c0.5,0.1,1.3-0.2,1.7,0.3
		c0,0.1,0,0.2-0.2,0.3c-0.1,0.1-0.3,0.1-0.4-0.1c-0.2-0.1-0.4,0-0.5,0.2c0.1,0.6,0.6,0.5,0.9,0.7c0.6-0.3,0.9-1,1-1.7
		c-0.4-0.1-0.8,0-1.1-0.3c0.3,0,0.7-0.2,0.6-0.6c-1-1.1-2.9-0.3-4.3-0.5l-0.2-0.2c0.6-0.6,2,0.1,2.4-0.8c0-0.1-0.2-0.1-0.3-0.1
		c-0.7,0.6-2.1,0-2.5,1c1,1.2,2.7,0,4.1,0.3c0.2,0,0.5,0.2,0.4,0.4c-1.7-0.1-3.7,0.3-5.4-0.1c0.1-0.2,0.2-0.3,0.2-0.5
		c-0.6-0.4-1.5-0.4-2.1-0.5c0,0.4,0.1,0.8-0.1,1.1c-0.1,0.2-0.3,0-0.4-0.1c-0.2-0.2,0-0.4,0.1-0.6c-0.1-0.5-0.5-0.1-0.8-0.3
		c-0.3,0.1-0.1,0.5-0.3,0.7c0.8,0.1,0.7,1.3,1.4,1.5c-0.2,0.2-0.3,0.4-0.6,0.5c-0.2-0.1-0.1-0.3-0.3-0.3c-0.3,0.2-0.8,0.1-0.8,0.6
		C304.7,51.2,305.4,50.1,306.2,50.4z"/>
	<path class="st0" d="M304.7,46.6c0.2,0.1,0.5,0,0.7-0.1c0.7,0.1,1.2-0.7,1.8-0.5c1-0.6,2.2-1,3.5-0.9l-0.2,0.5
		c-0.5,0.2-1.5-0.1-1.7,0.5c0,0.5,0.5,0.3,0.8,0.4c0.5-0.6,1.6,0,2.1-0.5c-0.4-0.4,0.3-0.5,0.5-0.8c0.6,0.3,1.5-0.4,1.8,0.4
		c-0.2,0.5-0.6-0.4-1,0.1c-0.1,0.6,0.5,0.6,0.9,0.8c0.6-0.3,1-1,1-1.7c-0.3-0.1-0.7,0-1-0.3c0.2-0.3,0.8-0.1,0.7-0.6
		c-1.2-1.2-3.2-0.1-4.8-0.6c0-0.1,0-0.1,0-0.2c0.7-0.5,2,0.4,2.3-0.6c-0.1-0.2-0.3-0.1-0.4-0.1c-0.6,0.6-2.1-0.2-2.4,1
		c0.1,0.3,0.4,0.3,0.7,0.4c1.3,0.1,3-0.6,4.1,0.2c-2,0.1-4.2,0.4-6.1-0.1l0.1-0.4c-0.5-0.4-1.3-0.6-2-0.4c0,0.2,0.2,0.4,0.1,0.7
		c-0.1,0.1,0,0.5-0.4,0.4s-0.2-0.5-0.2-0.9c-0.1-0.3-0.5-0.1-0.7-0.2c-0.4,0-0.3,0.5-0.4,0.8c0.6,0.3,0.9,1,1.4,1.5
		c-0.5,0.8-1.2-0.3-1.6,0.6C304.2,46.2,304.6,46.3,304.7,46.6z"/>
	<path class="st0" d="M303.5,59.3V42.1h12.3c0.2,5.7,0.1,10.4-4.9,12.8C308.3,56.2,305.4,57.1,303.5,59.3z M303.5,28.3h12.1v12.9
		h-12.1C303.5,36.9,303.5,28.3,303.5,28.3z M302.6,41.2h-12V28.3h12C302.6,28.3,302.6,36.9,302.6,41.2z M302.6,59.3
		c-2.8-3-6.2-3.1-9.5-6c-2.8-2.5-2.4-7.5-2.4-11.2h12v17.2H302.6z M289.1,49.1c-2.7-4.3-2.7-11.1,0-15.4V49.1z M317.3,33.6
		c1.3,2.3,2,5,2,7.8s-0.7,5.5-2,7.8V33.6z M312.8,55.7c2-1.3,5-4.3,6.4-8c1.6-4.2,1.4-7.5,0.3-11.6c-0.7-2.5-2.3-4.5-2.3-4.5v-4.9
		h-5.5l-1.9-1l-1.1,0.3l1.2,0.7h-13.5l1.3-0.6l-1.2-0.3c0,0-1.4,0.7-2.1,0.9h-5.5v5.2c-2.6,3.9-3.8,9.9-2.1,14.7
		c1.7,4.9,3.6,6.5,6.8,9.1c3.6,1.6,7.1,3.1,9.6,6.6C305,58.8,308.5,57.6,312.8,55.7z"/>
	<path class="st0" d="M291.7,32.9c0.7-0.1,1.6-0.2,2.2-0.8c0.2,0.4,0.3,0,0.6-0.1c1-0.2,1.9-0.9,3-0.5l-0.1,0.1
		c-0.1,0.7-1.2,0.5-1.8,0.6c-0.2,0.6,0.3,0.7,0.7,0.7c0.6-0.5,1.7,0,2.3-0.6c-0.4-0.4,0.3-0.4,0.4-0.8c0.6,0.3,1.5-0.4,1.8,0.4
		l-0.1,0.1c-0.2,0-0.4-0.1-0.6-0.2c-0.1,0.1-0.2,0.2-0.1,0.3c-0.2,0.6,0.5,0.6,0.8,0.7c0.7-0.3,0.8-1.1,0.9-1.8
		c-0.3-0.2-0.7,0.1-0.9-0.2c0.2-0.1,0.8-0.2,0.6-0.7c-0.9-0.9-2.6-0.5-3.8-0.4c-0.2,0-0.6,0-0.6-0.3c0.2-0.3,0.6-0.1,1-0.1
		c0.5,0,1.1,0,0.9-0.6l-0.3-0.1c-0.5,0.6-1.5,0.1-2.1,0.6c-0.1,0.2-0.1,0.6,0.1,0.7c1.3,0.3,2.8-0.4,4.2,0.2c0.1,0.1,0,0.2-0.1,0.3
		c-1.9-0.2-4.1,0.4-5.9-0.2l0.1-0.4c-0.6-0.3-1.3-0.8-2.1-0.4c0,0.3,0.4,0.9-0.2,1.1c-0.7-0.3,0-0.7-0.3-1.1c-0.2,0-0.6-0.1-0.9,0.1
		c-0.5,1,0.9,1.4,1.2,2.2l-0.1,0.1c-0.2,0.1-0.5,0.3-0.5-0.1c-0.4-0.1-0.5,0.3-0.8,0.3C291,32.5,291.6,32.8,291.7,32.9z"/>
	<path class="st0" d="M296,48.3l3.8,2.4l-0.1,0.9l-4.4-2.8l-0.3-0.7C295,47.7,295.6,48.1,296,48.3z M296.2,46.5
		c1.2,0.8,2.5,1.5,3.7,2.4l-0.1,0.8c-1.4-0.6-2.7-1.5-3.9-2.5L296.2,46.5z M297.2,45.3L300,47l-0.1,0.8c-1.1-0.4-2.2-1.3-3.3-1.9
		L297.2,45.3z M300.2,44.7l-0.1,1.3c-0.8-0.2-1.5-0.8-2.1-1.3H300.2z M299.4,53.6c-1.4-0.7-3.3-1.7-3.8-3.5c1.3,0.7,2.6,1.6,3.9,2.4
		C299.4,52.9,299.5,53.3,299.4,53.6z M298.5,54.5c1,0.5,1.7,1.6,2.8,1.8c0.5-4.1,0.4-13.2,0.4-13.2h-5.8c-1.3,0.1-0.5,1.8-1.4,2.4
		c-0.2,0.1-0.7,0.3-0.8-0.1c0-0.4,0.2-0.7,0.5-1c0.1-0.4,0.3-1,0-1.3c-0.4-0.3-1-0.4-1.5-0.3c-0.3,0.2-0.6,0.5-0.7,0.9
		c-0.2,0.6,0,1.3,0.5,1.6c0,0.4-0.3,0.8-0.6,1.1c-0.2,0.3-0.1,0.8,0.2,1.1C292.7,50.6,295.3,53.8,298.5,54.5z"/>
	<path class="st0" d="M313.1,31.1c-0.1-0.4-0.5-0.5-0.8-0.4c-0.9,0.8-1,2.4-0.6,3.5c0,0.7,1.8,1.5,0.7,2c-0.6-0.4-1.4-0.8-1.9-1.5
		c-0.3-0.7,0-1.6,0.3-2.2c0.2-0.6-0.1-1.1,0.3-1.6c-0.3-0.1-0.4-0.3-0.7-0.5c-0.6-0.1-1.5,0-1.9,0.5c-0.1,0.5,0.4,0.4,0.7,0.4
		c0.1,0.4-0.7,0-0.5,0.5l0.5,0.2c-0.3,0.3-0.7,0.6-1.1,0.6c-0.6-0.2-1.2-0.5-1.4-1.2l0.3-0.2c0-0.6-0.6-0.4-0.9-0.6
		c0,0.3-0.6,0.4-0.5,0.8c0.7,0.6,1.2,1.7,2.1,2.3c-0.1,0.1-0.3,0.2-0.5,0.3c-0.2,0.1-0.7,0.1-0.7-0.3c-0.6-0.2-0.3,0.5-0.8,0.6
		c0.2,0.4-0.1,0.5,0,0.9l0.4,0.1c0.7-0.7,1.6-0.4,2.4-0.9l0.5,0.9l-0.7,0.2c-0.6,0.4,0.5,0.8,0,1.3c-0.3,0.3-0.7-0.1-0.8-0.4
		c-0.6-0.2-0.3,0.6-0.8,0.6c-0.3,0.4,0.4,0.4,0.2,0.9c0.1,0.1,0.2,0.2,0.4,0.2c0.3-0.7,1.2-0.5,1.8-0.8c0.3,0,0.8-0.6,0.4-0.9
		c0.3,0,0.5-0.2,0.7,0c-0.3,1.1,1.2,0.8,1.2,1.6c-0.1,0-0.2-0.3-0.4-0.2c-0.3,0.4-0.4,0.9,0,1.3c0.5-0.2,1.3-0.7,1.4-1.4
		c0.1-0.6-0.5-0.7-0.8-1c0-0.2,0.1-0.5,0.1-0.7c0.3,0.2,0.5,0.5,0.9,0.4c0.5-0.1,0.6-0.6,0.5-1c-1-1-1.6-2.3-1.2-3.8
		c0.1-0.2,0.2-0.8,0.6-0.6c0.5,0.5-0.3,1-0.2,1.5c0,0.4,0.4,0.5,0.6,0.8c0.2,0.1,0.6,0.2,0.6-0.1C312.9,32.8,313,31.9,313.1,31.1z"
		/>
	<path class="st0" d="M300.2,35.8c-0.2,0-0.1,0.3-0.1,0.4c0.1,0.4,0.6,0.4,0.9,0.5c0.7-0.4,0.8-1.1,1-1.7c-0.3-0.1-0.8,0.1-1-0.2
		c0.2,0,0.6-0.3,0.6-0.6c-1-1.4-2.9-0.3-4.4-0.7c0.4-0.7,1.6,0,2.1-0.6c0.1-0.1,0-0.4-0.1-0.4c-0.7,0.4-1.7,0.2-2.4,0.6
		c-0.2,0.3-0.2,0.7,0.2,0.8c1.4,0.3,3-0.6,4.1,0.3l-0.1,0.2c-1.9-0.5-3.9,0.3-5.6-0.1c-0.5-0.1,0.1-0.3,0-0.6H295
		c-0.4-0.6-1.3-0.3-1.8-0.4c-0.4,0.3,0.3,0.5,0,0.9c0,0.2-0.3,0.4-0.5,0.1c-0.3-0.2,0-0.5,0-0.8c-0.2-0.4-0.5,0-0.8-0.2
		c-0.2,0.1-0.3,0.4-0.3,0.6c0,0.3,0.3,0.4,0.5,0.5c0.1,0.5,0.9,0.8,0.7,1.3c-0.1,0.1-0.5,0.4-0.6,0c-0.4-0.1-0.5,0.3-0.8,0.4
		c-0.1,0.4,0.2,0.5,0.4,0.7c0.8-0.2,1.7-0.2,2.4-0.7c0.2,0.2,0.2-0.1,0.4-0.2c1-0.2,2-0.8,3.1-0.6c-0.2,0.1,0,0.4-0.2,0.4
		c-0.4,0-0.8,0.5-1.2,0.2c-0.3-0.1-0.4,0.2-0.4,0.5c-0.1,0.4,0.4,0.2,0.7,0.3c0.5-0.5,1.6-0.4,2.4-0.3c-0.5,0.5-1.5,0.1-2.2,0.6
		c-0.1,0.2-0.1,0.5,0.2,0.7c1.3,0.3,2.8-0.4,4.2,0.2c0.1,0.1,0,0.2,0,0.3c-2-0.4-4,0.3-6-0.2c0.1-0.1,0.2-0.3,0.1-0.5h-0.2
		c-0.4-0.6-1.2-0.2-1.8-0.3c-0.1,0.4,0.3,0.8-0.1,1.1c-0.6-0.1-0.3-0.6-0.5-1c-0.2,0-0.5-0.2-0.8,0c-0.1,0.2-0.1,0.6,0,0.8
		c0.6,0.2,0.7,0.9,1.3,1.2l-0.2,0.3c-0.2,0.2-0.5,0-0.7-0.1c-0.3,0.2-0.9,0.3-0.7,0.8c0.2,0.5,0.8,0.2,1.2,0.2
		c0.7,0,1.2-0.6,1.7-0.4c1-0.6,2.1-0.9,3.3-1c0.4,0,0.1,0.3,0.1,0.5c-0.6,0.1-1.1,0.2-1.7,0.2c0,0.2-0.3,0.4,0,0.6
		c0.7,0.3,1.5-0.2,2.4-0.1c1.1,0.1,0.1-0.9,1-1.1c0.6,0.2,1.2-0.2,1.7,0.3c0,0.7-0.5,0-0.8,0.1c-0.1,0-0.1,0.2-0.1,0.3
		c-0.1,0.5,0.5,0.4,0.8,0.6c0.6-0.4,0.8-1.1,0.9-1.8c-0.3,0.1-0.7,0.1-0.9-0.2c0.2-0.1,0.8-0.3,0.6-0.7c-1.1-1-2.8-0.3-4.2-0.4
		l-0.2-0.2l0.2-0.1c0.5-0.3,1.7,0.2,1.9-0.6c0-0.3-0.4-0.1-0.5-0.1c0-0.2,0.1-0.4,0-0.5c0.4-1,1.5-0.3,2.2-0.3
		c0.1,0.1,0.2,0.3,0.1,0.4C300.6,36.1,300.5,35.7,300.2,35.8z"/>
	<path class="st0" d="M365.3,35.4c0,0.2,0.2,0.2,0.4,0.3c1.2-1.5,1.4-3.6,1.4-5.6c-0.2-1.5-0.4-3.1-1.7-4c-0.2,0-0.3,0.2-0.3,0.4
		C367,29,366.3,32.7,365.3,35.4z"/>
	<path class="st0" d="M358.3,24.4l0.7,0.5c-0.2,0.3-0.6,0.3-0.9,0.3C358,25.1,358.3,24.8,358.3,24.4z M356.6,24.9
		c0.1-0.2,0.1-0.5,0.4-0.7l0.1,0.8L356.6,24.9z M357,23.4c-0.8,0-1,0.9-1.5,1.3c0.2,0.5,0.9,0.8,1.5,0.9c1.1,0.3,2.3,0.1,3-0.7
		C359.1,24.4,358.3,23.2,357,23.4z"/>
	<path class="st0" d="M53.2,113.5v-1.7c-4.1,0-6.7-0.9-6.7-5.3V77.4c8.1,0,10,1.5,10.8,7.8h1.9V73.6H23v11.6h1.9
		c0.8-6.4,2.7-7.8,10.8-7.8v29.1c0,4.3-2.6,5.3-6.6,5.3v1.7H53.2z"/>
	<path class="st0" d="M88.3,94.4v12.1c0,3.9-2.1,5.1-5.4,5.3v1.7h21.2v-1.7c-3.9,0-5.4-0.9-5.4-5.3V80.6c0-4.3,1.5-5.3,5.4-5.3v-1.7
		H82.8v1.7c3.4,0.1,5.4,1.4,5.4,5.3v10.5H74.6V80.6c0-3.9,2.1-5.1,5.4-5.3v-1.7H60.5v1.7c2.6,0.6,3.7,0.9,3.7,5.3v25.9
		c0,4.3-1.5,5.3-5.4,5.3v1.7H80v-1.7c-3.4-0.1-5.4-1.4-5.4-5.3V94.4H88.3z"/>
	<path class="st0" d="M139.4,113.5v-11.8H138c-2.2,8.5-4.9,9-8.6,9h-4.9c-2.4,0-2.8-0.8-2.8-2.9V94.3c6,0.1,10.1-0.7,10.5,5h1.5
		V86.6h-1.5c-0.4,5-4.8,4.5-10.5,4.5V76.5h6.3c6.4,0,9.1,2.5,9.7,8.5h1.2V73.7H106v1.7c3.9,0,5.4,0.9,5.4,5.3v25.9
		c0,4.3-1.5,5.3-5.4,5.3v1.7h33.4V113.5z"/>
	<path class="st0" d="M160.2,113.7h1.1c0.3-1,1-1.9,2.2-1.9c2.2,0,4.1,2.7,12.7,2.7c5.6,0,12.5-4.1,12.5-13.5
		c0-13.7-21.9-11.3-21.9-20.5c0-3.4,3.1-5,6.7-5c5.2,0,8.9,4,10.5,9.1h1.2V73.8h-1.7c-0.3,0.9-0.5,1.4-1.3,1.4c-2,0-3.6-2.5-9.3-2.5
		c-7,0-14.3,3-14.3,11.8c0,14.7,22.2,12.6,22.2,21.8c0,3-3.4,5.5-7.5,5.5c-5.5,0-11-4.5-12-10.1h-1.6L160.2,113.7z"/>
	<path class="st0" d="M452.2,113.5v-1.6c-3.3,0-4.6-2.1-4.6-6.4V81.4c0-4.3,0.9-6,4-6v-1.8H433v1.8c3.2,0,4.1,1.7,4.1,6v24.1
		c0,4.3-1.3,6.4-4.7,6.4v1.6H452.2z"/>
	<path class="st0" d="M479.2,113.5l12.4-32v24c0,4.8-0.9,5.9-5.4,6.4v1.6h21v-1.6c-5-0.5-5.4-2.1-5.4-6.4V81.8
		c0-5.3,0.9-5.6,5.4-6.4v-1.8h-16.3l-9.8,25.9l-9.6-25.9h-16.3v1.8c3.8,0,5.3,2.1,5.3,6.4v24.3c0,4.3-0.8,5.1-5.3,5.8v1.6h14.2v-1.6
		c-5.2-0.8-5.4-1.5-5.4-5.8V83.2l12.2,30.3H479.2z"/>
	<path class="st0" d="M543.3,113.5v-11.8h-1.4c-2.2,8.5-4.9,9-8.6,9h-4.9c-2.4,0-2.8-0.8-2.8-2.9V94.3c6,0.1,10.1-0.7,10.5,5h1.5
		V86.6h-1.5c-0.4,5-4.8,4.5-10.5,4.5V76.5h6.3c6.4,0,9.1,2.5,9.7,8.5h1.2V73.7h-32.9v1.7c3.9,0,5.4,0.9,5.4,5.3v26
		c0,4.3-1.5,5.3-5.4,5.3v1.6h33.4V113.5z"/>
	<path class="st0" d="M548.2,113.7h1.1c0.3-1,1-1.9,2.2-1.9s6.4,2.7,12.7,2.7c5.6,0,12.5-4.1,12.5-13.5c0-13.7-21.9-11.3-21.9-20.5
		c0-3.4,3.1-5,6.7-5c5.2,0,8.9,4,10.5,9.1h1.2V73.8h-1.7c-0.3,0.9-0.5,1.4-1.3,1.4c-2,0-3.6-2.5-9.3-2.5c-7,0-14.2,3-14.2,11.8
		c0,14.7,22.1,12.6,22.1,21.8c0,3-3.4,5.5-7.5,5.5c-5.5,0-11-4.5-12-10.1h-1.6L548.2,113.7z"/>
	<path class="st0" d="M425.2,113.5v-1.7c-4.1,0-6.7-0.9-6.7-5.3V77.4c8.1,0,10,1.5,10.8,7.8h1.9V73.6H395v11.6h1.9
		c0.8-6.4,2.7-7.8,10.8-7.8v29.1c0,4.3-2.5,5.3-6.6,5.3v1.7H425.2z"/>
	<path class="st0" d="M231.5,75.5c2.2,0,3,0.6,4.9,2.9v28.1c0,4.3-2,5.3-6.1,5.3v1.8h16.1v-1.8c-4.4,0-6.4-1-6.4-5.3V84.3h0.1
		l22.5,29.3h4.7V81.7c0-4.3,1.4-5.8,5.4-6.1v-1.8H259v1.8c4,0.8,4.8,1.8,4.8,6.1v16.7h-0.1l-18.4-24.6h-28.7v1.8
		c3.6,0.1,5.3,1.8,5.3,5.3v19.5c0,7.4-2.4,10.2-8.4,10.2c-3.8,0-8.4-1.8-8.4-7.7V81c0-4.3,1.5-5.3,5.4-5.3v-1.8h-21v1.8
		c3.9,0,5.4,0.9,5.4,5.3v21.2c0,9.5,6.6,12.7,15.7,12.7c9.9,0,15.2-3.5,15.2-12.8V81C225.7,76.4,227.6,75.5,231.5,75.5z"/>
	<path class="st0" d="M290.5,76.5c10.5-1.2,14.7,7,14.7,16.1c0,13.2-3.5,17.9-11,17.9c-2.5,0-3.7-0.9-3.7-4.1V76.5z M280.2,106.5
		c0,4.3-1.5,5.3-5.4,5.3v1.8h19.9c12.5,0,21-5.2,21-19.9c0-14.8-8.5-20-21-20h-19.9v1.8c3.9,0,5.4,0.9,5.4,5.3V106.5z"/>
	<path class="st0" d="M334.7,97.8h-9.8l4.9-14.5L334.7,97.8z M354.5,111.8c-2.5,0-4.2-1.2-5.2-3.7l-12.7-35.7l-7.3,1.9L318,106.5
		c-1.6,4.2-3.8,5.1-7.2,5.3v1.7h15.8v-1.7c-3.4,0-5.7-1.1-5.7-2.5c0-1.1,0.3-1.9,0.7-3.1l2-4.9h11.9l2.6,5.8
		c0.3,0.8,0.6,1.8,0.6,2.7c0,1.3-1,2.1-2.3,2.1h-3.1v1.7H376v-1.8c-3.9,0-6.1-1-6.1-5.3V94.7l9.4-15c2.4-3.6,3.9-4,7.2-4.3v-1.8
		h-14.4v1.8c2.2,0,3.8,0.6,3.8,2.2c0,1.3-0.6,2.5-1.2,3.5l-6.4,9.6l-5.7-9.7c-0.7-1.4-1.6-2.9-1.6-3.9s0.9-1.7,3.1-1.7v-1.8h-21.2
		v1.8c2.2,0.4,4.7,0.1,6.6,3l10.1,16.3v11.8C359.9,110.8,357.5,111.8,354.5,111.8z"/>
</g>
</svg>
