<svg xmlns="http://www.w3.org/2000/svg" fill="none" viewBox="0 0 119 30" width="100%"><g fill="#bbbbbb" clip-path="url(#a)"><path d="m0 0 11.722 30h2.158L2.16 0H0ZM25.012 15.003a28.32 28.32 0 0 1 1.92.694 6.66 6.66 0 0 1 1.524.849c.425.318.771.724 1.016 1.188.255.514.38 1.081.365 1.652v.031c.037.69-.089 1.38-.366 2.016a4.573 4.573 0 0 1-1.237 1.658c-1.069.884-2.566 1.326-4.492 1.326a10.772 10.772 0 0 1-3.556-.606 12.331 12.331 0 0 1-3.27-1.727l-.031-.032.032-.031 2.158-3.312.033.03a6.467 6.467 0 0 0 2.158 1.497c.812.341 1.687.514 2.571.51 1.249 0 1.873-.39 1.873-1.17a.87.87 0 0 0-.167-.508.912.912 0 0 0-.436-.323c-.463-.207-.94-.383-1.428-.524a1.284 1.284 0 0 0-.302-.077 1.14 1.14 0 0 1-.301-.077 42.015 42.015 0 0 1-1.905-.538 6.51 6.51 0 0 1-1.715-.8 4.247 4.247 0 0 1-1.253-1.296 3.737 3.737 0 0 1-.492-2.017v-.06a4.636 4.636 0 0 1 .413-1.97 4.444 4.444 0 0 1 1.174-1.54 5.405 5.405 0 0 1 1.842-1 7.594 7.594 0 0 1 2.38-.354c1.044.004 2.08.154 3.08.447 1.025.294 1.999.736 2.888 1.312v.06l-1.936 3.426-.031-.03a5.302 5.302 0 0 0-1.81-1.127 6.302 6.302 0 0 0-2.286-.417c-.17.002-.339.012-.507.031-.184.019-.361.07-.524.154-.155.08-.29.19-.397.324a.9.9 0 0 0-.159.571.673.673 0 0 0 .252.51c.196.171.415.317.65.431.29.145.586.274.89.387.328.122.65.235.968.339.07 0 .14.011.206.03.074.021.143.042.207.062M31.423 8.74h4.22v15.428h-4.22V8.739Zm0-6.172h4.22V6.18h-4.22V2.568ZM44.25 11.394h4.667v3.423h-2.73l-1.937-3.423Zm4.667-8.826V6.18h-3.46a1.492 1.492 0 0 0-.718.148c-.222.108-.412.27-.552.469a2.853 2.853 0 0 0-.445 1.697v15.674h-4.22v-9.35h-2.287v-3.424h2.285V8.308a5.47 5.47 0 0 1 .46-2.222 5.836 5.836 0 0 1 3.159-3.07 6.004 6.004 0 0 1 2.317-.448h3.46ZM61.551 10.347v3.425h-2.349l-1.968-3.425h4.317Zm-4.857 8.544c-.004.225.04.449.131.656.09.207.224.393.393.547.164.16.36.286.575.371.216.085.446.127.679.123h3.079v3.58h-3.08a6.098 6.098 0 0 1-2.33-.448 5.895 5.895 0 0 1-3.194-3.071 5.378 5.378 0 0 1-.476-2.252v-4.629h-2.285v-3.421h2.286V4.758h4.22l.002 14.133ZM70.279 8.49a8.05 8.05 0 0 1 3.174.634 8.192 8.192 0 0 1 4.365 4.242c.437.984.659 2.045.65 3.117.003.58-.06 1.16-.188 1.728l-.032.06h-8.062l-2.036-3.146h6.032a4.597 4.597 0 0 0-1.476-2.13 3.749 3.749 0 0 0-2.428-.832 3.939 3.939 0 0 0-1.62.338 4.199 4.199 0 0 0-1.317.907 4.117 4.117 0 0 0-.873 1.353 4.5 4.5 0 0 0-.315 1.707c.005.499.102.993.286 1.46.189.5.468.964.825 1.368.368.416.808.765 1.302 1.03.524.28 1.115.424 1.714.415a5.076 5.076 0 0 0 1.575-.231 2.92 2.92 0 0 0 1.349-1.035l.031-.03.063.03 3.683 1.577-.063.061a7.868 7.868 0 0 1-2.905 2.427 8.305 8.305 0 0 1-3.73.872 8.425 8.425 0 0 1-3.222-.618 8.116 8.116 0 0 1-2.62-1.697 8.123 8.123 0 0 1-1.763-2.53 7.447 7.447 0 0 1-.65-3.085 7.53 7.53 0 0 1 .65-3.117 8.15 8.15 0 0 1 4.38-4.243 8.243 8.243 0 0 1 3.223-.633M97.136 2.568v21.6h-4.254l.032-7.745a3.78 3.78 0 0 0-.365-1.635 4.596 4.596 0 0 0-.952-1.342c-.4-.386-.875-.69-1.397-.896a4.623 4.623 0 0 0-1.73-.324 4.501 4.501 0 0 0-1.715.324c-.518.21-.988.52-1.38.91a4.55 4.55 0 0 0-.937 1.358 4.161 4.161 0 0 0 0 3.333 4.367 4.367 0 0 0 2.317 2.252c.541.23 1.125.345 1.715.34.297 0 .594-.02.889-.061.287-.038.565-.12.825-.245h.063l1.555 2.777-.032.03a6.143 6.143 0 0 1-3.809 1.174 8.363 8.363 0 0 1-3.143-.593 8.177 8.177 0 0 1-2.666-1.722 8.122 8.122 0 0 1-1.764-2.53 7.655 7.655 0 0 1 0-6.171 8.13 8.13 0 0 1 1.764-2.53 8.173 8.173 0 0 1 2.666-1.723 8.358 8.358 0 0 1 3.143-.592 5.842 5.842 0 0 1 2.787.552 5.662 5.662 0 0 1 2.166 1.793V2.568h4.222ZM113.13 0l-11.721 30h2.159L115.29 0h-2.16ZM121.689 1.133a.522.522"></path></g></svg>