<?xml version="1.0" encoding="UTF-8"?>
<svg id="Layer_1" data-name="Layer 1" xmlns="http://www.w3.org/2000/svg" viewBox="0 0 1107 615">
  <path d="M553.5,614.88c-182.62,0-365.24-.02-547.86.12-4.61,0-5.65-1.04-5.64-5.64C.13,408.12.13,206.88,0,5.64,0,1.04,1.04,0,5.64,0c365.24.12,730.48.12,1095.71,0,4.61,0,5.65,1.04,5.64,5.64-.13,201.24-.13,402.48,0,603.73,0,4.6-1.04,5.64-5.64,5.64-182.62-.14-365.24-.12-547.86-.12Z" style="fill: #00000000; stroke-width: 0px;"/>
  <path d="M942.84,336.03c11.96-46.9,23.6-92.22,34.97-137.62,1.32-5.28,3.42-6.99,9.02-6.85,17.79.45,35.61.22,53.41.12,3.42-.02,5.63.03,5.6,4.67-.03,4.37-2.04,4.35-5.22,4.35-9.9,0-9.9.09-9.9,9.86v193.82c0,10.13,0,10.27,10.1,10.21,3.44-.02,5.18.38,4.98,4.53-.16,3.45-1.07,4.43-4.52,4.41-23.13-.15-46.25-.13-69.38-.01-3.43.02-5.02-.4-5.04-4.53-.01-4.38,2.07-4.35,5.26-4.37,13.34-.1,13.34-.17,13.34-13.78v-190.42c-2.12.73-2.06,2.51-2.4,3.82-17.3,67.83-34.59,135.66-51.75,203.52-.97,3.82-2.07,5.66-6.66,5.74-4.85.08-5.63-2.23-6.5-5.92-15.25-64.59-30.56-129.16-45.95-193.72-1.53-6.42-2.18-13.11-5.56-20.35,0,69.63.02,137.99-.06,206.35,0,3.68.99,5.26,4.85,4.87,2.84-.29,5.73-.11,8.59-.04,2.45.06,5.33-1.04,5.07,3.66-.22,4.01-1.44,5.09-5.37,5.01-11.66-.26-23.33-.19-35-.03-3.24.04-4.78-.52-4.73-4.27.04-3.39.86-4.46,4.4-4.48,11.36-.08,11.36-.24,11.36-11.4,0-65.22-.08-130.44.14-195.66.02-5.76-1.62-7.74-7.14-6.9-1.6.24-3.29-.14-4.9.07-3.69.5-3.85-1.66-3.78-4.42.07-2.6-.15-4.66,3.7-4.62,20.26.17,40.52.15,60.79.01,3.36-.02,3.97,1.73,4.59,4.36,10.56,44.37,21.19,88.72,31.82,133.07.42,1.76.94,3.5,1.86,6.94Z" style="fill: #BBBBBB; stroke-width: 0px;"/>
  <path d="M331.64,307.52c0-33.74-.12-67.48.13-101.22.04-5.24-1.5-6.57-6.51-6.27-11.82.72-20.37,6.52-26.67,16.08-8.85,13.43-12.64,28.61-14.6,44.28-.55,4.38-2.32,5.42-6.28,5.25-2.84-.12-3.96-.86-3.85-3.88.85-22.03,1.6-44.07,2.29-66.11.1-3.23,1.54-3.99,4.58-3.99,49.95.08,99.9.09,149.84-.02,3.58,0,4.4,1.23,4.51,4.57.66,21.01,1.6,42.02,2.24,63.04.07,2.29,2.01,6.13-3.1,6.33-3.91.15-6.6.3-7.28-5.25-1.8-14.62-5.34-28.92-12.88-41.82-6.45-11.05-15.45-18.22-29.01-18.49-4.25-.08-5.49,1.01-5.47,5.37.18,36.6.1,73.21.1,109.81,0,31.08.11,62.17-.11,93.25-.03,4.82,1.22,6.55,6.1,6.09,4.47-.41,9,0,13.5-.12,2.99-.08,5,.16,5,4.12,0,3.99-2.05,4.11-5.02,4.11-26.82-.05-53.63-.03-80.45-.03-2.25,0-4.51-.09-6.75.02-2.77.13-4.62-.2-4.66-3.83-.04-3.66,1.41-4.56,4.72-4.41,4.7.2,9.44-.27,14.11.14,4.71.41,5.78-1.29,5.75-5.83-.2-33.73-.11-67.47-.11-101.21h-.14Z" style="fill: #BBBBBB; stroke-width: 0px;"/>
  <path d="M546.31,298.66c8.83-21.4,17.46-42.28,26.06-63.16,4.19-10.16,8.21-20.4,12.55-30.49,1.57-3.64.77-4.8-3.06-4.5-2.24.18-4.51-.12-6.75.06-3.37.27-5.17-.34-5.18-4.51-.02-4.36,2.14-4.4,5.32-4.37,10.23.11,20.46.1,30.69,0,3.35-.03,5.87-.05,5.86,4.66-.01,4.54-2.63,4.66-5.52,4.11-7.34-1.41-10.01,2.32-12.51,8.69-12.58,32.03-25.69,63.86-38.75,95.7-1.21,2.94-1.75,5.78-1.74,8.88.03,31.68.13,63.36-.1,95.04-.04,4.89,1.32,6.55,6.13,6.02,3.44-.38,6.95-.02,10.43-.09,2.97-.06,5.37-.39,5.45,4.18.08,4.8-2.34,4.6-5.65,4.59-25.99-.06-51.97-.04-77.96-.02-2.89,0-5.51.53-5.58-4.08-.07-4.66,2.26-4.68,5.66-4.7,14.55-.08,14.55-.15,14.55-14.52,0-24.32-.14-48.65.1-72.97.05-5.5-1.24-10.38-3.25-15.35-14.31-35.3-28.64-70.6-42.64-106.03-1.95-4.94-4.92-5.85-9.31-5.27-4.2.56-5.97-.95-5.57-5.38.24-2.68,1.25-3.47,3.76-3.46,22.71.05,45.42.08,68.14-.03,3.49-.02,3.4,1.93,3.33,4.31-.07,2.25.36,4.77-3.2,4.54-.2-.01-.41-.03-.61,0-3.48.61-8.61-1.94-10.07,1.38-1.05,2.39,2.01,6.67,3.39,10.04,11.4,27.9,22.84,55.8,34.29,83.68.36.88.96,1.67,1.75,3.02Z" style="fill: #BBBBBB; stroke-width: 0px;"/>
  <path d="M149.34,206.57c2.46-4.36,4.94-8.34,6.99-12.53,1.29-2.63,3.27-2.73,5.56-2.43,2.87.37,1.95,2.73,1.96,4.34.06,18.81.05,37.62.03,56.43,0,1.97.48,4.28-2.83,4.21-2.52-.05-4.57.22-5.27-3.34-1.98-10-4.55-19.87-8.86-29.17-6.29-13.57-15.22-24.04-30.99-26.78-14.91-2.59-26.68,3.86-32.19,17.97-4.52,11.6-5.68,23.81-5.75,36.04-.23,37.41-.21,74.83,0,112.24.06,10.79,1.27,21.5,4.39,32,8.01,26.93,37.76,30.59,54.34,13.06,11.95-12.64,17.44-28.29,20.43-44.98.56-3.1.7-5.5,4.87-5.26,4.69.27,3.01,3.64,3.03,5.83.12,18.4.1,36.8.02,55.2,0,1.85,1.17,4.54-1.47,5.35-2.47.75-5.67,1.31-7.32-1.38-5.63-9.17-11.54-6.7-19.79-2.72-29.88,14.43-60.35,6.96-83.37-17.71-16.62-17.82-24.34-39.79-27.74-63.44-4.02-27.99-3.67-55.8,5.59-82.88,7.47-21.85,18.95-41.12,38.09-54.92,24.25-17.49,53.78-19.7,77.69,3,.7.67,1.58,1.16,2.58,1.89Z" style="fill: #BBBBBB; stroke-width: 0px;"/>
  <path d="M653.72,414.67c6.37,0,12.07.23,17.73-.08,3.93-.21,4.09,1.73,4.18,4.79.09,3.23-.89,4.18-4.13,4.14-13.71-.17-27.42-.18-41.13,0-3.28.04-4.21-.95-4.06-4.13.14-2.87-.08-4.79,4.01-4.86,12.87-.21,13.06-.37,16.49-12.63,14.22-50.74,28.32-101.52,42.45-152.28,5.02-18.02,10.02-36.05,15.04-54.07.68-2.44,1.59-3.96,4.88-3.97,10.65-.04,10.44-.2,13.17,9.86,12.59,46.34,25.3,92.65,37.99,138.96,6.13,22.37,12.68,44.63,18.22,67.14,1.55,6.29,4.23,7.99,9.81,7.09,4.67-.75,5.35,1.61,5.19,5.58-.12,2.93-1.37,3.26-3.75,3.25-23.53-.05-47.07-.09-70.6.04-3.27.02-3.75-1.4-3.5-4.02.21-2.24-.92-5.3,3.28-4.84.81.09,1.64.01,2.45,0,11.46-.06,11.38-.04,8.4-10.9-4.15-15.11-8.31-30.22-12.18-45.39-.93-3.62-2.39-4.85-6.2-4.76-12.27.27-24.56.06-36.83.13-2.03.01-4.38-.89-5.27,2.51-5.04,19.28-10.28,38.5-15.64,58.41Z" style="fill: #BBBBBB; stroke-width: 0px;"/>
  <path d="M243.74,308.13c0,33.12.15,66.24-.14,99.36-.05,6.02,1.8,8.11,7.6,7.29,2.21-.31,4.51.14,6.74-.09,3.64-.37,5.01.79,5,4.71,0,4.01-1.98,4.1-4.96,4.09-25.17-.06-50.35-.08-75.52.02-3.24.01-4.8-.59-4.74-4.31.05-3.45,1.11-4.95,4.58-4.47.2.03.41,0,.61,0q13.61-.3,13.61-13.8c0-64.2,0-128.4,0-192.59q0-7.8-8.1-7.81c-2.05,0-4.11-.17-6.14.03-3.55.35-4.6-1.2-4.53-4.6.06-3.13,1.06-4.3,4.29-4.28,25.38.09,50.76.09,76.14,0,3.38-.01,4.67,1.01,4.73,4.54.07,3.71-1.49,4.71-4.75,4.32-.2-.02-.41,0-.61,0q-13.8.26-13.8,14.37v93.23Z" style="fill: #BBBBBB; stroke-width: 0px;"/>
  <path d="M1068.27,396.65q14.05,0,14.05,13.64,0,12.98-13.49,12.98-14.57,0-14.57-14.56,0-12.06,12.17-12.06h1.84Z" style="fill: #BBBBBB; stroke-width: 0px;"/>
  <path d="M816.27,396.65q13.2,0,13.2,13.29t-13.77,13.33q-13.99,0-13.99-13.29,0-13.33,13.34-13.33c.41,0,.82,0,1.22,0Z" style="fill: #BBBBBB; stroke-width: 0px;"/>
  <path d="M693.64,270.31c6.15,23.15,12.12,46,18.34,68.78,1.08,3.95.82,5.51-3.8,5.39-10.43-.26-20.87-.08-31.31-.09-2.22,0-4.76.54-3.67-3.37,6.45-23.1,12.81-46.22,19.22-69.33.1-.34.51-.6,1.23-1.38Z" style="fill: #000000; stroke-width: 0px;"/>
</svg>