<?xml version="1.0" encoding="UTF-8"?> <svg xmlns="http://www.w3.org/2000/svg" xmlns:xlink="http://www.w3.org/1999/xlink" version="1.1" id="Layer_1" x="0px" y="0px" viewBox="0 0 275 35" style="enable-background:new 0 0 275 35;" xml:space="preserve"> <style type="text/css"> .st0{fill-rule:evenodd;clip-rule:evenodd;fill:#BBBBBB;} .st1{clip-path:url(#SVGID_2_);fill-rule:evenodd;clip-rule:evenodd;fill:#BBBBBB;} .st2{clip-path:url(#SVGID_4_);fill-rule:evenodd;clip-rule:evenodd;fill:#BBBBBB;} </style> <g> <path class="st0" d="M18.4,30.8H5.6v-0.4l3.6-1.7V7.8c0,0-1.1,0-2,0.3c-0.5,0.2-1,0.3-1.8,1c-0.7,0.7-4.5,4.6-4.5,4.6l-0.4-0.2 l0.6-6.8h8.3h0h13.2l0.7,6.8l-0.4,0.2c0,0-3.8-3.9-4.5-4.6c-0.7-0.7-1.3-0.8-1.8-1c-1-0.3-1.8-0.2-1.8-0.2v20.8l3.6,1.7V30.8z"></path> <path class="st0" d="M184.2,30.8h-12.8v-0.4l3.6-1.7V7.8h0c0,0-1.1,0-2,0.3c-0.4,0.2-1,0.3-1.7,1c-0.7,0.7-4.6,4.6-4.6,4.6 l-0.4-0.2l0.6-6.8h8.3h13.2l0.7,6.8l-0.4,0.2c0,0-3.8-3.9-4.5-4.6c-0.7-0.7-1.3-0.8-1.7-1c-1-0.3-1.8-0.2-1.8-0.2v20.8l3.6,1.7 L184.2,30.8z"></path> <polygon class="st0" points="49.1,8.8 52,7.1 52,6.7 40.6,6.7 40.6,7.1 43.6,8.7 43.6,17.7 32.6,17.8 32.6,8.8 35.6,7.1 35.6,6.7 24.1,6.7 24.1,7.1 27.1,8.8 27.1,28.8 24.1,30.4 24.1,30.8 35.6,30.8 35.6,30.4 32.6,28.7 32.6,19.1 43.6,19.2 43.6,28.8 40.6,30.4 40.6,30.8 52,30.8 52,30.4 49.1,28.7 "></polygon> <polygon class="st0" points="192.8,28.8 189.9,30.4 189.9,30.7 201.3,30.7 201.2,30.4 198.4,28.7 198.4,8.8 201.2,7.1 201.3,6.7 189.9,6.7 189.9,7.1 192.8,8.7 "></polygon> <g> <g> <defs> <rect id="SVGID_1_" x="78.1" y="1.3" width="90.3" height="32.3"></rect> </defs> <clipPath id="SVGID_2_"> <use xlink:href="#SVGID_1_" style="overflow:visible;"></use> </clipPath> <path class="st1" d="M78.9,25.9c0,0,2.1,1.2,2.7,1.5c0.7,0.4,3.4,1.4,3.4,1.4l-1.8,0.6c-2.4-1.1-1.1-0.5-2.2-1.1 c-0.4-0.2-1.4-0.7-1.4-0.7L78.9,25.9z M95.6,18.2c-0.4-2-1.3-2.4-2.1-2.7c-1.1-0.4-3.9,0.2-4.3,0.3c-0.4,0,0.2-0.9-0.6-1.5 c-0.3-0.2-1.1,0-1.1,0s-0.3-0.3-0.5-0.4c-0.1-0.1-0.3-0.5-1.1-0.4c-0.2,0-1,0.4-1.2,0.4c-0.2,0.1-1.4,0-1.7-0.1 c-0.2-0.1-0.5,0-0.5,0s0.2,0.7,0.3,0.8c0.2,0.1,0.7,0.6,0.8,0.7c0.2,0,1-0.1,1.4-0.1c0.3,0,0.4,0.7,0.4,0.8 c0,0.1-0.2,0.6-0.3,0.8c0,0.3,0.4,0.9,0.5,1.1c0.2,0.2,0.1,0.3-0.4,0.4c-0.4,0-0.4,0.5-0.4,0.5s-0.2-0.2-0.5-0.3 c-0.3-0.1-0.5,0.1-0.5,0.1l0-0.3c0-0.4-0.3-0.8-0.5-0.9c-0.1-0.1-0.6-0.5-0.7-0.8c-0.1-0.3-0.1-0.4-0.3-0.3 c-0.1,0.1-0.1,0.5-0.1,0.5L82.5,17l-0.2,0l0.1,0.4h-0.2l0.1,0.4H82c0,0,0,0.2,0.1,0.4c0.1,0.2,0.1,0.4,0.3,0.7 c0.1,0.3,0.1,0.6,0.2,0.7c0,0.1,0,0.4-0.2,0.4c-0.3,0-0.2-0.3-0.2-0.6c0-0.3-0.4-0.6-0.4-0.7c0-0.1-0.3-0.2-0.4-0.2 c-0.1,0-0.3-0.3-0.3-0.3s-0.1,0.3-0.2,0.1c-0.1-0.1-0.4-0.3-0.4-0.3s-0.1,0.3-0.3,0s-0.4-0.2-0.4-0.2l0,0.3c0,0-0.2,0-0.4-0.1 c-0.2-0.1-0.8-0.5-0.8-0.5s0,0.3-0.1,0.2c-0.2-0.2-0.6-0.3-0.6-0.3s0,0.4,0.2,0.7c0.2,0.3,0,0.3,0.2,0.5c0.2,0.3,0.4,0.3,0.4,0.3 v0.2l0.3,0.3c0,0-0.1,0.2,0,0.4c0.2,0.1,0.3,0.2,0.3,0.2s0,0.4,0.2,0.5c0.3,0.1,0.4,0,0.4,0s-0.1,0.3,0.1,0.3 c0.2,0,0.6-0.1,0.6-0.1v0.2c0,0,0.1,0,0.3,0c0.2,0,0.5-0.2,0.7-0.3c0.2-0.1,0.3-0.1,0.5-0.1c0.2,0,0,0.4,0,0.4 c0,0.1-0.3,0.2-0.3,0.2h-0.4c-0.1,0-0.3,0.1-0.5,0.1c-0.2,0-0.3,0.1-0.4,0.1c-0.2,0-0.4,0.1-0.5,0.1c-0.1,0-0.2,0-0.4,0 c-0.2,0-0.2,0.1-0.2,0.1s-0.3,0-0.4,0c-0.1,0,0,0.2,0.1,0.2c0.1,0,0.3,0.4,0.3,0.4s0.1,0.3,0.2,0.3c0.1,0,0.4,0.1,0.5,0.1 c0.1,0,0,0.2,0,0.2s0.3,0,0.5,0c0.1,0-0.3,0.3-0.1,0.3s0.5,0.1,0.5,0.1l0.1,0.2c0.1,0.2,0.3,0.4,0.6,0.3c0.4-0.1,0.9-0.2,0.9-0.2 l-0.2,0.3c-0.2,0.2-0.3,0.8-0.1,0.8c0.2,0,0.7,0,0.7,0s0.3,0,0.3,0.1c0,0.2-0.3,0.2-0.6,0.2c-0.3,0-0.6-0.1-0.6-0.1L82,25.3 c0,0-0.2-0.2-0.4-0.1c-0.1,0-0.1,0.4-0.2,0.4c-0.1,0-0.3,0-0.4,0.1c-0.1,0.1-0.2,0.4-0.2,0.4s0,0.1,0.1,0.2 c0.1,0.1,0.1,0.2,0.1,0.2s-0.2,0-0.2,0.1c0,0.1,0.7,0.3,0.7,0.3v0.3c0,0.2,0.4,0.1,0.4,0.1s0,0.1,0.2,0.1c0.2,0,0.4-0.2,0.4-0.2 s0,0.2,0.2,0.2c0.2,0,0.3-0.1,0.3-0.1s0.1,0.3,0.4,0.1c0.2-0.2,0.2-0.4,0.4-0.4c0.2,0,0.7,0.1,0.9,0.1c0.1,0,0.3,0.2,0.4,0.4 c0.1,0.2,0.5,0.1,0.5,0.1v0.4c0,0.3,0.4,0.5,0.6,0.5c0.1,0,0.7-0.2,1-0.3c0.2,0,0.4,0.3,0.1,0.3C87,28.6,86,29,86,29l0.4,1.1 l1.5-0.7l-0.2-0.6c0,0,0.6-0.1,0.8-0.2c0.3-0.1,0.4-1,0.4-1s4.8,0.3,6.5,0c1.8-0.2,4.1-1,4.9-1.2c0.8-0.2,7-2.3,7.4-2.4 c0.4,0,0.9,0.4,0,0.7c-0.8,0.3-2.1,0.7-2.1,0.7l-0.2,1.2c0,0,0.9-1,1.1-1.2c0.2-0.2,0.2,0,0.2,0.2c0,0.2-0.3,1.2-0.4,1.6 c-0.2,0.3-0.5,0.3-0.5,0.3v0.2c0,0,0.7-0.2,1.1-0.3c0.3-0.1,1.1-0.4,1.1-0.4v-0.2c0,0-0.6,0.2-0.5,0c0-0.1,0.3-1.3,0.3-1.5 c0-0.2,0.2-0.3,0.3-0.3c0.1,0,0.4,0.3,0.4,0.4v0.5l0.5-0.1v-0.1l0.3,0l0.1,0.3c0,0,0.3,0.2,0.5,0.2c0.3,0,0.7-0.2,0.8-0.4 c0.1-0.2,0.4-0.2,0.4-0.2s0.2,0.3,0.5,0.2c0.3-0.1,0.2-0.1,0.4-0.2c0.1-0.1,0.2-0.1,0.4-0.1c0.2,0,0.3,0.4,0.3,0.4s0.2,0,0.3,0 s0.1-0.3,0.3-0.3c0.1,0,0.4,0.3,0.5,0.5c0.2,0.1,0.4,0.4,0.7,0.7c0.3,0.2,1.8,2,1.8,2l0.2,0.9c0,0-1.1-1.1-2.5-2.2 c-1.4-1.1-4.5-0.2-5.4,0.1c-0.9,0.3-9.6,3.3-12.8,3.5c-3.2,0.2-8.9-0.2-9.7-0.3c-0.7,0-3.8-0.3-4.5-0.3c-0.7-0.1-2.1-0.4-2.1-0.4 l0.5,1.4c0,0,8.7,0.9,12.5,0.8c3.8-0.1,4.7,0.3,12.4-2.3c7.1-2.3,7.1-2,8.3-1.6c0.8,0.3,1.7,1.2,2.1,1.6c0.4,0.4-0.1,1.1-0.6,0.6 c-0.6-0.6-1.9-1.8-3.7-1.4c-1.8,0.4-3.2,1.1-3.2,1.1l0.4,0.7c0,0,2.5-1.2,3.5-1c1,0.3,2.1,0.7,2.5,1.4c0.4,0.7,1.1,1.2,1.8,0.6 c0.7-0.5,0.8-1.4,0.8-1.8c0-0.3-0.2-1.4-0.2-1.4s0.5,0.7,0.6,0.8c0.2,0.2,0.6,0.5,0.6,0.5l-0.2,0.1c0,0-0.3,0.1-0.4,0.3 c-0.1,0.2,0.3,1,0.3,1.4v0.7l0.4,0.6c0,0,0.7,0,1.1,0.1c0.4,0.1,1.1,0.4,1.6,0.1c0.6-0.3,0.5-0.6,0.5-0.6l0.3-0.6 c0,0,1.7,0.6,2.3,0.7c0.6,0.1,2.3,0.3,2.7,0.2c0.4,0,0.6-0.3,0.7-0.7c0.1-0.3-0.1-0.6-0.1-0.6l1.4-0.9c0,0,0.7,0.2,0.8,0.1 c0.1-0.1,0.6-0.6,0.7-0.8c0.1-0.2-0.1-0.8-0.1-0.8l0.5-0.4c0,0,0,1,0,1.5s0.1,0.8,0.4,1c0.3,0.2,1.4,0.7,2,0.3 c0.5-0.4,1.9-2,3.5-1.6c1.5,0.4,2.5,0.9,2.5,0.9l0.5-0.9c0,0-2.4-1.3-3.5-1.1c-1.1,0.1-2.7,0.7-3.2,1.5c-0.3,0.4-1.3,0-0.7-0.5 c0.6-0.5,2.6-2.1,4.2-1.9c1.8,0.4,8.4,2.6,9.2,2.8c2.9,0.8,8.3,1.4,10.2,1.5C160,33,167,31.8,167,31.8l1.3-1.6 c0,0-2.5,0.5-3.6,0.6c-0.9,0.1-6.1,0.9-11.8,0.3c-5-0.6-10.1-2-13.4-3.2c-3.2-1.1-4.5-0.7-6.1,0.2c-1.6,0.9-2.4,2.6-2.4,2.6 s0-0.5,0-0.7c0.1-0.2,0.2-0.5,0.4-0.8c0.1-0.3,0.7-1,0.9-1.4c0.2-0.4,0.9-2.1,1-2.5c0.1-0.4,0.4-1.1,0.8-1.4 c0.4-0.3,3.4-0.1,4.1,0.1c0.7,0.1,6.4,1.9,9.5,2.6c3,0.8,6.5,1,6.7,0.9c0.2,0,0.4,0.2,0.3,0.4c-0.1,0.2-0.4,0.1-0.4,0.1v0.1 c0,0,0.6,0.2,0.7,0.2c0.1,0,0.5,1.3,0.6,1.5c0.1,0.3-0.4,0.3-0.4,0.3v0.2l1.8,0l0-0.1c0,0-0.4,0-0.4-0.2c0-0.2-0.2-0.7-0.2-0.7 s0.4,0.3,0.7,0.5c0.3,0.2,0.8,0.1,0.8,0.1v0.2l-0.4,0.3l1.9-0.1l-0.5-0.2l-0.2-0.8l0.4-0.5l0.4,0l0.3,0.4l0.4,0l-0.5-1.1 l-0.8-0.1c0,0-0.1-0.3,0-0.3c0.1,0,0.5,0,0.7,0c0.2,0,0.5,0.2,0.6,0.3c0.1,0.1,0.8,0.8,0.8,0.8l-0.5,0.6l1,0.8l0.7-0.8l-0.6-0.6 l0.2-0.3l-0.4-0.7c0,0,1.3,0.1,1.4,0.1c0.1,0,0.1-0.4,0.1-0.4s0.2,0.1,0.3,0.1c0.1,0,0.2-0.1,0.2-0.1l0.3,0.1 c0,0,0.2-0.1,0.3-0.2c0-0.1-0.2-0.7-0.2-0.7l1.4,0.4l-2.8,1.7l1.5,0.5l3.5-1.9l0.5-1.8c0,0-1.5,0.8-1.8,0.8 c-0.2,0.1-0.6-0.3-0.6-0.3s0.8-0.9,1-1.1c0.2-0.3,0.4-0.8,0.4-0.8s-1.1,0.4-1.3,0.5c-0.2,0-0.8,0.2-0.8,0.2s0-0.5,0.1-0.6 c0-0.1,0.2-1,0.2-1s-0.3,0.1-0.7,0.3c-0.4,0.1-1.6,0.7-1.6,0.7v-1.2c0,0,0.5-0.2,0.8-0.2c0.3,0,1,0,1.4,0c0.5,0,1.4,0.2,1.4,0.2 s0.1-0.1-0.1-0.4c-0.2-0.3-0.7-0.3-0.9-0.4c-0.3-0.1-1-0.2-1-0.2s0.6-0.4,0.8-0.5c0.2-0.1,0.9-0.4,1.2-0.4c0.3,0,0.8-0.4,0.4-0.5 c-0.4-0.1-0.8,0-1.2,0c-0.4,0-1.2,0.2-1.2,0.2s0.8-0.4,1.2-0.6c0.4-0.2,1.1-0.4,1.4-0.5c0.3-0.1,0.7-0.2,0.3-0.4 c-0.4-0.1-1.2-0.2-1.6-0.2c-0.4,0-1.1,0.2-1.1,0.2s0.1-0.7,0.2-0.9c0-0.2,0.4-1.1,0.4-1.1l-0.5-0.2l-1.1,1.1l-0.2-0.9l-0.5,0.3 l-0.4,1.2c0,0-0.4-0.2-0.5-0.3c-0.1-0.1-0.3-0.5-0.3-0.5l-0.4,0.1c0,0,0.2,0.7,0.3,0.9c0,0.2,0,0.6,0,0.6l-0.4,0l-0.1-0.1 c-0.1-0.1-0.2-0.1-0.3-0.3c-0.1-0.1-0.3,0-0.4,0s-0.3-0.1-0.3-0.1s0.3-0.5,0.5-0.7c0.2-0.3,0.5-0.8,0.5-0.8l-0.4-0.2 c0,0-0.4,0.2-0.6,0.4c-0.2,0.1-1.1,0.9-1.3,1.1c-0.1,0.2-0.3,0.2-0.3,0.1c0-0.1,0-1.1,0-1.4c0-0.3-0.3-0.6-0.3-0.6 s-0.2,0.4-0.2,0.6c0,0.2-0.1,1.4-0.1,1.5c0,0.1-0.1,0.4-0.2,0.3c-0.1-0.1-0.3-0.2-0.6-0.5c-0.3-0.3-0.7-0.7-0.7-0.7l-0.6,0.2 c0,0,0,0.2,0.2,0.4c0.1,0.3,0.2,1.1,0.2,1.4c0,0.3-0.1,1-0.1,1c0,0-0.2,0.2-0.4,0c-0.1-0.2-0.3-0.7-0.4-0.8 c-0.1-0.1-0.2-0.4-0.2-0.4c0,0,0-0.2-0.2-0.4c-0.1-0.1-0.3-0.1-0.3-0.1l0,0c0,0-0.9-0.6-1.4-0.6c-0.4,0-1.3,0.3-1.5,0.4 c-0.2,0.1-0.8,0.3-0.9,0.3c-0.1,0-0.4-0.2-0.5-0.2c-0.1,0-0.8,0.2-0.9,0.3c-0.2,0-0.2,0-0.2-0.1c0-0.1,0.3-0.7,0.3-0.7 s-0.1-0.1-0.2-0.1c-0.1,0-0.1-0.2-0.1-0.2s0,0,0.7-2c0.6-2-0.5-4.6-0.5-4.8c-0.4-0.8-1.5-2.2-1.5-2.2s0-0.1,0.1-0.2 c0.1-0.1,0.2-0.4,0.3-0.4c0.1,0,1.1-0.6,1.4-0.7c0.4-0.2,1.1,0.1,1.5,0.2c0.4,0,0.5-0.3,0.5-0.6c0-0.4,0.1-0.5,0.2-0.6 c0.1-0.1,0.9-0.3,0.9-0.3V6.6c0,0-1,0.2-1.3,0.4c-0.3,0.1-0.4,0.5-0.4,0.7c0,0.2,0,0.3-0.5,0.2c-0.4-0.1-0.8-0.2-0.9-0.2 c-0.1,0-1.2,0.5-1.4,0.6c-0.1,0.1-0.2,0-0.2-0.3c0-0.3-0.2-0.7-0.4-0.9c-0.2-0.2-0.4-0.7-0.4-0.9V5.3l-0.6-0.2 c0,0-0.4,0.5-0.5,0.6c-0.1,0.1-0.5,0.6-0.7,0.7c-0.1,0.2-0.1,0.9-0.1,0.9s-0.3-0.3-0.4-0.4c-0.1-0.2,0.1-0.6,0.1-0.8 c0-0.3-0.1-0.7-0.1-0.9s0-0.5,0-0.5l-0.5-0.2c0,0,0,0.2-0.1,0.4c-0.1,0.2-0.4,0.5-0.5,0.7c-0.1,0.2-0.3,0.4-0.3,0.4 s-0.6-0.4-0.8-0.6c-0.2-0.1-0.4-0.1-0.4-0.1s-0.2-0.3-0.4-0.5c-0.2-0.1-0.6-0.2-0.6-0.2s-0.4-0.4-0.5-0.6 c-0.1-0.2-0.6-0.1-0.6-0.1c-0.2-0.4-0.2-0.4-0.3-0.4c-0.1-0.2-0.4-0.1-0.4-0.1s-0.1-0.1-0.2-0.3c-0.2-0.3-0.6-0.1-0.6-0.1 s-0.1-0.2-0.2-0.3c-0.1-0.1-0.4-0.1-0.5-0.1c0,0-0.1-0.4-0.3-0.4c-0.1-0.1-0.3-0.2-0.3,0.1c0,0.3,0,0.6,0.1,0.8 c0.1,0.2,0.5,0.3,0.6,0.3c0.1,0,0.1,0.1,0.2,0.4c0.1,0.2,0.4,0.3,0.6,0.4c0.1,0,0.1,0.1,0.3,0.4c0.1,0.3,0.4,0.2,0.6,0.3 c0.3,0.1,0,0.3,0.3,0.5c0.2,0.3,0.4,0.2,0.6,0.2c0.2,0,0.2,0.3,0.4,0.5c0.2,0.2,0.4,0.3,0.4,0.3c0.1,0,0.3,0.2,0.4,0.4 c0.2,0.2,0.6,0.3,0.6,0.3l-0.2,0.2c0,0-0.6,0-0.8,0c-0.2-0.1-0.4,0-0.4,0s0.1,0.2,0.2,0.4c0.1,0.2,0.5,0.6,0.5,0.6h-0.3 c-0.4,0-0.9-0.4-0.9-0.4s-0.3,0-0.2,0.3c0.1,0.2,0.5,0.7,0.5,0.9c0.1,0.1-0.1,0.2-0.5,0.2c-0.3,0-0.6-0.2-0.8-0.3 c-0.2,0-0.5,0-0.7,0c-0.2,0-0.6,0.6-0.7,0.6c-0.2,0.1-0.4,0.3-0.7,0.4c-0.3,0-0.5,0-1,0.2c-0.5,0.2,0.1,1.1,0,1.3 c0,0.2-0.4,0.4-0.2,0.6c0.2,0.2,0.6,0.9,0.6,0.9s-0.1,0.4-0.7,0.7c-0.7,0.3-0.7,0.8-0.7,1.2c-0.1,0.4,0.1,1.4,0.1,1.4l0.5-0.1 c0,0,0.2-0.4,0.2-0.6c0-0.2,0.2-0.4,1.1-0.3c0.9,0.1,1-0.3,1.2-0.7c0.1-0.4,0.4-1.2,0.6-1.4c0.2-0.1,0.4-0.2,0.7,0 c0.3,0.1,0.7,0,1-0.2c0.3-0.3,0.5-0.4,0.7-0.3c0.2,0.1,0.6,0.5,0.6,0.5s0,0.3,0.1,0.6c0.2,0.3,0.7,0.4,0.7,0.4l0,0.7l-0.4,0.1 c0,0-0.3,0.2-0.4,0.4c-0.1,0.2-0.7,0.6-0.7,0.6s-0.2-0.4-0.3-0.7c-0.1-0.2-0.5-0.7-0.5-0.7l-0.8,0c0,0-0.1,0.9,0,1.1 c0,0.3-0.1,1.6-0.1,1.6l0.4,0.5c0,0-1,0.2-2.5-0.2c-0.7-0.2-2.9-1.1-2.9-1.1s-0.2-0.8-0.3-1c0-0.2-0.4-1.2-0.4-1.2 s0.7-0.7,0.9-0.9c0.1-0.1,0.8-0.9,0.8-0.9h-0.9c-0.1,0-0.6,0-0.6,0s0.4-0.6,0.6-0.8c0.2-0.3,0.7-1.4,0.7-1.4s-0.7,0.2-0.9,0.3 c-0.1,0.1-0.7,0.4-0.7,0.4s0.1-0.8,0.1-1c0-0.2,0.2-0.9,0.2-0.9s-0.7,0.9-0.9,1.1c-0.2,0.2-0.4,0.4-0.4,0.2 c0-0.2-0.2-2.1-0.2-2.1l-1.5,2.1L129.7,9c0,0,0.1-0.4,0-0.5c-0.1-0.1-0.2-0.3-0.2-0.3l0.6-0.5c0,0,0.4,0.2,0.6-0.1 c0.2-0.3-0.2-0.4-0.2-0.4l0.2-0.2c0,0,0.6,0.3,0.7-0.3c0.1-0.3-0.4-0.5-0.4-0.5l0.1-0.2c0,0,0.7,0.1,0.7-0.7 c0-0.5-0.7-0.2-0.7-0.2L131,4.9c0,0,0.5-0.4,0-0.8c-0.4-0.3-0.9,0.1-0.9,0.1l-0.1-0.1c0,0,0.2-0.5-0.2-0.7 c-0.5-0.2-0.7,0.4-0.7,0.4l0,0c0-0.1,0-0.6-0.4-0.5c-0.5,0-0.5,0.5-0.5,0.5h-0.1c0,0,0-0.3-0.4-0.4c-0.4,0-0.4,0.2-0.4,0.2 l-0.1-0.1l-0.2-0.5c0,0-0.2,0.2-0.4,0.3c-0.1,0.1-0.8,0.7-0.8,0.7l0-2.1L125.2,2l0.1-0.5L122,1.4L122,2l-0.5-0.1v1.9l-1-0.7 L120,3.8h-0.2c0,0,0-0.5-0.7-0.5c-0.4,0-0.4,0.5-0.4,0.5h-0.2c0,0,0-0.7-0.6-0.6c-0.6,0-0.3,0.6-0.3,0.6h-0.1 c0,0-0.3-0.4-0.7-0.2c-0.4,0.2-0.1,0.7-0.1,0.7l-0.1,0c0,0-0.2-0.4-0.7,0c-0.5,0.4,0.1,0.7,0.1,0.7l-0.1,0.2c0,0-0.5-0.1-0.5,0.4 c0,0.7,0.7,0.6,0.7,0.6v0.2c0,0-0.6,0-0.4,0.5c0.1,0.4,0.8,0.3,0.8,0.3s-0.2,0.3,0,0.5c0.1,0.2,0.6,0.2,0.6,0.2l0.5,0.6 c0,0,0,0.1-0.2,0.4c-0.1,0.2,0,0.3,0,0.3s-0.5,0.3-0.4,0.6c0.1,0.3-0.2,0.3-0.5,0c-0.4-0.2-0.8-0.9-0.9-1.1S115,8.1,115,8.1 s0,0.1,0,0.3c0,0.2,0,1.9,0,1.9s-0.9-0.6-1.1-0.8c-0.2-0.2-0.5-0.3-0.5-0.3s0.1,0.7,0.3,1c0.2,0.3,0.5,1.2,0.5,1.2 s-0.6-0.3-0.7-0.3c-0.1,0-1.1-0.3-1.1-0.3s0.1,0.5,0.4,0.7c0.3,0.3,1,1.3,1,1.3l-1.1,0.2l1.3,1.4c0,0-0.1,0.7-0.2,0.7 c0,0.1-0.3,0.9-0.4,1c-0.1,0.2-1.1,0.7-1.4,0.7c-0.3,0-0.3-0.1-0.4-0.4c-0.1-0.3-0.3-0.7-0.5-1c-0.2-0.2-0.9-0.5-1-0.7 c-0.1-0.2-0.1-0.6-0.2-0.8c-0.1-0.1-0.3-0.5-0.5-0.7c-0.2-0.3,0-0.6,0.4-0.4c0.3,0.1,0.3,0.5,0.6,0.9c0.3,0.4,0.8,0.6,0.8,0.6 s-0.2-0.3-0.3-0.6c-0.1-0.3,0.1-0.7,0-0.9c-0.1-0.2-0.7-0.7-0.7-0.7l0.3-0.6c0,0-0.4-0.2-0.7-0.3c-0.3,0-0.5-0.3-0.7-0.5 c-0.2-0.2-0.4-0.3-0.2-0.3c0.2,0,0.4,0.1,0.8,0.1c0.4,0,0.7-0.2,0.7-0.2s-0.2-0.1-0.4-0.2c-0.3-0.1-0.6-0.6-0.6-0.6 s0.2-0.2,0.3-0.4c0.1-0.2,0.2-0.4,0.2-0.4s-0.2-0.1-0.4-0.1c-0.2-0.1-0.7-0.2-0.9-0.4c-0.2-0.1,0-0.2,0-0.2s0.2,0,0.6,0 c0.3-0.1,0.4-0.9,0.4-0.9l-0.2-0.1c0,0-0.4,0.2-0.7,0.3c-0.4,0.1-0.7,0-0.7,0s-0.3-0.2-0.3-0.3c0-0.2,0.2-0.4,0.2-0.6 c0-0.2-0.2-0.4-0.2-0.4s-0.3,0.3-0.6,0.4c-0.3,0.1-0.4,0-0.7,0c-0.2,0-0.2,0-1-0.1c-0.8,0-0.4,0-0.7,0.2 c-0.2,0.1-0.4,0.3-0.4,0.3s-0.2-0.2-0.1-0.4c0-0.2,0.1-0.4,0.1-0.6c0-0.2-0.7-0.7-0.7-0.7s0.1-0.3,0.1-0.6 c-0.1-0.3-0.7-0.2-0.7-0.2l0-0.2c0,0,0.4-0.5,0.1-0.8c-0.3-0.3-0.8,0-0.8,0s0-0.6-0.4-0.6c-0.4,0-0.4,0.5-0.4,0.5l-0.4,0.1 c0,0-0.1-0.3-0.5-0.1c-0.4,0.1,0,0.7,0,0.7l-0.2,0.2c0,0-0.3-0.1-0.5,0.2c-0.2,0.3,0.1,0.6,0.1,0.6l-0.3,0c0,0-0.1-0.4-0.2-0.6 c0-0.2-0.1-0.4-0.1-0.4l-0.1,0.1c-0.1,0.1-0.5,0.5-0.5,0.5l-0.4-0.1l0.5-1.1l-2.2,1.1l1,0.4l-0.2,0.5c0,0-0.7-0.2-0.8,0 C96.5,5.6,96.9,6,96.9,6h-0.4c0,0,0-0.4-0.4-0.2c-0.4,0.1-0.2,0.4-0.2,0.4l-0.3,0.2c0,0-0.1-0.2-0.2-0.2S95.1,6,94.7,6.5 c-0.4,0.5,0.4,0.6,0.4,0.6l0,0.4c0,0-0.6,0.4-0.4,0.6c0.2,0.2,0.6,0,0.6,0l0.3,0.2c0,0-0.1,0.4,0.2,0.4C95.9,8.8,96,8.5,96,8.5 l0.2,0.1c0,0-0.1,0.3,0.1,0.3c0.2,0,0.4,0,0.4,0s-0.4,0.7-0.6,1.1c-0.3,0.4-0.6,1.5-0.7,1.7c-0.1,0.2,0,0.3,0.2,0.5 c0.2,0.2,0.4,0.4,0.6,0.5c0.2,0,0,0.2-0.1,0.4c0,0.2,0.1,0.3,0.1,0.3s-0.2,0.5-0.2,0.8c0,0.3,0.7,0.8,0.9,0.9 c0.3,0.1,0.5,0.2,0.7,0.4c0.2,0.2,0.4,0.7,0.6,0.6c0.2-0.1,0-1,0-1s0.5-0.3,0.6-0.4c0-0.1,0.2,0,0.1,0.2 c-0.1,0.3-0.1,0.7-0.1,0.9c0.1,0.2,0.5,0.6,0.7,0.6c0.2,0-0.3,0.4-0.5,0.4c-0.1,0.1-0.8,0.1-1.1,0.3c-0.4,0.3-0.7,0.7-1.1,0.7 C96,18,96,18,96,18s0,0.1,0.3,0.3c0.3,0.1,0.7,0.1,1.2-0.1c0.5-0.2,0.7-0.4,1.1-0.4c0.4,0,0.6,0.2,0.4,0.3 c-0.1,0-0.6,0.3-0.7,0.3c-0.1,0-0.4,0.3-0.5,0.3c-0.1,0-0.9,0.3-1.1,0.4c-0.2,0.1-0.6,0.3-0.5,0.4c0.1,0.1,1.2,0.6,1.2,0.6 s-0.1,0.3-0.4,0.4c-0.3,0.2-1,0.1-1,0.3c0,0.1,0.2,0.4,0.2,0.4s-0.2,0-0.5,0c-0.3,0-0.4-0.6-0.4-0.6S95.9,20,95.6,18.2z M88.9,28.3c0,0,0.3,0,0.2,0.2c0,0.2-0.4,1-0.6,1.2c-0.2,0.2-0.7,0.3-0.7,0.3s1.5,0.2,1.7,0.2c0.3,0,2,0.2,2.4-0.5 c0.3-0.5,0.4-1,0-1.1c-0.3-0.1-2.4-0.4-2.8-0.4C88.8,28.2,88.9,28.3,88.9,28.3z M90.3,28.5l-0.7,1.4c0,0,0.5,0.1,0.8,0 c0.3,0,0.6-0.4,0.6-0.6c0-0.2,0.2-0.7,0-0.7C90.8,28.6,90.3,28.5,90.3,28.5z M93.1,28.7c0,0.2,0,0.3-0.2,0.7 c-0.1,0.3-0.1,0.4-0.4,0.5C92.2,30,92,30,92,30l-0.1,0.2h2V30l-0.4,0l0.6-1.4h0.5v-0.2l-1.9,0v0.2C92.6,28.5,93.1,28.5,93.1,28.7 z M94.8,28.3l0,0.2c0,0,0.4,0,0.3,0.4c0,0.3-0.2,0.7-0.3,0.9C94.6,30,94.1,30,94.1,30v0.1c0,0,1.7,0,2.3-0.2 c0.6-0.1,0.8-0.2,0.8-0.2l0.2-0.5l-0.2,0c0,0-0.1,0.2-0.3,0.3c-0.4,0.3-1.3,0.3-1.3,0.3l0.3-0.7c0,0,0.3,0,0.4,0 c0.2,0.1,0.3,0.3,0.3,0.3l0.4-1c0,0-0.4,0.4-0.5,0.4s-0.5,0-0.5,0l0.2-0.5c0,0,0.5-0.3,0.8-0.2c0.3,0.1,0.3,0.4,0.3,0.4l0.1-0.6 c0,0-1.3,0.2-1.5,0.3C95.7,28.3,94.8,28.3,94.8,28.3z M97.8,27.8V28h0.4c0.1,0,0.1,0.2,0.1,0.5c-0.1,0.3-0.2,1.3,1.3,0.9 c1.5-0.4,1.2-1.4,1.2-1.6c0-0.1,0.1-0.5,0.1-0.5l0.4-0.2v-0.2l-1.4,0.4v0.1c0,0,0.4-0.1,0.4,0c0,0.1-0.1,0.7-0.2,1.1 c-0.1,0.6-1,1-1,0.4c0-0.5,0.2-1.1,0.3-1.2c0.1-0.1,0.3-0.2,0.3-0.2v-0.2c0,0-0.2,0.1-0.6,0.3C98.7,27.8,97.8,27.8,97.8,27.8z M101.9,27.3l-0.6,0.6l0.4,0.6l0.5-0.7L101.9,27.3z M102.4,26.6c0,0,0.5-0.1,0.5,0.1s-0.2,1.3-0.4,1.5c-0.1,0.2-0.5,0.4-0.5,0.4 l0,0.2l2.9-0.8l0.1-0.7c0,0-0.4,0.6-0.8,0.7c-0.4,0.2-0.6,0.1-0.6,0.1l0.1-1c0,0,0.3,0,0.4,0c0.1,0,0.2,0.3,0.2,0.3l0.2-1 c0,0-0.1,0.2-0.3,0.3c-0.2,0.1-0.4,0.1-0.4,0.1l0.2-0.6c0,0,0.4-0.2,0.7-0.2c0.3,0,0.2,0.3,0.2,0.3l0.3,0l0.2-0.8 c0,0-0.9,0.3-1.4,0.5c-0.5,0.2-1.5,0.5-1.5,0.5L102.4,26.6L102.4,26.6z M151.8,7.3c-0.3,0.1-0.2,0.6-0.2,1c0,0.4-0.5,0.4-0.9,0.4 c-0.3-0.1-0.5,0-0.8,0.1c-0.3,0.1-1.2,1.2-1.2,1.2l0.2,0.4c0,0,1-0.5,1.3-0.5c0.2,0,1.5,0,1.8,0c0.3,0,0.4-0.1,0.4-0.5 c0-0.4,0.5-0.7,0.8-0.7c0.3,0,0.7,0,0.7,0s-0.3-0.4-0.5-0.4c-0.3,0-0.6,0.1-0.9,0.2c-0.3,0.1-0.5,0.8-0.7,1s-0.8,0-1.1,0 c-0.4,0-1.2,0.3-1.2,0.3s0.5-0.5,0.9-0.7c0.3-0.2,0.9-0.1,1.3-0.3c0.4-0.1,0.3-1,0.3-1.2c0-0.3,0.9-0.6,0.9-0.6L152.7,7 L151.8,7.3z M147.1,8.6c0.1-0.1,0.1-0.6,0-0.7c0-0.2-0.5-1.7-0.5-1.8c0,0,0-0.1,0.1-0.3c0.1-0.1,0-0.4,0-0.4c0,0-0.3,0.5-0.4,0.6 c0,0.1-0.3,0.4-0.2,0.6c0,0.3-0.1,1.2-0.3,1.3c-0.1,0.2-0.4,0.6-0.4,0.7c-0.1,0.1-0.1,0.3,0.3,0.5c0.4,0.2,0.7,0.4,0.9,0.2 C146.9,9.2,147.1,8.6,147.1,8.6z M137.6,2.8c0.1,0.2,0.3,0.1,0.3,0c0,0,0-0.2,0.1-0.2c0,0,0.1,0.2,0.3,0.4 c0.1,0.3,0.3,0.3,0.3,0.3c0,0,0.2-0.2,0.2-0.2s0,0.2,0.1,0.5c0.2,0.3,0.4,0.2,0.4,0.1c0-0.1,0-0.2,0-0.2s0.1,0,0.2,0.3 c0,0.2,0.2,0.5,0.4,0.7c0.1,0.1,0.4,0,0.4,0c0,0-0.1-0.2,0-0.3c0,0,0.2,0.1,0.2,0.4c0,0.2,0.1,0.4,0.2,0.7c0,0.2,0.5,0.2,0.5,0.2 s0-0.3,0-0.4c0,0,0,0,0.1,0.1c0.1,0.1,0.4,0.8,0.4,0.9c0.1,0.1,0.3,0,0.3-0.1c0-0.1-0.1-0.5-0.1-0.5c0,0,0.1,0,0.2,0.2 c0.1,0.2,0.5,0.9,0.6,1.1c0.2,0.2,0.4,0.2,0.4,0.1c0-0.1,0-0.4,0-0.5c0-0.1,0.1,0,0.3,0.2c0.2,0.1,0.1,0.5,0.1,0.5 s0.4,0.1,0.5,0.1s0-0.2,0.2-0.2c0.2,0,0,0.3,0.3,0.4c0.3,0.2,0.3-0.3,0.2-0.4c-0.1-0.1-0.6-0.2-0.6-0.2s-0.1-0.3-0.3-0.4 c-0.2-0.1-0.4-0.1-0.4-0.1s0,0-0.1-0.1c0,0-0.4-0.4-0.6-0.5c-0.1-0.1-0.5-0.2-0.6-0.2c-0.1,0-0.4-0.6-0.6-0.7 c-0.1-0.1-0.7,0-0.7,0s-0.3-0.7-0.4-0.8c-0.2-0.1-0.5,0-0.5,0s-0.2-0.4-0.3-0.5c-0.1-0.1-0.5-0.1-0.5-0.1s-0.1-0.3-0.3-0.4 c-0.1-0.1-0.4,0-0.4,0s-0.2-0.4-0.4-0.5c-0.1-0.1-0.3,0-0.3,0s-0.1-0.2-0.2-0.3c-0.1-0.2-0.1,0-0.1,0.1 C137.5,2.3,137.6,2.7,137.6,2.8z M144.3,4.9c-0.1,0,0,0.2-0.1,0.3c0,0.1-0.2,0.4-0.3,0.5c0,0.1,0.1,0.3,0.2,0.4 c0.1,0.2,0.2,0.2,0.3,0.2c0,0,0,0,0.3,0c0.2,0,0-1,0-1.1c0-0.1-0.2-0.4-0.2-0.5C144.6,4.9,144.4,4.9,144.3,4.9z M141,8.5 c0.2,0.1,0.8,0.1,1.1,0c0.2,0,1.6-0.2,1.8-0.2c0.2,0,1,0,1,0s0-0.1-0.2-0.2c-0.1-0.1-0.3-0.2-0.3-0.3c0,0-0.2-0.1-0.6-0.3 c-0.4-0.2-1,0-1.2,0c-0.2,0.1-0.9,0.6-1.1,0.7c-0.2,0-0.7-0.1-0.9-0.1C140.6,8.1,140.9,8.5,141,8.5z M143.3,9.7 c0,0.2,0.2,0.7,0.6,0.6c0.4-0.1,0.3-0.4,0.3-0.5c0-0.1-0.3-0.2-0.3-0.2s0,0.2,0,0.3c0,0.1-0.2,0.2-0.3,0.1 C143.5,9.8,143.3,9.7,143.3,9.7z M138.5,9.7c-0.1,0.1-0.1,0.3-0.1,0.4c0,0.1,0.5,0,0.7,0c0.1,0,0.4-0.1,0.4-0.2 c0-0.1-0.1-0.3-0.2-0.3c-0.1,0-0.3,0-0.4-0.1C138.9,9.6,138.7,9.6,138.5,9.7z M142.1,11.1c0,0.1-0.1,0.7,0.4,0.8 c0.5,0.2,1.3,0.2,1.7-0.1c0.5-0.3,0.5-0.6,0.6-0.7c0-0.1-0.3-0.2-0.3-0.2c-0.1,0.1-0.7,0.6-0.9,0.7c-0.1,0-0.6,0-1-0.1 C142.4,11.4,142.1,11.1,142.1,11.1z M142.1,9.9c0.1,0,0.4-0.2,0.6-0.2c0.1,0,0.1,0,0.1,0.3c0,0.2,0.5,0.5,0.7,0.6 c0.3,0.1,0.8-0.1,1-0.1c0.1,0,0.2,0.1,0.4,0.2c0.2,0.1,0.4,0.1,0.5,0.1s0.7,0,0.8,0c0.1-0.1,0.4-0.3,0-0.2c-0.4,0-1-0.2-1.4-0.4 c-0.4-0.2-0.4-0.9-0.4-0.9s-0.8,0-1.1,0c-0.2,0-0.6-0.2-0.6-0.2s-0.1,0.1-0.1,0.1c-0.1,0-0.2,0.1-0.2,0.2c0,0.1-0.3,0-0.4,0 c-0.1,0-0.2,0.3-0.2,0.4C141.8,9.9,142,10,142.1,9.9z M150.8,10.5c0,0,0.9,0.1,1.1,0.1c0.2,0,0.4,0,0.6,0c0.2,0,0.8-0.4,1-0.5 c0.1-0.1,1.1-0.1,1.1-0.1l-0.1-0.2c0,0-0.7,0-0.9,0c-0.3,0-1.1,0.6-1.2,0.7c-0.2,0.1-1.5-0.2-1.5-0.2L150.8,10.5L150.8,10.5z M149.6,12.4c0,0,0.3,0,0.4,0c0.2,0,0.6,0.2,0.9,0.3c0.4,0.1,1.1,0.7,1.4,0.7c0.3,0.1,0.9,0.1,1.1-0.1c0.2-0.2,0.9-0.5,1.1-0.7 c0.1-0.1,0.9,0,0.9,0l0-0.3c0,0-0.4-0.1-0.6-0.1c-0.2,0-0.7,0-0.7,0s-0.1,0-0.2,0.3c-0.1,0.3-0.5,0.5-0.9,0.5 c-0.4,0-0.6-0.3-0.8-0.4c-0.3-0.1-0.8-0.3-0.9-0.3c-0.2,0-0.2-0.1,0-0.1c0.2-0.1,1.4-0.2,1.6-0.3c0.2-0.1,0.9-0.9,1.1-1 c0.1-0.1,1.2,0,1.2,0l-0.2-0.6c0,0-0.5,0-0.7,0c-0.1,0-0.6,0.1-0.7,0.1c-0.2,0-1.1,0.9-1.3,1c-0.2,0.1-1.5,0.3-1.8,0.3 c-0.2,0-0.9,0.1-0.9,0.1L149.6,12.4z M154.6,14.4c-0.3,0-0.7,0.2-0.9,0.4c-0.2,0.1-0.8,0.6-0.8,0.6s-0.4-0.1-0.5-0.1 c-0.1,0-0.8-0.1-1-0.2c-0.2,0-0.8-0.3-0.9-0.3c0,0-0.1-0.3,0-0.3h0.8c0.3,0,0.7,0,1,0c0.4,0,0.7,0,0.9,0c0.2-0.1,1.1-1.2,1.2-1.2 c0.1-0.1,1.2-0.1,1.2-0.1s0-0.4-0.1-0.4c-0.1,0-0.8,0-0.9,0c-0.2,0-0.4,0.2-0.5,0.2c-0.1,0.1-0.4,0.4-0.5,0.5 c-0.1,0.1-0.6,0.2-0.7,0.4c-0.1,0.2-0.5,0.1-0.8,0.1c-0.3-0.1-0.5-0.1-0.9-0.1c-0.3,0-1.1,0.2-1.3,0.2l0.1,0.8 c0,0,0.6,0.2,0.8,0.4c0.2,0.1,0.4,0.2,0.5,0.2c0.2,0.1,1,0.1,1.1,0.2c0.1,0.1,0.3,0.3,0.5,0.3c0.2,0,1.3,0,1.7,0 c0.3,0,0.6,0,0.6,0l0-0.2c0,0-0.6-0.3-0.7-0.3c-0.2,0-0.8,0-1,0c-0.2,0-0.6,0-0.6,0s0.6-0.3,0.7-0.5c0.1-0.1,0.2-0.3,0.5-0.4 c0.3,0,0.7,0,0.9,0c0.2,0,0.6,0.2,0.6,0.2s0-0.4-0.1-0.4C155.7,14.6,154.9,14.4,154.6,14.4z M154.6,16.3c-0.2,0-0.7,0-0.8,0 c-0.2,0-0.9,0.2-1.1,0.3c-0.2,0.1-0.3,0-0.5-0.1c-0.3-0.1-0.8-0.2-1.2-0.2c-0.4-0.1-1,0-1,0s0,0.5-0.1,0.8 c-0.1,0.3-0.2,0.6-0.2,0.6s0.1,0.1,0.3,0.1c0.1,0,0.6,0.3,0.7,0.4c0.1,0,0.7,0.3,0.8,0.4c0.2,0,0.4,0.2,0.6,0.1 c0.2,0,1-0.4,1.1-0.5c0.2-0.1,1.1-0.1,1.1-0.1v-0.4c0,0-0.6-0.1-0.7-0.1c-0.1,0-0.3,0.2-0.5,0.3c-0.1,0.1-0.7,0.3-0.8,0.4 c-0.1,0.1-0.3,0.1-0.6,0c-0.3,0-0.5-0.1-0.7-0.3c-0.2-0.2-0.6-0.3-0.7-0.4c-0.2,0-0.4-0.1-0.3-0.2c0-0.1,0-0.1,0.3-0.2 c0.2-0.1,1,0,1.1,0c0.2,0,0.7,0.2,0.8,0.2c0.1,0,1.3-0.5,1.5-0.6c0.2-0.1,0.6,0,0.9,0c0.3,0,0.8,0,0.8,0v-0.4 C155.4,16.2,154.7,16.3,154.6,16.3z M149.6,18c0,0-0.2,0.4,0,0.6c0.2,0.2,1.3,0.2,1.3,0.2s-0.7-0.4-0.9-0.5 C149.8,18.2,149.6,18,149.6,18z M138.5,9.2c-0.1,0.2-0.3,0.6-0.4,0.7c-0.1,0.1-0.9,0.1-1.1,0.1c-0.2,0-0.4,0.1-0.3,0.4 c0,0.3,0.2,0.6,0.5,0.7c0.3,0.1,0.5,0.1,0.8,0c0.3-0.1,0.5,0.1,0.7,0c0.1-0.1,0.3-0.2,0.4-0.3c0.1-0.1,0.3,0.1,0.3,0.3 c0,0.2,0,0.3,0,0.4c0,0.1,0,0.3,0.2,0.2c0.2,0,0.4-0.6,0.4-0.6s0,0.5,0,0.7c-0.1,0.2-0.3,0.3-0.3,0.4c0,0.1,0.1,0.1,0.4,0.1 c0.2,0,0.3-0.5,0.3-0.7c0-0.3,0-1.4,0-1.4l0.4-0.1c0,0,0.2,0.3,0.2,0.5c0,0.2,0,0.7,0,0.7s0.2-0.2,0.4-0.5 c0.2-0.4,0.1-0.5,0.1-0.5l0.3,0.1c0,0-0.1,1.1,0,1.4c0.1,0.2,0.8,0.8,1.6,0.8c0.8,0,1.5-0.1,1.8-0.6c0.4-0.5,0.5-0.8,0.5-0.8 l0.4,0.2c0,0-0.5,0.9-0.9,1.2c-0.4,0.3-1.6,0.5-2,0.5c-0.3,0-0.1,0.3,0,0.3c0.1,0,1.2,0.2,1.8-0.2c0.5-0.4,1.4-1.4,1.4-1.4 l-0.4,1.1c0,0-0.8,0.7-1.4,0.8c-0.6,0.1-1.4,0.2-1.4,0.2v0.4c0,0,1.1,0.2,1.5,0c0.4-0.1,1.4-0.7,1.4-0.7l0,0.4 c0,0-0.9,0.6-1.2,0.7c-0.3,0.1-1.2,0.2-1.2,0.2v0.3c0,0,0.6,0.1,0.8,0.1c0.3,0,1.2,0,1.2,0l0,0.4l-0.4,0.1v1l1.1-0.5l0.9,0.3 c0,0,0.1,0.9,0.1,1c0,0,0.2,0.2,0.3,0c0.1-0.1,1.3-2.5,1.4-2.9c0-0.3-0.3-0.4-0.4-0.2c-0.1,0.3-0.7,1.6-0.7,1.6l-0.2-0.7 c0,0,0.7-1.8,0.8-2c0.1-0.3-0.2-0.6-0.4-0.4c-0.1,0.1-0.7,1.3-0.7,1.3l-0.1-0.6c0,0,0.6-1.2,0.7-1.4c0-0.3-0.2-0.8-0.4-0.6 s-0.6,1-0.6,1l-0.3-0.6c0,0,0.6-1.1,0.6-1.4c0-0.4-0.2-1.1-0.5-1.1s-0.7,0-1,0c-0.4,0-0.7-0.2-0.9-0.4c-0.2-0.3-0.3-0.6-0.6-0.6 c-0.3,0-2.1,0-2.2,0.1c-0.1,0.1-0.2,0.2-0.2,0.2s-0.1-0.1-0.3-0.1c-0.1,0,0,0.2-0.3,0.3c-0.2,0.1-0.2-0.1-0.2-0.2 c0-0.1-0.1-0.4-0.2-0.1c-0.1,0.2-0.3,0.4-0.4,0.5c-0.2,0-0.5,0-0.9,0c-0.4-0.1-0.8-0.2-1-0.2C138.7,9.2,138.5,9.2,138.5,9.2z M150,19.5l-1.4,0.4l-0.4-0.3l0.4-1.1l-0.4-0.2l-1.3,0.3l-0.3-0.2l0.3-1.2l-0.5-0.4l-1.2,0.7l-0.4-0.1l-0.2-1.6l-0.4-0.1 c0,0-0.4,0.3-0.6,0.4c-0.1,0.1-0.7,0.4-0.7,0.4l-0.3-0.2c0,0,0-0.5,0.1-0.7c0-0.2,0-0.5,0-0.5l-0.4-0.3c0,0-0.7,0.7-0.8,0.8 c-0.1,0.2-0.7,0.4-0.7,0.3c0-0.1-1-1.4-1-1.4v0.9v1.3l0.3-0.8l0.2,0.3l0,0.8c0,0,0-0.2,0-0.3c0-0.1,0.1-0.4,0.1-0.4l0.3,0.2 l0,0.5c0,0,0.1-0.1,0.2-0.2c0-0.1,0-0.3,0-0.3l0.4-0.1c0,0,0,0.4,0,0.3c0-0.1,0.6-0.3,0.6-0.3l0.1,0.3c0,0-0.8,0.2-1,0.8 c-0.1,0.4,0.3,0.5,0.3,0.5s0-0.9,0.9-0.8c0.7,0.1,0.3,0.9,0.3,0.9s-0.2,0.3,0,0.2c0.2,0,0.5-0.2,0.5-0.4v-0.6c0,0,0.5,0,0.5,0.2 c0,0.2,0,0.6,0.4,0.7c0.3,0.1,1.2,0.5,1.5,0.8c0.3,0.3,1.3,1,1.3,1l0.7-0.5l0.1,0.2l-0.5,0.4l0.1,0.1c0,0,0.3-0.3,0.4-0.3 c0.1,0,0.4-0.2,0.3,0c0,0.1-0.3,0.5-0.3,0.5l0.3,0.1l0.4-0.3l0.3,0.1l-0.4,0.6l0.4,0.3l0.3-0.4h0.1c0,0,0.1-0.2,0.4-0.4 c0.2-0.2,0.6-0.5,0.8-0.8L150,19.5z M134.5,16.7c0,0.4,0.1,2.6,0.1,2.6l0.4-0.1v-2.2L134.5,16.7z M135.8,17.3c0,0.1,0,1.6,0,1.8 l0,0.2l0.6,0c0,0,0.4-1.4,0.4-1.5c0-0.1-0.3-0.3-0.4-0.3C136.2,17.4,135.8,17.3,135.8,17.3z M137.3,17.7l-0.4,1.4l0.8-0.4 c0,0,0.4-0.7,0.4-0.8c0-0.1-0.1-0.2-0.2-0.2C137.7,17.7,137.3,17.7,137.3,17.7z M138.7,17.8l-0.3,0.6h0.5l0.3-0.6L138.7,17.8z M141,18.4C141,18.4,141,18.4,141,18.4c-0.1-0.4-0.4-0.8-1-0.5c-0.7,0.3-0.9,0.7-0.8,1c0,0.4,0.3,0.7,0.3,0.7l0.2-0.1 c0,0-0.3-0.6,0-0.8c0.4-0.3,0.5-0.4,0.7-0.4C140.7,18.3,141,18.5,141,18.4L141,18.4z M135.1,21.2c0-0.1-0.2-0.4,0-0.5 c0.3-0.2,1.1-0.4,1.4-0.4c0.2,0,0.4,0.6,0.4,0.6l0.2,0c0,0-0.2-0.5-0.4-0.9c-0.3-0.4-1.2-0.2-1.5,0c-0.3,0.1-0.6,0.5-0.6,0.7 c0,0.2,0.4,1,0.4,1l0.2-0.1C135.2,21.5,135.1,21.3,135.1,21.2z M137.7,20.4l-0.1-0.3c0,0,0-0.2,0.1-0.3c0.2-0.1,0.5-0.3,0.7-0.3 c0.2-0.1,0.3-0.1,0.3,0c0,0.1,0.2,0.3,0.2,0.3l0.4-0.1c0,0-0.3-0.4-0.4-0.6c-0.1-0.2-0.4-0.3-0.6-0.2c-0.2,0-0.6,0.1-1,0.5 c-0.4,0.4,0.2,1.1,0.2,1.1L137.7,20.4z M140.8,18.8l-0.2,0.2c0,0,0.2,0.2,0.5,0.4s0.9,0.1,1.1-0.2c0.1-0.3,0.3-0.6,0.3-1 c0-0.4-0.4-0.4-0.5-0.2c-0.1,0.3-0.8,1-0.8,1L140.8,18.8z M135.9,21.1c0,0.2-0.1,0.6-0.6,0.7c-0.4,0.1-0.7,0.2-0.8,0.2 c-0.1,0-0.2,0.7-0.1,0.9c0.1,0.3,0.6,0,0.9-0.2c0.4-0.1,0.8-0.4,0.8-1C136,21.1,135.9,21.1,135.9,21.1z M136.3,20.8 c-0.1,0-0.1,1.3,0.4,1.3c0.5,0,1.4-0.2,1.6-0.4c0.3-0.2,0.4-0.7,0.2-1c-0.2-0.4-0.5-0.3-0.5-0.3s0.1,0.2,0.1,0.3 c0,0.1,0.3,0.4-0.5,0.7c-0.7,0.2-1,0.1-1.1,0C136.5,21.1,136.4,20.7,136.3,20.8z M138.5,20.1c0,0.1,0.2,0.7,0.5,0.8 c0.2,0.1,0.2,0.3,0.9-0.2c0.7-0.4,1-0.6,0.7-1.1c-0.2-0.4-0.5-0.4-0.5-0.4s0,0.1,0.1,0.3c0.1,0.1-0.2,0.4-0.5,0.5 c-0.3,0.2-0.7,0.4-0.8,0.4C138.8,20.3,138.5,20.1,138.5,20.1z M138.9,22.2l0.3,0.1l-1.6,0.7l0.4,0.1l1.4-0.6l0.2,0.1l-1,0.5 l0.4,0.1l0.9-0.5l0.1,0.2l-0.6,0.4l0.3,0.2l0.6-0.3l0.1,0.2c0,0-0.4,0.3-0.2,0.3c0.1,0,5.7,1.8,6.1,1.8c0.4,0,0.9-0.1,0.9-0.1 c0.2,0,0.5-0.1,0.6-0.1c0.1,0,0.4,0.2,0.5,0.3c0.1,0,0,0.2-0.1,0.3c-0.1,0.1-0.5,0.2-0.5,0.2s0,0.2,0.2,0.3 c0.2,0.1,0.7,0.3,0.8,0.3c0.1,0,0.4-0.1,0.4-0.2c0.1-0.1,0.6-0.3,0.8-0.6c0.2-0.2-0.4-1.1-0.6-1.4c-0.3-0.3-0.6-0.4-0.7-0.4 c-0.2,0-0.6,0.2-0.8,0.3c-0.2,0.1-0.7,0-1.1,0c-0.3,0-1.8-0.6-1.9-0.6c-0.1,0-0.5-0.2-0.8-0.4c-0.3-0.3-0.6-0.6-1.1-0.7 c-0.5-0.1-1.5,0.6-1.5,0.6S141,23,141,22.9c-0.1-0.1-0.3-0.3-0.3-0.3s0.2,0,0.5-0.3c0.3-0.2,0.3-0.4,0.4-0.5 c0-0.1-0.1-0.4-0.1-0.4l0.4-0.2c0,0,0,0.3,0,0.4c0,0.1,0,0.7,0,0.7h0.2c0,0,0-0.3,0.1-0.4c0-0.1,0-0.3,0-0.4 c0-0.1-0.1-0.4-0.1-0.4l0.4-0.2c0,0,0,0.1,0,0.2c0,0,0.1,0.2,0.1,0.3c0.1,0.2,0.1,0.7,0.1,0.7l0.2,0c0,0,0-0.2,0.1-0.3 c0-0.1,0-0.4,0-0.5c0-0.1-0.1-0.5-0.1-0.5l0.3-0.2c0,0,0.3,0.1,0.3,0.2c0,0,0.1,0.3,0.1,0.5c0,0.2-0.1,0.8-0.1,0.8h0.3 c0,0,0,0,0-0.2c0-0.1,0.1-0.8,0.1-0.8s0.1,0,0.2,0.1c0,0,0.3,0.3,0.3,0.3s0,0.1,0,0.3c-0.1,0.2-0.2,0.5-0.2,0.5l0.2,0.2 c0,0,0.2-0.4,0.3-0.5c0.1-0.2,0.5-0.9,0.6-1c0-0.1,0.2-0.4,0.2-0.4l-0.2-0.2c0,0-0.1,0.1-0.2,0.2c0,0.1-0.2,0.3-0.2,0.3l-0.1-0.1 l0.2-0.6l-0.2-0.2l-0.3,0.6l-0.1-0.1c0,0,0-0.1,0-0.3c0-0.1,0.1-0.7,0.1-0.7l-0.3-0.1c0,0-0.1,0.2-0.1,0.3c0,0.1-0.2,0.6-0.2,0.6 l-0.1-0.1c0,0,0-0.3,0-0.4c0-0.1,0.1-0.5,0.1-0.5l-0.3-0.1c0,0-0.1,0.5-0.2,0.6c0,0-0.1,0.3-0.1,0.3l-0.1-0.1l0.1-0.7H143l0,0.7 c0,0-0.2,0-0.3,0c-0.1,0-0.4,0.3-0.4,0.3l-1.1-0.1v0.7c0,0-0.4,0.2-0.6,0.4c-0.2,0.1-1.1,0.6-1.1,0.6l-0.5-0.2 c0,0-0.1,0.4-0.4,0.6c-0.3,0.2-1.5,0.7-1.7,0.7c-0.1,0.1-0.5,0.3-0.5,0.3l0.5,0L138.9,22.2z M145.4,21.4 c-0.1,0.3-0.5,1.1-0.5,1.1l0.3,0.2c0,0,0.4-0.6,0.5-0.8c0.2-0.3,0.5-1.1,0.5-1.1l-0.4-0.3C145.8,20.6,145.5,21.1,145.4,21.4z M146.3,22.2c-0.1,0.2-0.5,0.9-0.5,0.9l0.5,0.2c0,0,0.2-0.5,0.3-0.6c0-0.1,0.4-1.2,0.4-1.2l-0.3-0.3 C146.7,21.3,146.4,22,146.3,22.2z M147.5,22.1c0,0-0.2,0.6-0.3,0.7c-0.1,0.2-0.3,0.7-0.3,0.7l0.4,0.1c0,0,0.3-0.6,0.3-0.7 c0-0.1,0.2-0.7,0.2-0.7L147.5,22.1z M150.6,21.5c0.1,0,0.1-0.6-0.3-0.7c-0.4,0-1.3,0.2-1.3,0.9c0,0.7,0.3,1.1,0.6,1.1 c0.8,0.2,0.9-0.2,0.9-0.2s-0.8-0.1-0.8-0.7c0-0.6,0.3-0.6,0.6-0.6C150.5,21.3,150.6,21.5,150.6,21.5z M150.2,22.1 c0,0.1,0.2,0,0.2,0s0.5-0.2,0.5-0.2c0,0,0.1,0,0.2,0c0,0.1,0.7,1.3,0.7,1.4c0,0,0,0.2,0,0.2c0,0-0.3,0.1-0.3,0.1l0.1,0.2 c0,0,0.2-0.1,0.4-0.1s0.3-0.4,0.2-0.6c-0.1-0.2-0.3-0.9-0.5-1.3c-0.2-0.4-0.5-0.3-0.7-0.2c-0.2,0.1-0.7,0.3-0.7,0.3 S150.1,22,150.2,22.1z M150.9,23.2c-0.2,0-0.3,0.2-0.5,0.4c-0.2,0.2,0,0.6,0.2,1.2c0.2,0.6,0.4,0.7,0.6,0.7 c0.2-0.1,0.7-0.3,0.8-0.3c0.1,0,0-0.2,0-0.2s-0.1,0-0.3-0.1c-0.2,0-0.3-0.1-0.4-0.3c0-0.1-0.4-1-0.4-1.1c0,0,0-0.1,0-0.1 c0.1,0,0.4-0.2,0.4-0.2s0,0,0-0.1c0,0-0.1-0.1-0.1-0.1S151.1,23.1,150.9,23.2z M151.8,24.5c0,0.1,0.4,0,0.4,0s0.4,0.7,0.5,0.9 c0.1,0.2,0,0.5-0.3,0.7c-0.2,0.1,0,0.3,0.2,0.2c0.2-0.1,0.4-0.3,0.6-0.4c0.1-0.1,0.1-0.4,0-0.7c-0.2-0.4-0.5-1.1-0.6-1.1 c-0.1,0-0.2-0.1-0.4,0c-0.2,0.1-0.5,0.2-0.5,0.2L151.8,24.5z M153.6,26.7c0-0.2-0.4-0.1-0.3,0.1c0.1,0.2,0,0.3,0.2,0.4 c0.1,0.1,0.4,0.2,0.4-0.1C153.7,26.9,153.6,26.7,153.6,26.7z M152.2,25.4c-0.1,0.2-0.4,0.4-0.6,0.6c-0.2,0.3-0.1,0.7,0,0.9 c0.2,0.3,0.4,0.2,0.4,0.2c0.1,0,0.3-0.2,0.2-0.3c0-0.1-0.1-0.3-0.2-0.5c0-0.3,0.1-0.5,0.2-0.6c0.1-0.1,0.2-0.2,0.2-0.3 C152.6,25.6,152.4,25.3,152.2,25.4z M150.7,20.6c0,0.1,0,0.2,0.3,0.1c0.3-0.1,0.8-0.4,0.8-0.4s0.2,0.7,0.7,0.7 c0.4,0,1.6-0.1,1.6-0.1V21c0,0-0.8,0.4-0.9,0.5c-0.1,0.2-0.3,0.6,0,0.5c0.3-0.1,0.9-0.4,0.9-0.4l0,0.3c0,0-0.7,0.5-0.7,0.6 s0,0.4,0.2,0.3c0.3-0.1,0.8,0,0.8,0l0.1,0.4c0,0-0.5,0.3-0.6,0.4c-0.1,0.1,0,0.4,0.2,0.4c0.3,0,0.5,0,0.5,0l0.1,0.6 c0,0-0.4,0.2-0.5,0.3c-0.1,0.1-0.1,0.3,0.1,0.4c0.3,0,0.7,0.1,0.7,0.1l0.1,0.4c0,0-0.2,0.1-0.4,0.3c-0.2,0.1-0.2,0.4,0.1,0.4 c0.3,0,0.5,0,0.6,0.1c0.1,0.1,0.2,0.3,0,0.3c-0.1,0-0.3,0-0.4,0.1c-0.1,0-0.4,0.5,0.1,0.6c0.5,0.1,1.2-0.2,1.2-0.2l0.1,0.3 c0,0-0.5,0.3-0.7,0.4c-0.1,0.1-0.2,0.4,0.2,0.8c0.5,0.5,1.1,1,1.4,1.1h0.4c0,0-0.3-0.7-0.4-0.9c-0.1-0.2-0.3-0.7-0.4-0.9 c0-0.2,0.2-0.1,0.2,0c0.1,0.1,0.8,1.2,1.1,1.3c0.2,0.1,0.3,0.1,0.2-0.3c-0.1-0.4-1-1.7-1.1-2c-0.1-0.2-0.2-0.7-0.2-0.7 s-0.6-0.4-0.7-0.7c-0.1-0.2-1.2-2.4-1.3-3c-0.2-0.6-0.5-2.7-0.8-2.8c-0.3-0.1-1.1-0.7-1.8-0.5c-0.7,0.3-1.3,0.7-1.4,0.7 c-0.1,0.1-0.1,0.3-0.3,0.3C150.9,20.3,150.7,20.6,150.7,20.6z M156,18.4c0,0.1-0.1,0.5,0,0.7c0.1,0.1,0.3,1.4,0.3,1.6 c0,0.3-0.2,0.5,0.1,0.5s0.7-0.1,0.8-0.3c0.1-0.1,0-0.6-0.1-0.9c-0.1-0.3-0.4-1.1-0.6-1.3c-0.2-0.1-0.2-0.1-0.3-0.2 C156.1,18.4,156,18.4,156,18.4z M136.7,11.7c0.1,0.2,0.3,0.5,0.4,0.7c0.1,0.1,0.2,0.4,0.5,0c0.3-0.3,0.7-0.2,1-0.2s0.5,0,0.5-0.1 c0-0.1-0.4-0.3-0.6-0.4c-0.2-0.1-0.4,0-0.6,0c-0.2,0.1-0.7,0.3-0.8,0.2c-0.1-0.1-0.3-0.5-0.4-0.5 C136.8,11.4,136.7,11.6,136.7,11.7z M137.6,12.9c-0.1,0.2-0.1,0.6-0.5,0.7c-0.4,0.2-0.9,0.3-1,0.4c-0.1,0.2-0.3,0.3-0.3,0.5 c-0.1,0.2,0.1,0.1,0.3,0c0.2-0.1,0.8-0.2,1.1-0.2c0.3,0,0.7,0,0.9-0.4c0.2-0.3,0.1-0.5,0.2-0.7c0.1-0.2,0.2-0.5,0.2-0.5 L137.6,12.9z M132.2,8.5l-0.3,0.4l0.3,3.2l0.3-0.4L132.2,8.5z M131.7,9.4l-0.4,0.3l0,0.9l0.3,0.2L131.7,9.4z M134.8,10.3l-1.8,1 v0.2l1.5-0.7L134.8,10.3z M133,11.8l-0.1,0.2l0.9-0.2l0.4-0.5L133,11.8z M132.4,12.4l0.2,0.3l1.8,0.2l0.3-0.4L132.4,12.4z M133.1,13.5l0.8-0.1l0.3-0.3h-1.3L133.1,13.5z M161.6,19.2c0,0.2,0.4,0.9,0.7,1.2c0.3,0.3,0.5,0.5,0.7,0.5s1.2-0.7,1.4-0.8 c0.2-0.1,1-0.4,0.8-0.4c-0.1,0-1.5,0.1-1.5,0.1s0.4-0.7,0.4-1.1c0-0.4,0.3-1.3,0.3-1.3s-0.4,0.4-0.6,0.8 c-0.1,0.3-0.9,1.4-0.9,1.4l-1.4-0.8C161.6,18.7,161.6,19,161.6,19.2z M163.6,21.1c0,0,0,0.7,0.2,0.7c0.2,0,0.8-0.5,1.1-0.6 c0.3,0,1.2-0.4,1.2-0.4s-0.8,0-1.2,0.1C164.4,20.9,163.6,21.1,163.6,21.1z M163.9,26c-0.4,0.3-0.3,0.4-0.1,0.4 c0.1,0,2.1,1,2.2,1.1c0.2,0.1,0.5-0.3,0.3-0.4c-0.2-0.1-1.4-0.9-1.4-0.9s0.6-0.5,0.8-0.6c0.2-0.2,0.7-0.7,0.7-0.8 C166.3,24.8,164.4,25.8,163.9,26z M156.6,22.8l-0.1,0.7l0.1,0.3l0.4-0.6l0.4,0.2L157,24l0.5-0.4h0.7c0,0,0-0.1,0.1-0.3 c0.1-0.1,0.3-0.4,0.3-0.4L159,23c0,0,0.3,0.1,0.2-0.1c-0.1-0.3-0.8-0.7-1.6-0.9c-0.9-0.1-1.6,0.7-1.6,0.7S156.6,22.8,156.6,22.8z M158.6,18.9c-0.2,0.1-0.3,0.3-0.3,0.6c0,0.4,0,0.7-0.1,0.9c-0.1,0.3-0.4,0.9-0.4,0.9l0.5,0.1c0,0,0.4-0.7,0.6-1 c0.1-0.2,0.2-0.4,0.2-0.4l0.2,0.1c0,0-0.2,0.5-0.3,0.7c-0.1,0.1-0.3,0.6-0.3,0.6l0.3,0c0,0,0.3-0.4,0.4-0.6 c0.1-0.2,0.4-0.7,0.4-0.7l0.3,0.1c0,0-0.3,0.5-0.4,0.7c-0.1,0.2-0.3,0.7-0.3,0.7l0.2,0.1c0,0,0.5-0.5,0.7-0.8 c0.2-0.3,0.3-0.6,0.3-0.6l0.3,0.1c0,0-0.1,0.6-0.3,0.7c-0.2,0.2-0.3,0.7-0.3,0.7h0.2c0,0,0.5-0.5,0.6-0.6 c0.1-0.1,0.2-0.4,0.2-0.4l0.4,0.2c0,0-0.2,0.3-0.3,0.4c-0.1,0.1-0.7,0.7-0.7,0.7l0.3,0.2c0,0,0.5-0.4,0.7-0.5 c0.2-0.1,0.4-0.4,0.4-0.4l0.2,0.4c0,0-0.4,0.3-0.5,0.4c-0.1,0.1-0.4,0.4-0.4,0.4l0.4,0.1c0,0,0.4-0.5,0.7-0.6 c0.4-0.1,0.5-0.5,0.3-0.5c-0.2-0.1,0.1-0.3,0.1-0.5c0-0.2-0.3-0.3-0.5-0.3c-0.2,0,0.1-0.5-0.2-0.6c-0.3-0.1-0.6,0-0.7,0 c-0.1,0,0-0.4-0.2-0.6c-0.2-0.1-0.7,0-0.7,0s0-0.5-0.3-0.5c-0.2,0-0.7,0.2-0.7,0.2S159.2,18.7,158.6,18.9z M159.7,22.5 L159.7,22.5c-0.1,0.1-0.6,1.1-0.7,1.4c-0.1,0.3-0.7,0.9-0.7,0.9s-0.2-0.2-0.3-0.3c-0.1-0.2-0.5-0.4-0.5-0.4s0.2,0.6,0.2,1 c0,0.5,0.3,1.3,0.3,1.3s1.1-0.2,1.8-0.6c0.7-0.4,1.4-1.2,1.4-1.2s-0.3-0.1-0.6-0.1c-0.3,0-1,0.1-1,0.1s0.1-0.4,0.1-0.9v-1.1 L159.7,22.5z M161.9,23.4c0,0-0.3,1.6-0.4,2.2c-0.1,0.6-0.2,0.9-0.2,0.9s0.5,0.1,0.8,0.3c0.4,0.2,1.1,0.6,1.1,0.6l-0.2-0.5 l-0.8-0.5c0,0,1.1-0.8,1.5-1.3c0.4-0.5,0.6-1,0.6-1s-1.5,0.6-1.7,0.8c-0.2,0.1-0.5,0.3-0.5,0.3L161.9,23.4z M161,25.8 c0,0-0.6,0.4-1,0.6c-0.4,0.2-1,0.5-1,0.5s0.9,0.7,1.2,0.9c0.3,0.2,1.1,1,1.1,1l0.1-0.1c0,0-0.3-0.6-0.5-0.8 c-0.2-0.3-0.7-0.8-0.7-0.8s1,0.4,1.3,0.4c0.3,0,0.7,0,0.7,0s-0.1-0.1-0.4-0.3c-0.3-0.2-1.3-0.9-1.3-0.9l0.4-0.4L161,25.8z M151.6,29.1c0.4,1,1.3,1.4,2.2,1.4s1.1-0.4,1.1-0.7c-0.1-0.2,0-0.3-0.3-0.8c-0.4-0.5-1.4-0.7-1.9-0.7 C151.5,28.2,151.4,28.7,151.6,29.1z M152.4,28.7c0.1,0.2,0.5,0.8,0.6,1c0.1,0.3,0.5,0.5,0.6,0.5c0.4,0,0.4-0.1,0.3-0.4 c-0.1-0.3-0.3-0.7-0.5-1c-0.2-0.3-0.4-0.4-0.6-0.4C152.8,28.5,152.3,28.5,152.4,28.7z M147.8,27.5c0,0,0.3,0.1,0.4,0.3 c0.1,0.2,0.4,1.4,0.5,1.5c0.1,0.2-0.3,0-0.3,0v0.1l1.8,0.3l0-0.1c0,0-0.4-0.1-0.4-0.2c0-0.1-0.2-0.5-0.2-0.5s0.4,0.2,0.7,0.4 c0.2,0.2,0.4,0.7,0.5,0.7c0.1,0,1.3,0.2,1.3,0.2l0-0.1c0,0-0.2,0-0.4-0.2c-0.2-0.2-0.3-0.5-0.4-0.7c-0.1-0.1-0.4-0.3-0.4-0.3 s0.5-0.4,0.4-0.5c0-0.1,0-0.4-0.6-0.5c-0.5-0.1-3-0.6-3-0.6L147.8,27.5z M144.5,26.8c0,0,0.4,0.1,0.4,0.3c0,0.2,0.2,1.2,0.3,1.4 c0,0.2-0.4,0-0.4,0l0,0.2c0,0,2,0.5,2.4,0.5c0.4,0,0.8-0.3,0.8-0.4s-0.1-0.7-0.1-0.8c0,0-0.4-0.7-0.9-0.8 c-0.4-0.1-2.1-0.5-2.4-0.6c0,0-0.1,0-0.1,0L144.5,26.8z M149.3,27.9l0.2,0.7c0,0,0.5,0.1,0.6,0.1c0.1,0,0.3-0.2,0.2-0.4 c-0.1-0.2-0.2-0.4-0.4-0.4C149.6,27.9,149.3,27.9,149.3,27.9z M143.8,27.7l0.7,0.8l0.4-0.6l-0.6-0.7L143.8,27.7z M140.3,25.3v0.2 c0,0,0.4,0.3,0.4,0.4c0,0.2,0.2,0.8,0.2,1.1c0,0.4-0.4,0.2-0.4,0.2v0.1l1.4,0.4v-0.2c0,0-0.3-0.1-0.3-0.2c0-0.2-0.1-1.1-0.1-1.1 l1.4,1.9l0.7,0.2c0,0-0.3-1.7-0.3-1.8c0-0.1,0.5,0.1,0.5,0.1v-0.2l-1.5-0.5l0,0.2c0,0,0.3,0.3,0.4,0.4c0,0.1,0.1,1,0.1,1 l-1.1-1.7l-1.4-0.4L140.3,25.3z M138.9,25.4c0,0.2,0,0.6,0.1,0.9c0,0.3,0.1,0.5,0.4,0.6c0.2,0,0.4,0,0.3-0.2c0-0.2-0.1-0.8-0.1-1 c0-0.2-0.2-0.5-0.4-0.5C138.9,25.1,138.9,25.3,138.9,25.4z M137.9,25.6c0,0.2,0.5,1.5,1.5,1.5c1,0.1,1.1-0.3,1.1-0.5 c0-0.2,0-0.4-0.2-0.8c-0.2-0.4-1-0.8-1.2-0.8C137.9,24.7,137.9,25.3,137.9,25.6z M133.6,25c0,0,0.3,0,0.4,0.1 c0.1,0.2,0.4,1,0.4,1.3c0.1,0.3-0.5,0.4-0.5,0.4l0,0.2l1.3-0.4l-0.1-0.1c0,0-0.3,0.1-0.4-0.1c-0.1-0.2-0.3-1-0.3-1l1.2,1.2h0.3 l0.5-1.5c0,0,0.2,0.8,0.2,1.1s-0.3,0.2-0.3,0.2l0.1,0.2h0.6c0.2,0,1,0.1,1,0.1l-0.1-0.1c0,0-0.4-0.2-0.5-0.4 c-0.1-0.3-0.2-1-0.2-1.2c0-0.2,0.5-0.2,0.5-0.2l0-0.2l-1.4-0.1l-0.5,1.1l-1.1-0.9l-1.2,0.3L133.6,25z M123.1,2.8 c0,0,0.3-0.1,0.4-0.1c0.2,0,0.3,0.2,0.3,0.2l0.8-0.9l-2.3-0.2L123.1,2.8z M122,3.7l1-0.3V3.2L122,2.5L122,3.7z M124.2,3.5 l0.9,0.4l0-1.3l-0.9,0.7L124.2,3.5z M123.6,3.8c0.6,0,0.4-0.7-0.1-0.7C123,3.1,123,3.8,123.6,3.8z M122.7,4.8c0,0,1.9,0,1.9,0 c0-0.7-0.6-0.8-1-0.8C122.8,3.9,122.7,4.8,122.7,4.8z M125.4,5c-0.6,0.9-0.6,2.1-0.6,2.1l0.2,0c0,0,0.5-1.4,0.7-1.7 c0.3-0.6,1.1-1.2,1.1-1.2s0,0.1,0.1,0.2c0.1,0.1,0.1,0,0.1,0l-0.2-0.9C126.9,3.5,126,4.1,125.4,5z M127.4,4.1 c0.1,0.3,0.5,0.2,0.5-0.1C127.8,3.8,127.4,3.8,127.4,4.1z M128.4,3.8c0,0.4,0.5,0.3,0.5,0S128.4,3.5,128.4,3.8z M129.6,3.7 c-0.2,0.2,0,0.6,0.3,0.3C130.2,3.8,129.7,3.6,129.6,3.7z M130.5,4.4c-0.2,0.1,0.1,0.6,0.4,0.4C131.1,4.5,130.7,4.2,130.5,4.4z M131,5.6c0,0.4,0.5,0.3,0.5,0C131.5,5.3,131,5.4,131,5.6z M126.4,5.8c0,0,1.1-0.5,2-0.6c0.9-0.1,1.6,0.8,1.4,1.4 c-0.3,0.7-1.4,1.5-1.4,1.5l0.3,0.2c0,0,1.2-0.8,1.5-1.2c0.3-0.3,0.9-1.5-0.1-2.4c-1-0.8-2.7-0.1-3.1,0.3 c-0.3,0.3-0.6,0.7-0.6,0.7L126.4,5.8z M127.4,7.7c0.7,0.3,1.3-0.2,1.3-1.1c0-0.9-1.4-1-1.6-0.7c-0.3,0.3-1,1.3-1,1.3 S126.7,7.5,127.4,7.7z M124.4,7.1c0.1-0.4,0.1-0.9-0.8-0.9c-1,0-0.6,0.9-0.6,0.9S123.9,7.2,124.4,7.1z M122.9,5.1 c-0.2,0-0.1,0.2,0,0.4c0,0.2,0.1,0.4,0.1,0.4l0.4,0c0,0,0,0.1,0-0.2c0-0.3,0.4-0.2,0.4,0c0,0.2,0,0.3,0,0.3l0.4,0 c0,0,0.1-0.1,0.2-0.4c0-0.3,0-0.4-0.3-0.4C123.8,5.1,122.9,5.1,122.9,5.1z M120.6,3.5c0,0-0.3,0.5-0.3,0.7 c-0.1,0.2,0,0.3,0.1,0.2c0.1-0.1,0.2-0.1,0.2-0.1s0.4,0,0.9,0.7c0.2,0.4,1,2.1,1,2.1h0.2c0,0-0.2-1.5-0.7-2.3 C121.4,4,120.6,3.5,120.6,3.5z M121.3,7.4c0,0-0.8-1.8-1.8-1.5c-1.1,0.2-1.1,1-1,1.4c0.2,0.4,0.8,0.9,1.5,0.7 C120.6,7.6,121.3,7.4,121.3,7.4z M120.5,4.9c-0.7-0.4-0.9-0.5-1.9-0.5c-1,0-2.1,1.1-2.1,2.1c0.1,1.1,2,2,2,2l0.2-0.1 c0,0-1.1-0.7-1.3-1.3c-0.2-0.6-0.2-1.2,1-1.7c1.1-0.5,2.9,0.6,2.9,0.6l0-0.1L120.5,4.9z M119.1,3.7c-0.1,0.4,0.3,0.5,0.4,0.2 C119.7,3.6,119.2,3.5,119.1,3.7z M117.8,3.8c0,0.4,0.6,0.3,0.5,0C118.2,3.4,117.8,3.5,117.8,3.8z M118.1,9 c-0.3,0.1-0.1,0.9,0.7,0.5c0.8-0.4,2.2-1.3,4.7-1.4c3.4,0,5,1.3,5,1.3c0.2,0.1,0.7-0.4,0.2-0.7c-1.3-0.8-3.2-1.2-5.2-1.3 C120.4,7.5,118.3,8.9,118.1,9z M116.9,4.3c0.3,0.4,0.7,0.1,0.5-0.2C117.3,3.9,116.7,3.9,116.9,4.3z M116.1,4.9 c0.4,0.4,0.7,0.1,0.5-0.3C116.4,4.3,115.8,4.7,116.1,4.9z M115.9,6c0.3,0.1,0.3-0.3,0-0.4C115.7,5.6,115.5,6,115.9,6z M115.9,11.3l0.3-0.3l0.1-0.9L116,9.7L115.9,11.3z M115.2,11.5l0.3,0.1l0.2-2.1l-0.5-0.7L115.2,11.5z M113,11.7l2.1,0.7l0.2-0.3 l-2.5-0.8L113,11.7z M113.5,12.4l1.2,0.4l0.2-0.3l-1.6-0.5L113.5,12.4z M113.3,13.4l0.3,0.3l0.9-0.2l0.1-0.3L113.3,13.4z M92.2,20.2c0,0-0.5-0.4-0.8-0.6c-0.6-0.3-1.1-0.1-1.6,0c-0.4,0-1,0.7-1,0.7l0,0.9c0,0,0.5-0.8,1.2-1.2 C90.5,19.9,91.8,20.2,92.2,20.2L92.2,20.2z M90.8,20.6c-0.8-0.3-1.2,0.3-1.6,1c-0.4,0.7,0.5,1.3,0.9,0.9c0.4-0.3,2-1.6,2-1.6 S91.6,20.8,90.8,20.6z M88.7,23.3c0.8,0.7,2,0.2,2.7-0.4c0.8-0.5,2.1-1,2.1-1l0.1,0.3c0,0-1.1,0.7-1.5,1 c-0.4,0.3-1.4,1.2-1.4,1.4c-0.1,0.2,0.8-0.4,1.2-0.6c0.4-0.3,2.4-1.2,2.4-1.2l0.2,0.3c0,0-1.8,1-2.5,1.5 c-0.6,0.5-1.4,2.1-1.1,1.8s1.4-1.1,2.1-1.5c0.7-0.5,2-1,2-1l0.2,0.3c0,0-1.7,0.9-2.2,1.4c-0.6,0.4-1.2,1.4-1.1,1.3 c0.1-0.1,1.3-0.8,1.7-1.1c0.4-0.3,2-0.7,2-0.7l0,0.3c0,0-1.7,1.2-1.9,1.4c-0.2,0.2-0.1,0.4,0.4,0.2c0.6-0.2,2.1-1,2.1-1l0.1,0.2 L95.4,27c0,0,1.3-0.2,1.7-0.3c0.4-0.1,2.4-0.7,2.4-0.7s-1.1-0.6-1.9-1c-0.9-0.4-2.1-2.5-2.5-3.8c-0.4-1.3-1.7-0.8-1.9-0.7 c-0.2,0.2-1.8,1.7-2,1.8c-0.1,0.1-1.1,1.1-2,1c-0.9-0.1-0.7-1.7-0.7-1.7S87.9,22.5,88.7,23.3z M83.3,14.3c0,0.2-0.1,0.3,0.5,0.5 c0.7,0.2,1.1,0.2,1.5,0.2c0.4,0,0.7,0.3,0.6,0.7c-0.1,0.3-0.2,1.1-0.2,1.3c0.1,0.2,0.4,0.7,0.4,0.7l0.3-0.1c0,0-0.5-0.8-0.3-1.2 s0.1-1.2-0.1-1.4c-0.2-0.2-0.3-0.3-0.7-0.2c-0.4,0-0.8,0-1.3-0.1C83.6,14.4,83.3,14.2,83.3,14.3L83.3,14.3L83.3,14.3z M84.7,14.3 c0.3,0,1.4,0,1.7,0.3c0.3,0.4,0.3,0.8,0.2,1.5c-0.1,0.7,0.4,1.8,1.3,1.5c0.8-0.2,1.5-1,1.8-1.1c0.3-0.1,2.4-0.5,3.3-0.4 c0.9,0.1,1.5,0.7,1.7,1.2c0.1,0.5,0.4,1.3,0.2,1.8c-0.2,0.4,0.4-0.1,0.5-0.5c0-0.3-0.2-2.1-1.1-2.6c-0.7-0.4-1.6-0.6-2.8-0.4 c-1.1,0.1-1.8,0.2-2.1,0.4c-0.3,0.3-0.5,0.3-0.5,0.2c0-0.1-0.1-0.9-0.3-1.2c-0.2-0.5-0.7-0.6-0.7-0.6s0.3,0.4,0.3,0.6 c0,0.2,0.1,0.5,0.2,0.9c0,0.3,0.1,0.6,0.1,0.6l-0.4,0.1c0,0-0.2-0.6-0.4-1.4c-0.2-0.8-1.2-1.2-1.5-1.2 C85.9,13.9,84.8,14.3,84.7,14.3L84.7,14.3z M88.5,19.3c0.1,0.2-0.1,0.3-0.1,0.3l0.5,0.2c0,0,0.3-0.2,0.5-0.3 c0.2-0.1,1.2-0.3,1.5-0.3c0.4,0,1.8,0.5,2.5,0.6c0.7,0,1.1-0.5,1.1-1.2c0-0.6-0.4-1.6-1.4-1.8c-0.8-0.2-3,0.5-3.2,0.5 c-0.1,0-0.4,0.8-0.7,1.1c-0.3,0.4-0.9,0.3-0.9,0.3S88.4,19.2,88.5,19.3z M78.7,18.8c0.2,0.3,0.5,0.5,0.5,0.5s0,0,0,0.1 c0,0.1,0.3,0.2,0.3,0.2l-0.1,0.2l0.3,0c0.2,0.1,0.4,0.1,0.4,0.1l-0.4,0.3c0,0,0.1,0.1,0.4,0.1c0.3,0,0.7,0,0.7,0l-0.3,0.3 c0,0,0.2,0,0.5,0c0.3,0,0.9-0.3,0.9-0.3s-0.3-0.4-0.5-0.5c-0.2-0.1-0.6-0.3-0.6-0.3s0-0.1-0.2-0.2c-0.1-0.1-0.4-0.1-0.6-0.1 c-0.1,0-0.4-0.2-0.6-0.4c-0.2-0.3-0.6-0.6-0.6-0.6S78.6,18.5,78.7,18.8z M82.4,18.2c0,0.6,0.4,1.1,0.6,1.1c0.2,0,0.3-0.4,0.2-0.8 c-0.1-0.4-0.4-1.5-0.4-1.8C82.8,16.7,82.5,17.6,82.4,18.2z M85.8,20.5c-0.1,0.1,0.1,0.6,0.4,0.4C86.4,20.6,86,20.2,85.8,20.5z M85.9,21.7c0.3,0.1,0.5-0.4,0.2-0.5C85.9,21.1,85.6,21.6,85.9,21.7z M84.7,21c0.3,0.1,0.6-0.3,0.3-0.4 C84.9,20.4,84.4,20.8,84.7,21z M84.7,20.2c0.2,0.1,0.2-0.3,0.3-0.7c0-0.4-0.2-0.6-0.5-0.7c-0.3-0.1-0.6,0.4-0.6,0.5 c0,0.1-0.6,0.3-0.9,0.5c-0.3,0.2-0.3,0.8,0,1c0.3,0.2,0.7-0.2,0.7-0.3c0-0.1-0.3-0.1-0.3-0.1s0.2-0.2,0.4-0.1 c0.2,0.1,0.4,0.4,0.5,0.4c0.2,0,0.4-0.2,0.3-0.3c-0.1-0.1-0.4-0.3-0.4-0.3s0-0.2,0.1-0.2C84.3,19.9,84.6,20.1,84.7,20.2z M85.7,19.5l0.2-0.2l0,0.8H86c0,0,0.1-0.3,0.1-0.4c0-0.1,0.1-0.5,0.1-0.5h0.4c0,0-0.3,0.8-0.4,0.9c-0.1,0.2,0,0.2,0.1,0 c0.1-0.1,0.4-0.8,0.4-0.8l0.3,0.1c0,0,0,0.1-0.1,0.3c0,0.2-0.5,0.6-0.5,0.6s0,0.1,0.2,0.1c0.1-0.1,0.7-0.5,1.1-0.7 c0.4-0.3,0.3-0.4,0.2-0.6c-0.1-0.2-0.5-0.5-0.7-0.7s-0.7-0.3-1.2-0.1c-0.5,0.1-0.7,0.7-0.7,0.9c0,0.2,0,1,0.1,1 c0.1,0,0.2-0.1,0.2-0.1L85.7,19.5z M85.3,21c0,0.4,0.4,0.4,0.4,0.1C85.7,20.6,85.3,20.9,85.3,21z M83.9,20.9 c-0.3,0.1-0.1,0.4,0.1,0.3C84.2,21.1,84,20.8,83.9,20.9z M84.3,21c-0.1,0.2,0,0.4,0.3,0.2C84.9,21.1,84.3,20.9,84.3,21z M84.8,21.3c-0.1,0.2,0.2,0.4,0.4,0.2C85.3,21.2,84.9,21.1,84.8,21.3z M83.5,21.9c0.2,0,0.2-0.5,0-0.5 C83.2,21.4,83.3,21.9,83.5,21.9z M82.5,21.3c-0.1,0.1-0.3,0.3-0.2,0.4c0,0.2,0.1,0.5,0,0.6c-0.1,0.1-0.6,0.7-0.7,0.8 c0,0.2-0.1,0.4,0.1,0.4c0.3,0,0.9-0.2,1.1-0.2c0.2-0.1,0.5-0.3,0.5-0.3s0-0.2,0-0.3c0.1-0.1,0.2-0.2,0.2-0.2s-0.1-0.1-0.1-0.3 c0-0.1,0.1-0.2,0.1-0.2s-0.3-0.1-0.3-0.4c0-0.2,0-0.5,0-0.5L82.5,21.3L82.5,21.3z M79.9,22.2c0,0-0.1,0-0.1,0.1 c0,0.1,0.9,0.3,0.9,0.3s-0.3,0.1-0.1,0.2c0.2,0.1,0.5,0,0.5,0s-0.1,0.4,0,0.4c0.1,0,0.7-0.6,0.8-0.7c0.1-0.1-0.2-0.3-0.4-0.3 c-0.2,0-1.8-0.1-1.8-0.1L79.9,22.2z M83.9,21.5c-0.1,0.3,0.1,0.4,0.3,0.2C84.5,21.5,84,21.4,83.9,21.5z M85.3,21.7 c-0.2,0.1,0,0.6,0.2,0.5C85.8,22,85.6,21.5,85.3,21.7z M84.6,22c0.3,0,0.3-0.4,0-0.4C84.3,21.7,84.4,22,84.6,22z M84.7,22.4 c0,0.5,0.6,0.2,0.6,0C85.2,22.2,84.7,22,84.7,22.4z M84.5,22.6c-0.4,0-0.4,0.4-0.1,0.4C84.7,23,84.7,22.5,84.5,22.6z M83.8,23.4 c0.5,0,0.3-0.7,0-0.6C83.6,22.8,83.3,23.3,83.8,23.4z M83.9,22.1c-0.2,0.2,0.1,0.6,0.4,0.3C84.5,22.1,84,22,83.9,22.1z M86.8,20.9c0.1,0,0.7-0.2,0.8-0.2c0.2,0,0,0.4-0.1,0.4c-0.1,0-1.1,0.2-1.1,0.2l0,0.3c0,0,0.8,0,0.9,0c0.1,0-0.1,0.4-0.1,0.4 c-0.1,0-1.1,0-1.1,0L86,22.3c0,0,0.7,0.5,1,0.5c0.2,0.1,0.1,0.2,0.5,0.2s0.8-1.4,1.1-1.9c0.2-0.5,0-1-0.1-1.2 c-0.2-0.1-0.7,0.4-0.8,0.5c-0.2,0.1-0.8,0.3-0.8,0.3L86.5,21C86.5,21,86.8,20.9,86.8,20.9z M85.5,22.4l-0.2,0.3l0.3,0.7l-0.3,0.2 c0,0-0.1-0.4-0.1-0.6c0-0.1-0.3,0-0.3,0.2c0,0.1,0.1,0.7,0.1,0.7h-0.4c0,0,0-0.3,0-0.4c0-0.1-0.3-0.1-0.3,0c0,0.1,0,0.4,0,0.4 l-0.5,0.1l0.3-0.5h-0.4c0,0-0.7,0.7-0.7,0.9c0,0.1,0.1,0.2,0.4,0.2c0.3,0,0.6-0.2,1-0.2c0.4,0,0.8,0,1.1,0 c0.2-0.1,0.3-0.1,0.5-0.2c0.3-0.1,0.9-0.3,1-0.5c0-0.2-0.1-0.3-0.1-0.3s0-0.3-0.2-0.4c-0.1-0.1,0-0.2-0.1-0.3 c-0.2-0.2-0.4-0.2-0.4-0.3C85.8,22.4,85.5,22.4,85.5,22.4z M81.8,26.7c0,0.1,0,0.4,0.2,0.3c0.3,0,0.6-0.2,0.6-0.2s0,0.2,0.2,0.2 c0.2,0,0.4-0.2,0.4-0.2s-0.1,0.3,0,0.2c0.2,0,0.6-0.5,0.6-0.5s0.2,0.2,0.3,0c0.1-0.2,0.1-0.4,0.1-0.4s0.2,0.2,0.3,0 c0.1-0.2,0-0.6,0-0.6s0.3-0.2,0.3-0.3c0-0.1-0.2-0.2-0.3-0.2c-0.1,0.1-1.2,0.8-1.4,0.9C82.7,26.2,81.8,26.7,81.8,26.7z M86.3,24.8c0-0.1,0.2-0.2,0.2,0c0,0.1,0,0.7,0,0.7s0.1,0,0.2-0.1c0.1-0.1,0.1-0.5,0.1-0.7c0-0.1,0.3,0.1,0.3,0.2v0.8 c0,0,0.5,0,0.6,0c0.1,0,0.1-0.4,0-0.5c-0.1-0.2-0.4-0.9-1.1-0.9c-0.7,0-0.7,0.5-0.7,0.7C86.1,25,86.3,24.9,86.3,24.8z M88.7,26.5 c0,0.1,0.2,0.7,0.8,0.8c0.6,0.1,0.7-0.2,0.5-0.3c-0.2-0.1-0.9-0.4-1-0.5C88.9,26.4,88.7,26.3,88.7,26.5z M88.3,25.6v-0.3 c0-0.1,0.1-0.2,0.2-0.1c0.1,0.2,0.1,0.3,0.1,0.3h0.1c0,0,0-0.7,0-0.8c0-0.1,0.3-0.2,0.3-0.1v0.3c0,0.1,0,0.4,0.2,0.2 c0.2-0.1,0.4-0.4,0.4-0.6c0.1-0.2-0.4-0.8-1.2-0.8c-0.9,0-0.4,1.7-0.3,1.9L88.3,25.6L88.3,25.6z M88.9,26.2 c0.3,0.1,0.6,0.2,1.1,0c0.5-0.2,0.6-0.8,0.5-1.1c-0.1-0.2-0.7-0.4-0.8-0.1c-0.1,0.3-1.3,1.1-1.3,1.1S88.6,26.1,88.9,26.2z M87.9,26.6c0,0,0,0.3-0.1,0.7c-0.1,0.4-0.6,0.5-0.4,1c0.1,0.5,0.6,0.2,0.9,0c0.3-0.3,0.4-0.8,0.1-1.1c-0.3-0.2-0.3-0.7-0.3-0.7 L87.9,26.6z M86.5,25.8c-0.4-0.2-0.7-0.5-0.7-0.6c0-0.1-0.7,0.4-0.9,0.6c-0.1,0.3,0.7,1.1,1.1,1c0.3-0.1,1.4-0.7,1.4-0.7 S86.9,26,86.5,25.8z M87.6,26.6c0,0,0,0.1-0.5,0.2c-0.5,0-0.9,0.3-1.1,0.7c-0.2,0.4,0.2,0.7,0.5,0.7c0.2-0.1,0.6-0.4,0.9-0.6 c0.3-0.3,0.4-0.9,0.4-1.1L87.6,26.6z M98,4.9c-0.3,0.1-0.4,0.6-0.2,1c0.2,0.4,0.5,0.4,0.9,0.2C99,5.9,99,5.5,98.8,5.3 C98.7,5.1,98.3,4.8,98,4.9z M100,4.6c-0.1,0.1,0.1,0.4,0.1,0.4s-0.2,0.2-0.2,0.4c0,0.3,0.2,0.4,0.2,0.4s0.4-0.9,0.8-1.2 c0.4-0.3,0.7-0.5,1-0.4c0.4,0.1,0.4,0.6,0.4,0.8c-0.1,0.2-0.2,0.4-0.2,0.4s0.4-0.2,0.5-0.3c0.1,0,0.6,0.2,0.6-0.1 c0-0.2-0.5-0.1-0.5-0.2c0,0,0-0.1,0-0.2c0-0.1-0.1-0.3-0.1-0.3s0.4-0.2,0.2-0.4c-0.2-0.2-0.4,0.1-0.4,0.1l-0.4-0.1 c0,0,0.3-0.5,0-0.5c-0.4,0-0.3,0.5-0.3,0.5l-0.6,0.2c0,0-0.2-0.4-0.3-0.3c-0.2,0.1,0.1,0.6,0.1,0.6l-0.4,0.4 C100.3,4.6,100.1,4.4,100,4.6z M97.6,6.5c-0.2,0-0.6-0.3-1.1-0.3c-0.5,0-0.8,0-1.3,0.9c-0.5,1,1.5,1.4,1.5,1.4s-0.8-0.5-1-0.7 c-0.2-0.2-0.1-0.8,0.4-1c0.4-0.2,1.5,0.1,1.5,0.1S97.6,6.8,97.6,6.5z M97.4,7.3c-0.1-0.1-1.2-0.6-1.3,0c-0.1,0.6,0.4,0.9,0.7,0.8 c0.3-0.1,0.5-0.4,0.4-0.6C97,7.4,97.4,7.3,97.4,7.3z M100.8,5.4C100.5,6,100.7,6,100.7,6s0.2-0.3,0.4-0.4c0.2,0,0.3,0.4,0.3,0.4 s0.3-0.2,0.4-0.4c0.1-0.2,0.3-0.9,0-1C101.5,4.6,101.1,4.9,100.8,5.4z M103,5.4c-0.3,0-0.4,0.3-0.6,0.4c-0.1,0.2-0.5,0.4-0.6,0.4 c0,0,0,0.4,0,0.4s0.1,0.4,0,0.5c0,0.1,0.3-0.1,0.5-0.2c0.1,0,0.5-0.4,0.6-0.6c0-0.3,0.4-0.4,0.4-0.2c0,0.2-0.2,0.6,0,0.6 c0.2,0.1,0.6-0.2,0.6-0.4C103.9,6.2,103.3,5.4,103,5.4z M105.1,7.4c0,0.2,0,0.5,0,0.6c0,0.1-0.3,0.4,0,0.4c0.3,0,0.8-0.2,1.2-0.3 c0.3,0,0.7,0,1-0.1c0.3-0.1,0.3-0.3,0-0.4c-0.3-0.1-0.4-0.4-0.8-0.4C106.1,7.3,105.2,7.2,105.1,7.4z M104.8,9.1 c0,0.1,0.8,0,1.4,0.2c0.6,0.2,1.1,0.4,1.5,0.4c0.4,0,0.8,0,1.2-0.2c0.4-0.3,0.6-0.4,0.4-0.4c-0.1,0-0.8-0.1-1.1-0.2 c-0.4-0.2-0.9-0.5-1.4-0.4c-0.5,0.1-1.4,0.2-1.7,0.4C104.8,9,104.8,9,104.8,9.1z M105.6,10c0,0.1,0.4,0.4,0.7,0.8s1,1,1.4,1.1 c0.4,0.2,1.1,0.4,1.6,0.3c0.4,0,0.7-0.3,0.4-0.4c-0.4,0-0.6-0.1-0.9-0.4c-0.4-0.4-0.4-0.6-0.9-0.8C107.3,10.4,105.6,9.8,105.6,10 z M107.3,12.5c-0.1,0.1,0,1.1,0.3,1.3c0.3,0.2,0.9,0.4,1.1,0.6c0.3,0.2,0.5,0.5,0.7,0.7c0.1,0.3,0.1-0.4,0-0.7 c-0.1-0.3-0.6-0.9-0.7-1c-0.1-0.2-0.2-0.2-0.5-0.3C108,13,107.5,12.4,107.3,12.5z M107.5,14.9c0.1,0.3,0.7,0.7,0.8,1 c0.1,0.2,0.6,0.9,0.9,1.3c0.4,0.4,0.5,0.4,0.4-0.3c-0.2-0.7-0.5-1.3-0.9-1.5C108.4,15,107.5,14.9,107.5,14.9z M105.7,14.2 c0,0,0.4,0.6,0.6,0.9c0.2,0.4,0.4,0.4,0.5,0.8c0,0.3,0.4,0.9,0.6,1.2c0.2,0.3,0.5,0.5,0.5,0.5s0.1-1.3,0-1.5 c-0.1-0.3-0.5-0.4-0.6-0.5c-0.1-0.2,0.1-0.3-0.3-0.5C106.8,14.7,105.8,14.1,105.7,14.2z M96.3,13.7c0,0.1-0.3,0.5,0.3,1 c0.6,0.4,1,0.4,1.1,0.2c0.1-0.2,0.1-0.7-0.1-0.8c-0.2-0.2-0.4-0.2-0.6-0.3S96.4,13.6,96.3,13.7z M98.3,10.3l0,0.3 c0,0,0.4,0.1,0.7,0.2c0.3,0,0.7,0,0.7,0s0-0.3,0.3-0.6c0.3-0.3,0.4-0.4,0.4-0.4l-0.3-0.4c0,0-0.7,0.4-0.8,0.5 C99.3,9.9,98.3,10.3,98.3,10.3z M99.9,11.5c0.2,0,0.3-0.4,0-0.4C99.6,11.1,99.7,11.5,99.9,11.5z M99.8,11.9c0,0.2,0.3,0.1,0.4,0 C100.2,11.7,99.8,11.7,99.8,11.9z M99.7,12.4c-0.1,0.3,0,0.5,0.4,0.3C100.3,12.4,99.7,12.2,99.7,12.4z M99.4,13.1 c-0.1,0.1-0.2,0.5,0.1,0.3C99.9,13.1,99.5,13,99.4,13.1z M99.1,12.9c0.2,0.1,0.2-0.4,0.1-0.4S99,12.8,99.1,12.9z M99.6,12 c-0.2,0-0.2,0.2,0,0.2C99.7,12.2,99.7,12,99.6,12C99.5,12,99.7,12,99.6,12z M98.8,11c-0.4-0.1-0.7-0.2-0.7-0.2l0.1-0.8 c0,0,0.2-0.1,0.4-0.1c0.1,0,0.4-0.1,0.4-0.1l-0.1-0.3c0,0-0.2,0-0.4,0.1c-0.2,0.1-0.6,0.1-0.6,0.1l-0.1,1.4c0,0,0.6,0,1,0.1 c0.3,0,0.8,0.2,0.8,0.2l0.1-0.2C99.5,11.3,99.2,11,98.8,11z M100.6,10.6L100.6,10.6c-0.1,0.1,0.2,0.5,0.4,0.8 c0.1,0.3,0.7,0.8,0.7,1.5c0,0.7-0.4,1.2-0.5,1.3c-0.1,0.1,0.4-0.1,0.5-0.2c0-0.1,0.6-1.2,0.2-1.8 C101.5,11.5,100.6,10.6,100.6,10.6z M100.1,16.5c-0.1,0.2,0,0.4-0.2,0.5c-0.1,0.1-0.7,0.4-0.8,0.4c-0.1,0,0.1,0.1,0.5,0.2 c0.4,0.1,1.2-0.1,1.3-0.6l0.1-0.4L100.1,16.5z M98,19.5c0.5,0,0.7-0.1,1.1-0.2c0.4-0.1,1-1,1-1s-0.1,0-0.4-0.1 c-0.3,0-0.5,0.2-0.8,0.3c-0.4,0.1-0.6,0.5-1,0.5c-0.3,0-0.7,0.2-0.8,0.2c0,0,0,0,0,0S97.5,19.5,98,19.5z M96.3,21.9 c0.1,0,0.5-0.4,0.3-0.5C96.5,21.3,96.2,21.9,96.3,21.9z M96.5,21c0.3,0.2,1.6,0.4,2.2,0.2c0.7-0.3,1.4-1.1,1.5-1.4 c0-0.3,0-0.4,0-0.4s-0.7,0.5-1.1,0.6c-0.4,0.1-1.3,0.4-1.5,0.5c-0.2,0.1-0.4,0.3-0.7,0.4C96.8,20.8,96.2,20.7,96.5,21z M101.3,16.4c-0.6,0.6-0.1,1.4,0,2c0.1,0.6-0.1,0.9-0.1,0.9s0.6-0.3,0.8-0.6c0.2-0.3,0-0.4,0-0.8c0-0.4,0-0.7,0.2-1.1 c0.2-0.3,0.4-1.1,0.5-1.3C102.6,15.5,101.9,15.7,101.3,16.4z M100.4,13.5l-0.4,0.4l0.4,0.6V13.5z M97.3,7.5 c0,0.1,0.4,0.7,0.3,1.1c-0.1,0.3-0.5,0.6-0.4,0.7c0,0.1,0,0.2,0,0.2s-0.4,0.4-0.7,0.6c-0.2,0.3-0.8,1.5-0.8,1.5s0.8-0.3,1.1-0.4 c0.2-0.1,0.2,0.2,0,0.3c-0.1,0.1-0.3,0.5-0.3,0.6c0,0.2-0.2,0.9-0.2,0.9s0.5-0.6,0.8-0.7c0.4-0.1,1.4-0.3,1.5-0.3 c0.1,0-0.3-0.2-0.4-0.2s-0.7,0-0.7,0v-0.2c0,0,0.4-0.1,0.7-0.1c0.2,0,1,0.2,1,0.3c0,0.1-0.1,0.6-0.4,0.6 c-0.3,0.1-0.5,0.2-0.6,0.4c-0.1,0.2-0.4,0.7-0.3,1.1c0.1,0.3,0.7,0.6,1.1,0.3c0.4-0.3,1.4-1.1,1.4-1.3c0.1-0.3,0.1-0.7,0-1 c-0.1-0.4,0.4-0.4,0.5-0.2c0.1,0.1,0.6,1.1,0.6,1.4c0,0.3-0.3,1-1.1,1.4c-0.9,0.5-1,0.6-1.1,0.6c-0.2,0-0.3,0.5,0,0.7 c0.3,0.1,1.3,0,1.7-0.4c0.4-0.4,1.4-1.8,1.4-2.4c0-0.6-1-2.1-1.2-2.3c-0.3-0.2,0.2-0.2,0.4,0c0.3,0.1,1.1,1.2,1.2,1.5 c0,0.3,0.1,0.4,0.1,0.4s0.1,0,0.3-0.1c0.1,0,0.6-0.3,1.1,0c0.5,0.3,1.2,1,1.5,1.1c0.3,0.1,0.7,0.1,0.7,0.1c0-0.1-0.2-0.2-0.3-0.3 c-0.1,0-0.7-0.7-1-1.1c-0.3-0.4-0.7-0.9-1.1-1c-0.4,0-0.7,0.1-0.7,0.1l-0.2-0.4c0,0,0.9,0,1.2,0c0.3,0,1.4,1,1.8,1.2 c0.3,0.2,0.5,0.2,0.7,0.2c0.2-0.1,0-0.3,0-0.3c-0.1,0-0.8-0.6-1.2-1.2c-0.3-0.6-0.9-1.6-1.8-1.4c-0.8,0.2-1.3,0.6-1.3,0.6 l-0.2-0.4c0,0,1.1-0.6,1.3-0.7c0.3-0.1,0.9-0.7,1-1c0-0.3,0-0.5,0-0.7c0-0.2-0.3-0.4-0.4-0.3c-0.1,0.2-0.3,0.7-0.5,0.8 c-0.3,0.1-0.7,0.2-1,0.4c-0.3,0.2-1,0.8-1,0.8l-0.3-0.3c0,0,0.7-0.5,1-0.7c0.3-0.2,0.6-0.2,0.7-0.6c0.1-0.4,0.2-0.7,0-0.7 c-0.1,0-0.2,0.3-0.3,0.4c-0.2,0.1-0.7,0.1-1.1,0.3c-0.3,0.2-0.5,0.4-0.7,0.5c-0.1,0.2-0.2,0.4-0.2,0.4h-0.3c0,0,0.6-0.7,0.7-0.9 c0-0.2,0-1.2-0.1-1.4c-0.2-0.2-0.3,0-0.4,0.1c0,0.2,0.1,0.7,0,1c-0.1,0.2-0.7,1.1-0.7,1.1l-0.2-0.1c0,0,0.3-0.4,0.4-0.7 c0-0.3,0.1-1.1-0.2-1.3C99.8,6,99.5,5.9,99.5,6c0,0.1,0.3,0.5,0.2,0.9c-0.1,0.4-0.1,0.5-0.2,0.7c0,0.1-0.1,0.6-0.1,0.6h-0.3 c0,0,0.2-0.5,0.1-0.8c0-0.3-0.2-0.6-0.5-0.7c-0.3-0.2-0.6-0.2-0.7-0.1c0,0.1,0.3,0.6,0.4,0.8c0,0.2,0.1,0.6,0,0.7 c0,0.1-0.1,0.3-0.1,0.3l-0.2,0c0,0,0-0.2-0.2-0.5C97.9,7.6,97.3,7.5,97.3,7.5z M103,13v0.4c0,0,0.7,0.2,1,0.4 c0.3,0.2,0.9,0.9,1,1.3c0.1,0.3,0.1,0.5,0.4,0.7c0.4,0.2,0.7,0.3,0.9,0.3c0.2,0-0.2-0.5-0.4-0.7c-0.2-0.2-0.5-0.3-0.6-0.8 c-0.1-0.5-0.5-1.3-0.8-1.5c-0.4-0.2-0.6-0.4-0.8-0.3C103.4,12.7,103,13,103,13z M104.9,15.9c0,0.2-0.1,0.4,0,0.6 c0,0.2,0.3,0.8,0.7,1.1c0.4,0.4,0.7,0.7,0.9,1.1c0.2,0.4,0.3,0.6,0.3,0.5c0-0.2,0.1-0.5,0-0.7c-0.1-0.1-0.4-0.9-0.5-1.2 c0-0.3,0-0.6,0-0.6s-0.2-0.1-0.6-0.3C105.4,16.2,104.9,15.9,104.9,15.9z M110.2,15.8c-0.2,0-0.1,0.8,0.1,1.2 c0.2,0.4,0.5,0.7,0.7,1c0.2,0.2,0.3,0.3,0.6,0.4c0.3,0.1,0.5,0.1,0.6,0c0,0-0.1-0.3-0.3-0.5c-0.2-0.2-0.6-1-0.8-1.3 C110.8,16.3,110.7,15.9,110.2,15.8z M112.4,17.8c0,0.1,0,0.3,0.2,0.3s0.2-0.4,0.2-0.4s0.1-0.1,0.1-0.2c0-0.2-0.2-0.2-0.2-0.2 s-0.1-0.1-0.3-0.1C112.5,17.1,112.4,17.6,112.4,17.8z M112.3,19.2c0,0.2-0.2,0.5-0.1,0.7c0,0.1,0.3,0.1,0.3,0.1s0-0.1,0.1-0.6 c0.1-0.5,0.1-0.5,0-0.6C112.6,18.8,112.3,19.1,112.3,19.2z M103,14l-0.2,0.5c0,0,0.6,0.7,0.4,0.9c-0.1,0.3-0.7,1.2-0.4,1.7 c0.3,0.5,0.7,0.6,1.3,0.7c0.6,0.1,1,0,1.1,0c0.1,0-0.4-0.2-0.6-0.5s-0.5-0.8-0.4-1.2c0.1-0.4,0.2-0.8,0-1.2 C103.9,14,103,14,103,14z M111.6,19.2c0,0.1-0.2,0.6-0.3,0.8c-0.1,0.2,0.1,0.4,0.3,0.2c0.1-0.2,0.2-0.5,0.3-0.7 c0.1-0.2,0.1-0.4,0-0.4C111.9,19,111.6,19,111.6,19.2z M107.1,18.1c0.1,0.2,0.2,0.6,0.4,1.1c0.1,0.5,0.1,1.1,0.1,1.3 c0,0.1,0.3,0.2,0.4,0c0-0.2,0.5-1.8,0.5-1.8c0,0-0.3-0.3-0.5-0.4c-0.3-0.1-1-0.6-1-0.6S107,18,107.1,18.1z M110.1,20.6l-0.1,0.7 l0.3,0.1l0.2-0.5L110.1,20.6z M108.8,17.9c0,0.1,0,0.3,0.1,0.7c0.1,0.4,0.4,1.6,0.4,1.7v0.2c0,0,0.2,0,0.3,0c0-0.1,0.5-1.9,0.4-2 c-0.2,0-0.6-0.4-0.8-0.4C109,17.8,108.8,17.9,108.8,17.9z M105,18.2c0,0.1,0.3,0.7,0.4,0.9c0.1,0.3,0.6,1,0.8,1.3 c0.2,0.4,0.4,0.5,0.5,0.4c0.1,0,0.1-1,0-1.1c-0.1-0.2-0.3-0.7-0.9-1C105.2,18.4,105,18.2,105,18.2z M110.5,18.8 c-0.1,0.2-0.2,0.4-0.1,0.8c0.1,0.4,0.3,0.8,0.4,0.9c0.1,0,0.3-0.1,0.2-0.4c0-0.2-0.1-0.6-0.1-0.8 C110.7,19.3,110.5,18.8,110.5,18.8z M103.7,18.2c0,0,0,0.2-0.1,0.4c0,0.2-0.2,0.4-0.4,0.9c-0.2,0.5,0.1,1.3,0.2,1.5 c0.1,0.2,0,1.4,0.1,1.4c0.1,0,0.9-1.8,1-2.1c0-0.3-0.1-1-0.2-1.2c-0.1-0.3-0.2-1-0.2-1L103.7,18.2L103.7,18.2L103.7,18.2z M100.8,19.8c-0.2,0.1-0.3,0.2-0.4,0.4c-0.2,0.2-0.5,0.6-0.7,0.8c-0.2,0.1-0.5,0.4-0.7,0.7c-0.2,0.2-0.7,0.8-0.5,0.8 c0.2,0,0.6-0.1,1-0.3c0.4-0.2,0.9-0.8,1.1-1.2c0.3-0.4,0.5-1,0.5-1.2C101.1,19.8,100.9,19.7,100.8,19.8z M97.4,21.7 c-0.2,0.1-0.4,0.4-0.5,0.6c-0.2,0.2,0.1,0.4,0.2,0.4c0.1-0.1,0.5-0.6,0.7-0.7c0.1-0.1,0.3-0.2,0.3-0.4 C98,21.7,97.6,21.6,97.4,21.7z M100,22.8c-0.2-0.1-0.4,1.1-0.4,1.1S100.2,22.9,100,22.8z M100.5,24.8c0,0.1-0.1,0.3,0.1,0.3 c0.1,0,0.2-0.2,0.2-0.3c0-0.1,0-0.2-0.1-0.2C100.6,24.6,100.5,24.7,100.5,24.8z M99.8,24.2c0,0.1-0.2,0.5-0.3,0.6 c0,0.1-0.1,0.3,0,0.4c0.2,0,0.2,0,0.3-0.2c0-0.1,0.2-0.5,0.3-0.6c0-0.1,0.2-0.4,0-0.4C100,23.8,99.9,24,99.8,24.2z M97.7,22.5 c-0.1,0.2-0.4,0.8-0.5,0.9c0,0.1,0.1,0.3,0.2,0.1c0.2-0.1,0.5-0.9,0.6-1c0.1-0.1,0.1-0.2,0-0.3C98,22.3,97.8,22.4,97.7,22.5z M98.1,23.2c-0.1,0.1-0.3,0.4-0.3,0.6c0,0.1,0.2,0.3,0.3,0.1c0.1-0.1,0-0.4,0.3-0.4c0.3-0.1,0.3-0.4,0.1-0.4 C98.4,23.1,98.2,23.1,98.1,23.2z M99,23.6c-0.1,0.2-0.4,0.5-0.4,0.8c0,0.3,0.3,0.1,0.4,0c0-0.2,0.3-0.6,0.4-0.7 c0.1-0.1,0.1-0.3,0-0.4C99.2,23.2,99.1,23.4,99,23.6z M102.5,18.5c-0.1,0.2-0.2,0.4-0.4,0.5c-0.2,0.1-0.6,0.7-0.7,0.9 c0,0.2-1,1.9-1.1,2.1c-0.1,0.1,0,0.6,0,0.8c0,0.2,0.2,0.3,0.3,0.2c0.1,0,0.4-0.7,0.5-0.8c0.1-0.1,0.7-0.5,1.2-0.8 c0.6-0.4,0.6-1.2,0.5-1.5c0-0.4,0-0.8,0.1-1.1c0.1-0.3,0.1-0.7-0.1-0.7C102.8,18.1,102.5,18.3,102.5,18.5z M111.3,21.6 c0,0.2,1.1,0.8,1.2,1c0.1,0.2,0.2,0.5,0.3,0.6c0.1,0.1,0.5,0.1,0.4,0.1c0-0.1-0.2-0.7-0.2-0.8c0-0.2,0.1-0.6,0.1-0.7 c0-0.1-0.2-1.1-0.2-1.1s-0.2-0.2-0.3-0.3c-0.1-0.1-0.1-0.1-0.3-0.1c-0.1,0-0.1,0.2-0.3,0.4c-0.1,0.2-0.3,0.4-0.4,0.2 c-0.1-0.3-0.2-0.4-0.3-0.4C111.2,20.6,111.3,21.4,111.3,21.6z M105,20.8c0,0.3-0.5,0.7-0.6,0.8c-0.1,0-0.2,0.4-0.4,0.6 c-0.1,0.2-0.3,0.6-0.3,0.6h-0.4c0,0,0-0.3-0.1-0.7c-0.1-0.4-0.2-0.6-0.3-0.7c-0.1,0-0.3,0.4-0.5,0.6c-0.2,0.2-1.3,1-1.5,1.1 c-0.3,0.2-0.3,0.4-0.1,0.5c0.2,0.1,0.5,0.3,0.7,0.2c0.2,0,1.3-0.8,1.4-0.9c0.2,0,0.3,0,0.2,0.1c0,0-1.2,0.9-1.4,1.1 c-0.2,0.2-0.4,0.5-0.4,0.6c0,0.1,0.4,0.2,0.7,0.1c0.3-0.1,0.7-0.4,0.9-0.5c0.2-0.1,1.7-1.3,1.8-1.4c0.1-0.1,0.5-0.3,0.4-0.1 c-0.2,0.2-0.8,0.8-1.1,1c-0.2,0.1-0.6,0.6-0.4,0.5c0.3-0.1,0.4-0.1,0.8-0.3c0.4-0.2,1.1-0.7,1.4-0.9c0.3-0.2,1.1-0.6,1.3-0.6 c0.1,0,0.3,0.1,0.3,0.1s-0.6,0.4-0.8,0.6c-0.2,0.1-0.3,0.4,0.1,0.4c0.3-0.1,0.9-0.4,1.1-0.5c0.3-0.1,1.1-0.1,1.1-0.1 s-0.2,0.1-0.3,0.4c-0.1,0.3,0.2,0.2,0.2,0.3c0,0.1,0.1,0.3,0.3,0.3c0.1,0,0.1,0.1,0.1,0.3c0,0.1-0.2,0.5-0.2,0.5l0.2-0.1 c0.1-0.1,0.3-0.1,0.3-0.3c0-0.1,0.2,0.1,0.2,0.3c0,0.2-0.2,0.5-0.2,0.5l0.1,0c0.1,0,0.3-0.3,0.4-0.4c0,0,0.1,0,0.1,0.3 c0,0.4-0.1,0.7-0.1,0.7s0.2,0.1,0.3-0.1c0.1-0.2,0.2-0.7,0.2-0.8c0-0.1-0.6-1.1-0.6-1.2c-0.1-0.1-0.3-0.3-0.1-0.3 c0.1,0,0.4,0.2,0.6,0.2c0.2,0.1,0.7,0.3,0.7,0.3s0,0.1,0,0.2c0,0.1-0.2,0.4,0,0.4c0.1,0,0.2-0.1,0.3-0.2c0-0.1,0.2,0,0.1,0.2 c0,0.2-0.2,0.5-0.2,0.5s0.1,0,0.2-0.1c0-0.1,0.2-0.3,0.2-0.2c0,0.1-0.1,0.5-0.1,0.6c0,0.1,0,0.3,0.1,0.2c0.1,0,0.2-0.3,0.4-0.5 c0.1-0.2-0.1-0.9-0.3-1c-0.1-0.2-0.6-0.7-0.7-0.7c-0.1-0.1,0.1-0.3,0.3-0.2c0.2,0.1,0.5,0.3,0.5,0.4c0.1,0.1,0.3,0,0.4,0.2 c0,0.1-0.1,0.4,0,0.4c0.1,0,0.1,0,0.3-0.2c0.1-0.1,0,0.3,0,0.4c-0.1,0.1-0.3,0.4-0.2,0.4c0.1,0,0.2,0,0.3-0.2 c0.1-0.1,0.2,0,0.2,0.2c0,0.2-0.1,0.3-0.3,0.4c-0.1,0.1,0,0.4,0.1,0.2c0.2-0.2,0.3-0.2,0.4-0.4c0.1-0.3-0.3-1.1-0.5-1.4 c-0.1-0.4-1.7-1.1-2.2-1.2c-0.6-0.1-3.8-0.6-4-0.7c-0.3-0.1-0.3-1-0.7-1C105.2,20,105,20.5,105,20.8z M118.8,31.3 c0-0.1-0.3-0.4-0.5-0.5c-0.3-0.1-0.5,0.1-0.4,0.5c0.1,0.4,0.4,1.4,0.4,1.4s0.8,0.1,1.7,0.1c0.8,0,1.1-0.5,0.4-0.9 c-0.7-0.4-1.4,0.4-1.4,0.4s-0.2-0.1-0.3-0.1c-0.1-0.1-0.1-0.2-0.1-0.2S118.7,31.4,118.8,31.3z M121,29.8c0.1,0.2,0.4-0.1,0.6,0 c0.2,0.2-0.1,0.3,0,0.4c0.1,0.1,0.2,0,0.3,0c0.1-0.1,0.1-0.4-0.1-0.6c-0.2-0.1-0.5-0.2-0.7-0.1C120.9,29.6,121,29.7,121,29.8z M118.4,28c0.2,0.2,0.6,0,0.3-0.3C118.6,27.6,118.3,27.8,118.4,28z M121.7,25.1c-0.4,0.5-0.7,1.4-0.8,1.4c0,0.1,0,0.1,0.2,0 c0.1,0,1.4-1.2,1.6-1.5c0.2-0.3,0.1-0.5-0.2-0.5C122.1,24.4,122,24.6,121.7,25.1z M121.8,27c0.1,0.1,0.4,0.3,0.7,0.3 c0.2,0,0.4,0,0.4,0l0.4-0.3c0,0-0.4,0-0.7,0C122.6,27,121.8,27,121.8,27z M125.5,28.1c-0.1,0-0.5,0.2-0.4,0.4 c0.1,0.2,0.5,0.3,0.8,0.4c0.3,0.1,0.4-0.1,0.2-0.3C126,28.4,125.5,28.1,125.5,28.1z M118,29.5c1.1,1.3,3.7,2.2,5.1,2.7 c1.5,0.5,3,0.5,3.2,0.5c0.1,0,0.4-0.3,0-0.3c-0.3,0-0.8-0.2-0.8-0.2s1.6-0.8,1.7-1c0.2-0.1,0-0.4-0.3-0.2c-0.3,0.2-1.9,1-1.9,1 l-0.7-0.1c0,0,1.5-0.8,1.7-1c0.2-0.1-0.1-0.2-0.3-0.1c-0.2,0.1-1.8,0.9-1.8,0.9l-0.4-0.2c0,0,1.3-0.7,1.6-0.8 c0.3-0.1-0.1-0.3-0.3-0.1c-0.2,0.1-1.6,0.8-1.6,0.8l-0.6-0.2c0,0,1.6-0.7,1.7-0.9c0.1-0.1-0.2-0.2-0.4-0.1 c-0.1,0.1-1.8,0.9-1.8,0.9l-0.3-0.2l2.1-1.1c0,0,1.1,0.4,2.1,0.6c0.9,0.2,2.9,0.2,3.2,0.2c0.3,0,0.7-0.6,0.4-0.5 c-0.4,0.1-2.1,0-2.8-0.1c-0.7-0.1-1.7-0.4-3.2-1.1c-1.6-0.7-3.7-2.7-3.8-2.8c-0.1-0.1-0.1-0.1-0.3,0.1c-0.2,0.2,0.1,0.8,0.1,0.8 l-0.3,0.2c0,0-0.2-0.1-0.4-0.1c-0.1,0-0.4,0.1-0.4,0.3c0,0.1,0.4,0,0.5,0.1c0.1,0.1,0,0.4,0.3,0.4c0.2,0,0.1-0.3,0.1-0.3l0.5-0.3 l0.3,0.3c0,0-0.5,0.3-0.6,0.4c-0.1,0-0.4,0.2-0.5,0.2c-0.1,0-0.9,0.5-0.9,0.5l-0.3-0.2c0,0,0.3-0.2,0.3-0.3 c0.1-0.1-0.1-0.4-0.2-0.3c0,0.1-0.4,0.3-0.4,0.3s-0.2-0.1-0.3-0.2c-0.1-0.1-0.5-0.2-0.4,0C117,28.3,116.9,28.1,118,29.5z M119.7,28.2c-0.1,0-1.3,0.6-1.3,0.6l0.2,0.2l2.1-1l-0.2-0.2C120.5,27.8,119.8,28.1,119.7,28.2z M119.7,28.8 c-0.2,0.1-0.9,0.4-0.9,0.4l0.2,0.2c0,0,0.7-0.3,0.9-0.4c0.3-0.1,1.3-0.7,1.3-0.7l-0.3-0.2C120.9,28.2,119.9,28.7,119.7,28.8z M121.4,28.6c0,0-0.8,0.4-1.1,0.5c-0.2,0.1-1,0.5-1,0.5l0.3,0.2l2.1-1.1L121.4,28.6z M122.2,29l-0.2-0.1c0,0-0.7,0.4-1,0.5 c-0.2,0.1-1.1,0.5-1.1,0.5l0.2,0.2c0,0,0.4-0.2,0.5-0.3c0.2-0.1,0.3,0.2,0.2,0.3c-0.1,0.1-0.4,0.2-0.4,0.2l0.2,0.1 c0,0,0.3-0.1,0.4-0.2c0.2,0,0.4,0,0.3,0.1c-0.1,0.1-0.4,0.2-0.4,0.2l0.5,0.2l2-1.1l-0.3-0.1c0,0-0.6,0.2-0.7,0.3 c-0.1,0-0.2-0.2-0.1-0.3c0.1-0.1,0.4-0.2,0.4-0.2l-0.3-0.2c0,0-0.3,0.2-0.4,0.3c-0.1,0-0.4-0.1-0.3-0.2 C122,29.2,122.2,29,122.2,29z M123.5,28c0,0,2.9-2.8,3.2-3.1c0.3-0.2,0-0.7-0.4-0.6c-0.4,0-0.8,0.5-0.8,0.5l-2.1,0l-0.3,0.5h2 l-0.1,0.2h-2.1l-0.2,0.3l2,0.1l-0.1,0.2l-2.2,0l-0.3,0.4l2.2,0.1C123.5,27.8,123.5,28,123.5,28z M125.9,27.4 c0.1,0.1,1.4,1.7,1.5,1.8c0.1,0.1,0.4,0,0.4-0.2c0-0.1-1.5-2.1-1.5-2.1S125.9,27.3,125.9,27.4z M115.4,20.8c-0.1,0.1,0,0.7,0,1 c0.1,0.4,0.1,0.6,0.3,0.8c0.1,0.2,0.6-0.1,0.6-0.3c-0.1-0.2-0.4-0.7-0.5-1C115.6,21.1,115.5,20.8,115.4,20.8z M113.5,21.7 c0,0.1-0.2,0.7-0.1,0.8c0,0.2,0.1,0.3,0.1,0.3s0.4-0.4,0.7-0.5c0.3-0.2,1-0.4,0.9-0.6c0-0.2-0.1-0.4-0.2-0.5c0-0.1-0.3-0.1-0.4,0 C114.3,21.2,113.5,21.6,113.5,21.7z M116,20.8c0,0.1,0,0.2,0,0.3c0,0.1,0.1,0.3,0.2,0.4c0,0.1,0.2,0.1,0.4,0 c0.2,0,1.1-0.3,1.2-0.3c0.1,0,0.3,0.1,0.3,0.4c0,0.4,0,0.7,0,0.9c0,0.2,0.1,0.4,0.1,0.4s-0.3,0.1-0.2,0.3 c0.1,0.2,0.4,0.1,0.4,0.1s0.3,0.5,0.4,0.7c0.1,0.2,0.3,0.7,0.2,0.8c-0.1,0-0.7,0.2-0.8,0.2c-0.2,0-2.4,0.9-2.7,1 s-0.5,0.4-0.4,0.6c0.1,0.2,0.3,0.6,1.1,0.4c0.8-0.2,3.4-1.2,3.5-1.8c0-0.7-0.1-1.4-0.3-1.6c-0.2-0.3-0.7-0.5-0.7-0.6 c0-0.1,0.3-1.9-0.3-2.4c-0.6-0.5-0.9-0.4-1.3-0.3C116.7,20.6,116.2,20.7,116,20.8z M115.9,22.9c-0.6,0.3-0.5-0.4-0.6-0.3 c0,0-0.2,0.2-0.2,0.4c0,0.2,0.3,0.5,1,0.3c0.7-0.2,0.6-1,0.4-1C116.5,22.2,116.6,22.6,115.9,22.9z M114.3,25.4 c0.3,0.4,1.2,0.7,1.3,0.7c0.1-0.1-0.1-0.4-0.1-0.4l2.3-1c0,0,0.6,0.2,0.7,0.1c0,0,0-0.2-0.2-0.4c-0.1-0.2-0.6-0.9-0.7-1.2 c-0.1-0.4-0.2-1.4-0.2-1.5c0-0.1-0.1-0.1-0.2,0.1c-0.1,0.2-0.1,1.2-0.1,1.2l-2.9,1c0,0,0-0.1-0.1-0.3c0-0.2-0.2-0.7-0.2-0.6 C113.7,24.1,114,25,114.3,25.4z M114.5,24.4c0,0,0.2,0.2,0.3,0.2c0.1,0,2.5-0.8,2.5-0.8l-0.1-0.3c0,0-1.8,0.7-2.1,0.7 C114.8,24.3,114.5,24.4,114.5,24.4z M115,25.2c0.1,0,0.2,0.1,0.4,0.1c0.1,0,2.1-0.9,2.1-0.9l-0.1-0.2c0,0-1,0.4-1.3,0.4 C115.9,24.8,115,25.2,115,25.2z M119.1,20.2l0,0.2c0,0,1,0,1.2,0c0.3,0,1.3,0,1.6-0.1c0.3,0,0.4-0.1,0.4-0.1v-0.1 c0,0-0.6,0-0.7,0.1C121.5,20.2,119.1,20.2,119.1,20.2z M122.3,20.5c-0.1,0.1-1.1,0.4-1.4,0.5c-0.2,0-1.1-0.1-1.2-0.1 c-0.2,0,0,0.2,0,0.2s0,0.1,0,0.2c0,0.1,1.3,2.6,1.3,2.6l0.1-0.1l-1.2-2.6l0.3,0l1.1,2.4l0-0.2l-0.8-2.1h0.3l0.7,1.8l0.1-0.3 l-0.5-1.5l0.3,0l0.4,1.2l0.2-0.4l-0.3-0.9l0.3,0l0.2,0.6l0.2-0.4l-0.1-0.4h0.2c0,0,0,0.3,0.1,0.1c0-0.1,0.1-0.4,0.1-0.4 S122.4,20.4,122.3,20.5z M119.7,21.7c0,0.1,0.4,1,0.6,1.4c0.2,0.4,0.5,1,0.5,1l0.1-0.1c0,0-0.1-0.1-0.2-0.3 c-0.1-0.2-0.9-2.3-0.9-2.3S119.7,21.6,119.7,21.7z M118.7,20c0,0.1-0.1,0.3,0.1,0.5c0.2,0.2,0.5,0.7,0.6,0.7 c0.1,0,0.1,0.4,0.1,0.6c0,0.1,0.9,2.2,1,2.4c0.1,0.2,0.1,0.5,0.4,0.3c0.4-0.1,1.1-0.5,1.1-0.6c0-0.1,0.2-0.4,0.2-0.5 s1.1-2.8,1.1-2.9c0-0.2-0.3-0.3-0.4-0.1c-0.1,0.1-0.1-0.3-0.1-0.4c0-0.1,0-0.3-0.2-0.3c-0.3,0-0.5,0.1-0.5,0.1s-3.3,0-3.4,0 C118.7,19.9,118.7,20,118.7,20z M125.4,23c-0.1,0-0.2,0.1-0.1,0.2c0,0.1,0.2,0.3,0.2,0.3s0,0-0.2,0.1c-0.1,0-0.7,0-0.8,0 c-0.2,0-0.3,0.1-0.3,0.2c0,0,0.2,0,0.2,0c0,0,0.2-0.1,0.3-0.1c0.1,0,0.3,0,0.3,0.1c0,0.1-0.2,0.3-0.2,0.4c0,0.1,0,0.2,0,0.2 c0.1,0,0.2-0.1,0.2-0.2c0,0,0.2-0.2,0.3-0.3c0.1,0,0.3,0,0.5,0c0.2,0,0.2-0.2,0.4-0.2c0.1,0,0.2,0,0.4,0c0.2,0,0.3,0.1,0.1,0.2 c-0.1,0-0.5,0-0.5,0.1c0,0-0.1,0.1-0.1,0.1s0.1,0,0.3,0c0.1,0,0.4,0.1,0.5,0c0-0.1,0.1-0.1,0.1-0.2c0-0.1,0-0.1,0.1-0.1 s0.2,0,0.2,0s-0.1,0-0.1,0.2c0,0.1,0.3,0.1,0.3,0c0-0.1,0-0.3,0-0.4c0,0,0,0-0.1,0c-0.1,0-0.2,0.1-0.3,0c-0.1,0-0.1-0.1,0-0.1 c0.1,0,0.3,0,0.2-0.3c0-0.2-0.7-0.2-0.9-0.2c-0.2,0-0.1,0.2,0,0.2c0.1,0,0.5,0,0.6,0.1c0.1,0,0,0.1-0.1,0.2c-0.1,0-0.6,0.1-0.7,0 c-0.1,0,0-0.4-0.2-0.5c-0.1-0.1-0.1,0-0.2,0c0,0.1-0.1,0.1-0.1,0C125.5,23.1,125.4,23,125.4,23z M125.6,21.7v0.6 c0,0.1,0.1,0.2,0.2,0.3c0.1,0.1,0.2,0.1,0.4,0.2c0.1,0,0.4-0.4,0.5-0.4c0,0,0-0.1,0-0.3v-0.4c0-0.1-0.1-0.1-0.2-0.1h-0.7 C125.6,21.7,125.6,21.7,125.6,21.7z M125.9,19.5c-0.1,0-1.9,0-2.1,0s-0.2,0.1-0.2,0.2c0,0.1,0,3.6,0,3.7c0,0,0,0.3,0.1,0.2 c0,0,1.3-0.9,1.4-1c0.1,0,0.1-0.1,0.1-0.1c0-0.1,0-1,0-1.1c0-0.1,0-0.1,0.2-0.1h0.5v-1.6C126,19.7,126,19.5,125.9,19.5z M125.2,20.3c0,0.1,0,0.4,0,0.5c0,0.1-0.3,0.2-0.4,0.2c-0.1,0,0-0.1,0.1-0.3c0-0.1,0.1-0.1,0.1-0.3c0-0.1,0-0.3,0-0.4 c0-0.1-0.2,0-0.3-0.1c-0.1,0-0.3,0-0.5,0.1c-0.1,0.1-0.1,0.7,0,1c0,0.2,0.3,0.4,0.3,0.5c0,0.1-0.1,0.1-0.2,0.1s0,0.2,0,0.4 c0.1,0.2,0,0.4,0,0.5c0,0.1,0.4-0.1,0.4-0.2c0,0,0.1-0.4,0.1-0.5c0-0.1,0-0.5,0.1-0.6c0-0.1,0.3-0.2,0.3-0.3c0-0.1,0-0.4,0-0.5 c0-0.1,0.3-0.2,0.1-0.3C125.4,20.1,125.3,20.3,125.2,20.3z M126.3,19.7c0,0.1,0,1.6,0,1.6s0.4,0,0.6,0s0.2,0.1,0.2,0.2v1.2 c0,0.1,0.8,0.8,0.9,0.8c0.2,0,0.8-1.2,1-1.6c0.2-0.4,0.4-2.1,0.4-2.2c0-0.1-0.2-0.2-0.4-0.2h-2.5 C126.4,19.5,126.3,19.6,126.3,19.7z M125.6,18.5c0.2,0,0.4-0.4,0.4-0.8c0-0.4-0.3-0.9-0.4-0.9c-0.1,0-0.4,0.5-0.4,0.9 C125.2,18,125.3,18.5,125.6,18.5z M125.1,18.7c0,0.1,0,0.1,0.1,0.1h0.8c0.2,0,0.2-0.1,0-0.1c-0.2,0-0.8,0-0.8,0 C125.1,18.6,125.1,18.6,125.1,18.7z M126.2,18.5c0.1,0,0.3-0.1,0.5,0c0.2,0.1-0.1,0.7,0,0.7s0.4-0.1,0.5-0.2 c0.1,0,0.3-0.4,0.1-0.9c-0.1-0.4-0.7-0.4-1-0.3c-0.3,0.1-0.3,0.5-0.3,0.5C126.1,18.4,126.1,18.5,126.2,18.5z M123.8,17.9 c-0.1,0.9,0.3,1.3,0.4,1.3c0.1,0,0.3,0,0.1,0c-0.1,0-0.1-0.2-0.1-0.4c0-0.1,0-0.4,0.3-0.5c0.2-0.1,0.5,0.3,0.6,0.2 c0.1-0.1-0.1-0.5-0.3-0.8c-0.2-0.3-0.5-0.3-0.7-0.3C124,17.4,123.8,17.4,123.8,17.9z M125.1,19.3h0.2v-0.2h0.2v0.2h0.3v-0.2h0.3 v0.2h0.1V19h-1L125.1,19.3L125.1,19.3z M127.7,18.4v0.4h0.2v-0.3h0.2v0.3h0.4v-0.3h0.2v0.3h0.2v-0.4H127.7z M124.9,13.6 c-0.1,0.4,0.3,1.3,0.4,1.4c0.1,0.2,0.1,0.6,0.1,0.6h0.3c0,0,0-0.3,0-0.4c0-0.2,0.4-1,0.4-1.5c0-0.5-0.4-1.1-0.5-1.1 C125.6,12.6,125,13.2,124.9,13.6z M126.2,15.6c0,0,0.3-0.2,0.5-0.1c0.3,0.1,0.2,0.6,0.3,0.6c0.1,0,0.4-0.8,0.4-0.8 c0,0,0.3-1.2-0.5-1.1c-0.7,0-1,1.3-1,1.4L126.2,15.6L126.2,15.6z M124.1,14.2c-0.2,0.1-0.5,0.6-0.4,1c0,0.4,0.1,0.9,0.4,1.1 c0.3,0.1,0.1-0.7,0.2-0.7c0.1-0.1,0.4-0.2,0.4-0.1c0.1,0.1,0.2,0.2,0.2,0.2h0.3C125.2,15.6,125.1,13.8,124.1,14.2z M125.1,15.8 c-0.1,0-0.2,0.1,0,0.1h1.1c0.1,0,0.1-0.1,0-0.1H125.1z M125,16.1v0.4h0.2v-0.3h0.2v0.3h0.3v-0.3h0.2v0.3h0.3v-0.4L125,16.1 L125,16.1z M127.7,17.8c-0.1,0-0.1,0.3,0,0.3h1c0.2,0,0.2-0.3,0-0.3C128.5,17.8,127.7,17.8,127.7,17.8z M127.8,17.5 c0,0-0.2-1.3-0.7-1.2c-0.5,0-0.8,0.5-0.7,0.8c0.1,0.3,0.4,0.5,0.5,0.5s-0.1-0.5,0.3-0.5c0.4,0,0.3,0.5,0.3,0.5L127.8,17.5z M128.4,17.5h0.1c0,0-0.1-0.4,0.4-0.4c0.5,0,0.2,0.7,0.2,0.7s1-1.2,0-1.4C128.1,16.3,128.4,17.5,128.4,17.5z M127.5,15.6 c-0.1,0.4,0,0.6,0.2,0.9c0.1,0.3,0.3,1.2,0.3,1.2h0.2c0,0,0-0.4,0-0.5c0-0.2,0.2-0.5,0.3-0.7c0.1-0.2,0.3-0.6,0.2-0.9 c0-0.3-0.7-0.8-0.7-0.8S127.7,15.2,127.5,15.6z M120.9,14.5c-0.1,0-0.4,0.1-0.4,0.2c0,0.1,0.2,0.3,0.3,0.4 c0.1,0.1,0.1,0.2,0.1,0.2s-0.2,0-0.4,0c-0.2,0-0.1-0.2-0.3-0.2c-0.2,0-0.3,0.1-0.3,0.1s0,0.1,0.1,0.2c0,0-0.1,0.1-0.1,0.2 c0,0.1-0.2,0.1-0.3,0.1c-0.1,0-0.1,0.1,0,0.1c0.1,0,0.2,0,0.3,0c0.1,0,0.2-0.1,0.3-0.1c0.1,0,0.3,0,0.3,0c0,0-0.1,0.1,0,0.2 c0,0,0.2,0,0.3,0c0.1,0,0-0.1,0-0.2c-0.1-0.1,0-0.1,0-0.1c0,0,0-0.2,0-0.3c0-0.1-0.1-0.1-0.2-0.3S120.9,14.7,120.9,14.5 C121,14.6,121,14.5,120.9,14.5z M119.5,15.1c-1.2,1.1-1.2,4.2-1.2,4.2h5.1V13C121.3,13.2,120.6,13.9,119.5,15.1z M120,16.3 c0.2,0.1,0.4,0.2,0.5,0.2s0.1,0.1-0.1,0.1c-0.1,0-0.4,0-0.6-0.1c-0.2-0.1-0.3-0.2-0.4-0.2c-0.1,0-0.2,0.1-0.3,0.3 c-0.1,0.1-0.1,0.1-0.1,0.2c0,0,0.1,0.2,0.1,0.2c0,0.1-0.2,0.2-0.1,0.3c0,0.1,0.1,0,0.2-0.1c0.1,0,0.2-0.1,0.3,0 c0.1,0-0.3,0.2-0.3,0.3c0,0,0,0,0.2,0c0.2,0,0.3-0.1,0.4-0.1c0.1,0,0.2-0.1,0.3-0.2c0.1,0,0.4-0.1,0.3,0c0,0.1-0.5,0.2-0.5,0.2 c0,0,0.1,0,0.3,0c0.2,0,0.4,0,0.5,0c0.1-0.1,0-0.5,0-0.6c0-0.1,0-0.1,0.1-0.2c0.1-0.1-0.1-0.1-0.3-0.1 C120.2,16.3,120.2,16.3,120,16.3C120,16.3,119.8,16.2,120,16.3z M119.7,17.6C119.7,17.6,119.6,17.5,119.7,17.6 c0,0.2,0.2,0.3,0.5,0.3c0.3,0,0.3,0.1,0.1,0.1c-0.1,0-0.3,0-0.5,0c-0.2,0-0.3,0-0.5-0.1c-0.2,0-0.4,0-0.4,0c-0.1,0-0.1,0-0.1,0.2 c-0.1,0.1-0.2,0.2,0,0.4c0.2,0.1,0,0.1-0.1,0.2c-0.1,0,0,0.1,0.1,0c0.1,0,0.4-0.2,0.4-0.1c0,0-0.5,0.3-0.4,0.4c0.1,0,0,0,0.4,0 c0.3,0,0.3-0.2,0.4-0.2c0.1-0.1,0.3-0.2,0.5-0.1c0.2,0,0,0-0.2,0.1c-0.1,0-0.4,0.2-0.3,0.2c0.2,0,0.4,0,0.5,0 c0-0.1,0.4-0.1,0.5-0.1c0.1,0,0-0.1,0-0.2c0,0,0-0.3,0-0.4c0-0.1,0-0.2-0.1-0.2c-0.1-0.1-0.4,0-0.6,0 C119.8,17.8,119.7,17.7,119.7,17.6L119.7,17.6z M121.4,14.2c0,0,0,0,0,0.2c0,0.1-0.1,0.1-0.1,0.3c0,0.1,0,1.6,0,1.7 c0,0.2,0.1,0.4,0.3,0.4c0.1,0,0.1-0.1,0.1-0.3c0-0.1-0.2-0.1-0.2-0.2c0-0.1,0-0.1,0.1-0.1c0.1,0,0.4,0.5,0.4,0.7 c0,0.2-0.1,0.1-0.3,0c-0.1,0-0.3,0-0.4,0.1c-0.1,0,0.2,1,0.2,1.1c0,0.1-0.2,0.1-0.3,0.2c-0.1,0.1,0.3,0.1,0.6,0 c0.3,0,0-0.2-0.1-0.4c-0.1-0.2-0.1-0.5,0-0.7c0-0.1,0.1,0.2,0.3,0.5c0.1,0.3,0.4,0.4,0.5,0.4c0.2,0,0,0.2-0.1,0.3 c-0.1,0.1-0.4,0.1-0.6,0.1c-0.2,0,0,0.1,0,0.2c0,0.1-0.3,0-0.4,0.1c0,0,0.1,0,0.4,0c0.3,0,0.6,0,0.8-0.1c0.3-0.2,0.1-0.9,0.1-1.1 c0-0.1-0.2-0.4-0.2-0.6c0-0.1,0.2-0.2,0.2-0.3v-1.7c0-0.2,0.1-0.3,0.1-0.5c0-0.1,0-0.3-0.1-0.2c-0.1,0-0.1,0-0.2,0.2 c-0.1,0.2,0,0.3,0,0.4c0,0.1,0,1.3,0,1.5c0,0.2-0.1-0.5-0.2-0.7c0-0.2-0.1-0.5-0.1-0.7c0-0.2,0.1-0.7,0.2-0.8 c0.1-0.1,0.2-0.4,0.2-0.5c0-0.1,0-0.2,0-0.2s-0.1,0-0.2,0.1c-0.1,0.1-0.1,0.2-0.1,0.2h-0.3l-0.1-0.2c0,0,0,0-0.1,0.1 c-0.1,0-0.1,0.1-0.1,0.3c0,0.2,0,0.1,0,0.3c0,0.1,0.1,0.1,0.2,0.2c0,0-0.1,0.2-0.1,0.3c-0.1,0.1-0.1,0-0.2-0.1 c0-0.1-0.2,0-0.2-0.2c-0.1-0.1,0-0.1,0.1-0.2c0-0.1,0-0.2,0-0.3C121.6,14.1,121.5,14.1,121.4,14.2z M121.7,15 c0,0-0.1,0.3-0.1,0.4c0,0.2,0,0.2,0.1,0.2C121.8,15.6,121.7,15.2,121.7,15L121.7,15L121.7,15L121.7,15z M122,15.6 c0,0.1,0,0.2,0,0.1c0.1,0,0.1-0.3,0-0.4C122.1,15.3,122,15.5,122,15.6z M146,27.4l0.3,1.4v0.1c0,0,0.4,0.1,0.6,0.1 c0.3,0,0.2-0.5,0.1-0.7c-0.1-0.2-0.3-0.7-0.5-0.8c-0.3-0.2-0.5-0.2-0.5-0.2L146,27.4z M156.8,27.3l0.2-0.2l-0.1-0.2l-0.2,0.1 L156.8,27.3z M157.2,27l0.2-0.1l-0.1-0.2l-0.2,0.1L157.2,27z M114.1,20.6c0,0.2,0,0.3,0.3,0.3c0.4,0,0.6-0.2,0.6-0.2 s0-0.2,0.1-0.3c0.1,0,0.5-0.1,0.6-0.1c0.1,0,0.1,0.2,0.2,0.2s1.1-0.3,1.3-0.4c0.2-0.1,0-1,0-1.2c0-1.8,0.7-5.1,3.7-6.3 c2.9-1.2,5.2-0.7,6.3,0.2c1.1,0.9,3.2,2.8,3.2,6.1c-0.1,3.2-0.7,4.9-2,6.1c-1.3,1.3-1.8,1.6-1.8,1.6l1.8,2.3l0.3-0.1l-1.6-2.1 l0.3-0.2c0,0,1.7,2.3,1.8,2.3c0.1,0,0.2-0.2,0.2-0.2l-1.7-2.2l0.1-0.1l1.9,2.2c0,0,1.9-1.4,2.6-3.1c0.7-1.7,2.6-5,0-11.7 c-1-2.5-3.4-3.8-3.4-3.8c0,0.1-0.1,0.1-0.3,0.1c-0.2,0-2-1.4-4.7-1.4c-2.1,0-4.5,0.8-5.3,1.5c-0.4,0.4-0.7,0-0.7,0 s-1.8,1.7-2.5,3.3c-1,2.1-1.3,3.6-1.4,4.6C113.9,19,114.1,20.6,114.1,20.6z M127.4,19.9c0,0.2,0.1,0.3,0.2,0.4 c0.1,0.1,0,0.2-0.2,0.1c-0.1-0.1-0.2-0.2-0.4-0.1c-0.2,0-0.3,0.1-0.2,0.2c0.1,0,0.3,0,0.3,0.1c0,0.1-0.4,0.1-0.5,0.1 c-0.1,0-0.3,0-0.2,0.1c0.1,0.1,0.1,0.1,0.3,0.1h0.3c0,0,0.4,0,0.4,0.2v1.3c0,0.2,0.2,0.4,0.2,0.4s0-0.3,0.1-0.4 c0.2-0.1,0.2,0,0.3-0.2s0.4-0.3,0.4-0.6c0.1-0.3,0-0.5,0.2-0.8c0.1-0.2,0.3-0.5,0.3-0.6c0-0.2-0.1,0-0.2,0.1 c-0.1,0.2-0.3,0.4-0.4,0.5c-0.1,0.2-0.1,0.6-0.2,0.7c0,0.1-0.2,0.2-0.2,0.2s0.1-0.6,0.1-0.7c0-0.1,0-0.3,0.2-0.4 c0.2-0.2,0.3-0.2,0.2-0.4c-0.1-0.1-0.1-0.2-0.1-0.2l-0.2-0.2l-0.1,0.2L127.4,19.9L127.4,19.9z M123,10.6c0,0.1,0.4,0.1,0.4-0.1 C123.4,10.3,123,10.2,123,10.6z M128.1,11.4c-0.1,0.1,0,0.4,0.3,0.2C128.5,11.4,128.2,11.2,128.1,11.4z M131.5,17.4 c0.3,0,0.3-0.4,0-0.3C131.2,17.1,131.3,17.4,131.5,17.4z M131.8,18.7c0.3,0,0.1-0.3-0.1-0.3C131.5,18.5,131.5,18.8,131.8,18.7z M114.8,17.4c0,0,0,0.4,0,0.5v0.4h0.1c0,0,0-0.2,0.1-0.2h0.4l0,1h-0.5c0,0-0.1-0.3-0.1-0.3h-0.1v0.9h0.1c0,0,0.1-0.3,0.2-0.3 c0.1,0,1.1,0,1.2,0c0.1,0,0.2,0.2,0.2,0.2l0.1,0c0,0,0-0.3,0-0.4c0-0.1,0-0.4,0-0.4h-0.1c0,0,0,0.3-0.2,0.3c-0.1,0-0.5,0-0.5,0 v-1c0,0,0.5,0.1,0.6,0.1c0.1,0,0.2,0.1,0.2,0.2c0,0,0,0.1,0,0.1l0.2,0c0,0,0-0.3,0-0.4c0-0.1,0-0.3,0-0.3l-0.1,0 c0,0,0,0.1-0.1,0.1c-0.1,0-1.3-0.1-1.4-0.1c-0.1,0-0.1-0.3-0.1-0.3L114.8,17.4L114.8,17.4z M124,9.7c0,0.2-0.1,0.5-0.1,1 c0,0.6,0.6,0.3,0.6,0.3s-0.2-0.2,0-0.4c0.1,0,0.2,0.1,0.2,0.1s0.1-0.4,0.1-0.7c0-0.4-0.1-0.7-0.4-0.7C124.2,9.3,124,9.5,124,9.7z M123.8,9.5c0,0.2-0.1,0.9-0.1,1.2c0,0.3,0.4,0.6,0.6,0.6c0.2,0,0.4,0,0.4,0l0,0c0,0.1,0.4,0.4,0.5,0.4s0.4-0.1,0.4-0.1 s-0.2,0-0.4-0.1c-0.2-0.1-0.4-0.3-0.4-0.3s0.1-0.2,0.2-0.4c0-0.2,0-0.4,0.1-0.9c0-0.6-0.5-0.8-0.7-0.8 C124.1,9,123.8,9.2,123.8,9.5z M115.2,16.3c0,0.2-0.2,0.5,0.3,0.7s0.9,0,1,0c0.1,0,0.2-0.2,0.2-0.4c0-0.2,0-0.2-0.4-0.3 C116,16.2,115.2,16.1,115.2,16.3z M114.9,16.3c-0.1,0.3-0.2,0.7,0.5,1c0.7,0.2,1.3,0.2,1.5-0.4c0.2-0.6-0.5-0.9-0.8-0.9 C115.8,15.9,115,15.9,114.9,16.3z M115.5,15c-0.1,0-0.3,0.4-0.3,0.4h0c0,0,0.1-0.1,0.2-0.1c0.1,0,1.3,0.4,1.4,0.5 c0.1,0,0.1,0.2,0.1,0.2l0,0l0.3-0.7l-0.1-0.1c0,0,0,0.2-0.1,0.2c-0.1,0-1.1-0.4-1.1-0.4s1-0.2,1.2-0.2c0.2,0,0.4,0,0.4,0l0.1-0.3 c0,0-1.4-0.6-1.5-0.6c0,0,0-0.1,0-0.2l0-0.1h-0.1c0,0-0.2,0.3-0.3,0.4c0,0.1-0.2,0.4-0.2,0.4h0.1c0,0,0.3-0.2,0.4-0.2 c0.1,0,1.1,0.4,1.1,0.4s-0.6,0-0.8,0.1C116.2,14.9,115.5,15,115.5,15z M126.4,9.6l-0.6-0.3v0.2c0,0,0.2,0.1,0.2,0.1 c0,0.1-0.2,0.7-0.3,1.2c-0.1,0.4,0.1,0.7,0.4,0.8c0.2,0.1,0.6,0,0.7-0.1c0.1-0.2,0.6-1.1,0.6-1.3c0-0.1,0.3,0,0.3,0l0.1-0.1 c0,0-0.2,0-0.3-0.2c-0.1-0.1-0.4-0.2-0.4-0.2l0,0.1c0,0,0.1,0.1,0.2,0.1c0,0,0,0.1,0,0.2c0,0.1-0.4,0.9-0.4,0.9 c0,0-0.1,0.2-0.3,0.2c-0.2,0.1-0.5-0.1-0.5-0.3c0-0.2,0.4-1.1,0.4-1.2C126.3,9.6,126.3,9.7,126.4,9.6L126.4,9.6z M127.9,10.1 L127.9,10.1c0,0.1,0,0.2,0.1,0.2c0,0,0,0.1,0,0.2c0,0.1-0.6,1.1-0.6,1.3c0,0.1-0.1,0.1-0.2,0.1c0,0-0.2-0.1-0.2-0.1l0,0.1 c0,0,0.3,0.1,0.4,0.2c0.1,0.1,0.3,0.2,0.3,0.2l0-0.1c0,0,0-0.1-0.1-0.2c0,0,0-0.1,0-0.2c0,0,0.5-1.1,0.6-1.1 c0-0.1,0.1-0.1,0.2-0.1c0,0,0.1,0,0.1,0l0-0.1L127.9,10.1z M128.9,10.7L128.9,10.7c-0.1,0.1,0,0.3,0,0.3s0,0.2,0,0.2 c0,0.1-0.6,1-0.7,1.1c0,0.1-0.1,0.1-0.2,0c-0.1,0-0.1,0-0.1,0l0,0.1l0.4,0.4l0.1-0.1c0,0,0-0.1,0-0.2c0-0.1,0.6-1.1,0.7-1.2 c0,0,0.1,0,0.1,0l-0.6,1.9l1.8-0.5c0,0-0.9,0.7-1,0.8c-0.1,0.1-0.2,0.1-0.2,0c0,0-0.1-0.1-0.1-0.1l-0.1,0.1l0.4,0.5l0.1-0.1 c0,0,0-0.1,0-0.2c0.1,0,1.1-1,1.1-1c0,0,0.2,0.1,0.2,0.1l0.1,0l-0.3-0.5l-1.7,0.4l0.5-1.5L128.9,10.7z M129.5,14.2l0.4,0.4h0.1 c0,0,0-0.2,0-0.3c0,0,0-0.1,0.1-0.1c0.1,0,0.2,0,0.2,0c0,0,0.1,0.1,0.1,0.1s0.2,0.4,0.2,0.4c0,0,0,0.2,0,0.2s-0.1,0.1-0.2,0.1 c0,0-0.1-0.2-0.1-0.2l-0.1,0l0.2,0.7l0.1-0.1c0,0,0-0.1,0-0.2c0-0.1,1.4-1.4,1.4-1.4v-0.1c0,0-1.8,0.3-1.9,0.4 c-0.1,0-0.3-0.1-0.3-0.1L129.5,14.2z M130.4,14.3l0.2,0.5l0.7-0.7L130.4,14.3z M132.1,15.2c0,0,0.1,0.3,0,0.3 c-0.1,0-1.1,0.4-1.3,0.5c-0.2,0-0.3-0.2-0.3-0.2l-0.1,0.1c0,0,0.2,0.5,0.2,0.6c0,0.1,0.1,0.6,0.1,0.6l0.6-0.1l0-0.1 c0,0-0.5,0-0.5-0.1c0,0-0.1-0.2-0.1-0.3c0-0.1,0-0.1,0.1-0.2c0,0,1.2-0.4,1.4-0.5c0.1,0,0.2,0,0.2,0h0.1l-0.2-0.7L132.1,15.2z M132.7,16.6L132.7,16.6c-0.1,0-0.1,0.2-0.2,0.3c-0.1,0.1-0.4,0.5-0.4,0.6c0,0.1-0.1,0.2-0.2,0.2c-0.1,0-0.7,0.1-0.7,0.1 c-0.1,0-0.2-0.2-0.2-0.2h0c0,0,0,0.3,0,0.4c0,0.1,0,0.4,0,0.4h0.1c0,0,0-0.1,0-0.2c0,0,0-0.1,0.1-0.1c0.1,0,0.7,0,0.7,0 s0.7,0.5,0.8,0.6c0.1,0,0.1,0.3,0.1,0.3h0.1c0,0,0-0.3,0-0.4c0-0.1,0-0.4,0-0.4h-0.1v0.1c0,0,0,0.1-0.2,0c-0.1,0-0.6-0.4-0.6-0.4 s0.4-0.7,0.5-0.7c0-0.1,0.2,0.1,0.2,0.1h0.1L132.7,16.6C132.7,16.6,132.7,16.6,132.7,16.6z M131,19.8h0.1c0,0,0-0.2,0.1-0.2h0.5 c0,0,0,0.3,0,0.4c0,0.1,0.1,0.4,0.3,0.4s0.4,0,0.6,0c0.2,0,0.4-0.4,0.4-0.5c0-0.1,0-0.9,0-0.9h-0.1c0,0,0,0.2-0.2,0.2 c-0.1,0-1.4,0-1.5,0c-0.1,0-0.1-0.2-0.1-0.2H131L131,19.8z M132,19.6c0,0,0,0.3,0,0.4c0,0.1,0.1,0.1,0.2,0.1c0.2,0,0.3,0,0.4,0 c0.1,0,0.2-0.2,0.2-0.3c0-0.1,0-0.3,0-0.3S132,19.6,132,19.6z M131,20.7c0,0.1-0.2,0.9-0.2,0.9l0.6,0.2v-0.1c0,0-0.3-0.2-0.4-0.3 c0-0.1,0.1-0.5,0.1-0.5l0.8,0.1c0,0,0,0.2,0,0.3c0,0.1-0.2,0.1-0.2,0.1v0.1l0.5,0.1l0-0.1c0,0-0.1-0.1-0.1-0.1 c0-0.1,0.1-0.4,0.1-0.4l0.7,0.1c0,0,0,0.2,0,0.3c0,0.1,0,0.3-0.1,0.3c-0.1,0-0.2,0-0.2,0V22l0.4,0.1l0.2-1.4h-0.1 c0,0-0.1,0.2-0.2,0.2c-0.1,0-1.4-0.2-1.5-0.2c-0.1,0-0.1-0.3-0.1-0.3H131C131,20.3,131,20.6,131,20.7z M130.7,22l-0.2,0.4l0.1,0 c0,0,0-0.2,0.2-0.1c0.1,0,1.1,0.4,1.1,0.4l-1.7,0.6l-0.1,0c0,0,1.6,0.8,1.7,0.8c0,0.1,0.1,0.4,0.1,0.4l0.1,0.1l0.3-0.7h-0.1 c0,0,0,0.1-0.2,0.1h-0.2l-1.2-0.6l1.9-0.6l0.2-0.4l-0.1,0c0,0,0,0.2-0.1,0.2c-0.1,0-1.5-0.4-1.6-0.4c-0.1,0-0.2-0.2-0.2-0.2 L130.7,22L130.7,22z M130.1,23.8L130.1,23.8l0,0.2c0,0-0.4,0.2-0.4,0.3c0,0.1-0.2,0.5,0.1,0.7c0.4,0.2,0.7,0.1,0.9,0 c0.2-0.1,0.6-0.2,0.7,0c0.1,0.2,0,0.4-0.1,0.5c-0.1,0.1-0.3,0.2-0.4,0.2s-0.3,0-0.3,0l-0.1,0l0.7,0.5l0.1-0.1l-0.1-0.2 c0,0,0.6-0.4,0.7-0.5c0-0.1,0-0.5-0.3-0.6c-0.2-0.1-0.5-0.2-0.7-0.1c-0.2,0.1-0.5,0.3-0.6,0.3c-0.1,0-0.5-0.1-0.3-0.4 c0.2-0.2,0.4-0.3,0.6-0.2s0.3,0.1,0.3,0.1l0-0.1L130.1,23.8z M129.3,24.8l-1.1,1.2l0.4,0.4h0.1c0,0,0-0.3,0-0.4 c0-0.1,0.5-0.4,0.5-0.4l0.4,0.4c0,0-0.1,0.2-0.2,0.3c-0.1,0.1-0.4,0-0.4,0l0,0l0.5,0.4v-0.1c0,0,0-0.1,0-0.2 c0-0.1,0.3-0.3,0.3-0.3l0.6,0.4l-0.1,0.1c-0.1,0.1-0.4,0.4-0.6,0.4c-0.1,0.1-0.2,0-0.2,0l-0.1,0.1l0.4,0.4l1.2-1.2l-0.1,0 c0,0-0.2,0.1-0.4,0c-0.1-0.1-1.1-0.9-1.2-1C129.2,25.1,129.3,24.8,129.3,24.8L129.3,24.8z M117.3,13.2l0.4,0l-0.2-0.4h-0.4 L117.3,13.2z M116.6,12.8l-0.4,0.7l0.1,0c0,0,0.1-0.1,0.2,0c0.1,0,1.1,0.7,1.2,0.7c0.1,0,0.1,0.1,0.1,0.1l-0.1,0.1l0.1,0l0.4-0.7 l-0.1-0.1c0,0-0.1,0.1-0.2,0.2c-0.1,0-0.2,0-0.3,0c0,0-0.9-0.6-0.9-0.7c-0.1,0-0.1-0.2-0.1-0.2s0.1-0.1,0.1-0.1L116.6,12.8z M118.1,11.2v0.1c0,0-0.2,0-0.4,0.1c-0.2,0.1-0.4,0.4-0.4,0.6c0,0.2,0.3,0.4,0.7,0.4c0.4,0,0.8,0,0.9,0.1c0.1,0.1,0,0.4-0.3,0.4 c-0.3,0-0.5-0.2-0.5-0.2l0,0.1l0.6,0.6v-0.2c0,0,0.2-0.1,0.4-0.1c0.2,0,0.3-0.5,0.2-0.7c-0.1-0.2-0.3-0.3-0.5-0.3 c-0.1,0-0.9,0.1-1.2-0.1c-0.3-0.2,0.4-0.4,0.5-0.4s0.5,0.2,0.5,0.2l0-0.1L118.1,11.2L118.1,11.2z M119.4,10.5 c-0.2,0.2-0.4,0.6,0,1.1c0.3,0.4,0.7,0.5,0.9,0.4c0.1-0.1,0.2-0.4,0-0.9C119.8,10.6,119.6,10.4,119.4,10.5z M119.2,10.3 c-0.2,0.2-0.7,0.8-0.2,1.4c0.5,0.6,1,0.7,1.3,0.5c0.4-0.2,0.5-1,0.1-1.6C120,9.9,119.4,10.1,119.2,10.3z M120.4,9.9 c0,0,0.2,0,0.2,0c0,0.1,0.5,1.4,0.6,1.4c0,0.1-0.1,0.2-0.1,0.2l0,0.1l0.5-0.3v-0.1c0,0-0.2,0-0.2,0c0-0.1-0.6-1.3-0.6-1.4 c0-0.1,0.1-0.2,0.1-0.2l0-0.1l-0.5,0.2L120.4,9.9z M121.1,9.6l0.2,0.5l0.1,0c0,0,0-0.4,0.1-0.4c0.1,0,0.4-0.1,0.4-0.1 c0,0,0.3,1.2,0.3,1.3c0.1,0.1,0,0.2,0,0.3c0,0-0.1,0.1-0.1,0.1v0.1c0,0,0.3,0,0.4,0c0.1,0,0.4-0.1,0.4-0.1l0-0.1 c0,0-0.2,0-0.2-0.1c0-0.2-0.2-1.3-0.2-1.4c0,0,0.1-0.1,0.2-0.1c0.1,0,0.3-0.1,0.4,0c0,0.1,0.1,0.3,0.1,0.3l0.1,0l-0.1-0.5 c0,0-0.7,0.1-1,0.1C121.8,9.4,121.1,9.6,121.1,9.6z"></path> </g> </g> <path class="st0" d="M73.5,30.8H53.1v-0.4l3-1.7v-20l-3-1.7V6.7h8.4h11.3l0.4,6.3l-0.4,0.1c0,0-3.2-3.3-3.9-3.9 c-0.7-0.7-1.2-0.8-1.7-1c-1-0.3-2-0.2-2-0.2l-3.6-0.1V18c0,0,3.8,0,4.2-0.1c0.6-0.1,0.8-0.1,1.6-1c0.7-0.7,1.7-2.1,1.7-2.1h0.4v8 h-0.4c0,0-2-2.9-2.2-3c-0.1-0.1-0.4-0.6-1.5-0.6c-1.1,0-3.8,0-3.8,0v10.4c0,0,2.2,0,3.9-0.1c1.7-0.1,2.7-0.2,3.8-1.1 c1.1-1,4.1-4.4,4.1-4.4l0.5,0.1L73.5,30.8z"></path> <path class="st0" d="M256.3,24l-0.5-0.1c0,0-3,3.5-4.1,4.4c-1.1,1-2.1,1-3.8,1.1c-1.8,0.2-3.9,0.1-3.9,0.1V19.2c0,0,2.8,0.1,3.8,0 c1.1,0,1.4,0.4,1.5,0.6c0.2,0.1,2.1,3,2.1,3h0.4v-8h-0.4c0,0-1,1.3-1.7,2.1c-0.8,0.9-1,0.9-1.6,1c-0.4,0-4.2,0.1-4.2,0.1V7.8 l3.6,0.1c0,0,1.1,0,2,0.2c0.4,0.2,1,0.4,1.7,1c0.7,0.7,3.9,3.9,3.9,3.9l0.4-0.1l-0.4-6.3h-11.3h-8.4v0.3l3,1.7v20l-3,1.7v0.4h20.4 L256.3,24z"></path> <polygon class="st0" points="219.1,23.2 226.4,6.7 234.4,6.7 234.4,7.1 231.5,8.8 231.5,28.7 234.4,30.4 234.4,30.7 223,30.7 223,30.4 226,28.8 226,11.7 217.4,30.4 216.3,30.4 207.1,11.3 207.1,28.7 210,30.4 210,30.7 202.4,30.7 202.4,30.4 205.3,28.8 205.3,8.7 202.4,7.1 202.4,6.7 211,6.7 "></polygon> <g> <g> <defs> <rect id="SVGID_3_" x="258" y="6.1" width="16.5" height="25.7"></rect> </defs> <clipPath id="SVGID_4_"> <use xlink:href="#SVGID_3_" style="overflow:visible;"></use> </clipPath> <path class="st2" d="M272.6,7.1l0.4,6l-0.4,0c0,0-4.1-4.4-4.6-4.8c-0.3-0.2-2.2-1.6-4.3-0.1c0,0-2,1.4-0.7,3.9 c1.3,2.5,5.1,4.3,6.1,4.9c1,0.6,5.9,3,5.3,7.8c-0.6,4.6-4.7,5.9-6.4,6.2c-3.6,0.7-9.2-0.9-9.2-0.9l-0.4-6.2l0.5-0.1 c0,0,4.1,4.9,5.7,5.5c1.6,0.6,3.9,0.8,5.2-0.9c1.3-1.7,0.2-4.1-1.1-5c-1.8-1.2-4.6-2.7-6.5-3.9c-2.1-1.4-3.4-3.5-3.7-5.7 c-0.4-3.2,1.5-5.9,4-6.9c2.3-0.9,4.1-0.7,5.8-0.6C270,6.5,272.6,7.1,272.6,7.1z"></path> </g> </g> </g> </svg> 